<?xml version="1.0" encoding="UTF-8" standalone="no"?>
<svg xmlns="http://www.w3.org/2000/svg" xmlns:svg="http://www.w3.org/2000/svg" width="167" height="202" version="1.0">
  <defs/>
  <g transform="translate(-2.0781183 -3.6856061)">
    <path d="M95.84375 9.78125c-.011899.0088168-.02243.0193477-.03125.03125-.011899.0088168-.02243.0193477-.03125.03125-.001089.0103883-.00109.0208617 0 .03125-.001089.0103883-.00109.0208617 0 .03125-.134959 1.240679-1.12467 2.483429-3.03125 3.25-1.906579.766571-4.73689 1.030187-8.5625.28125-2.738299-.536076-6.04267-.476174-8.625.28125-1.291169.378712-2.38313.93251-3.15625 1.6875-.737379.720085-1.15084 1.635119-1.09375 2.71875-3.107919.049864-5.50586 1.549161-6.625 3.65625-1.138309 2.143187-.9759 4.908954 1.0625 7.34375.008821.011903.01935.022433.03125.03125.008821.011903.01935.022433.03125.03125.010391.001089.02086.001088.03125 0 .010391.001089.02086.001088.03125 0 .010391.001089.02086.001088.03125 0 .010391.001089.02086.001088.03125 0 .011901-.008816.02243-.019348.03125-.03125.011901-.008816.02243-.019348.03125-.03125.015191-.018082.0259-.039497.03125-.0625.137021-1.559752 1.40807-3.048231 3-3.8125 1.591931-.764268 3.45862-.801475 4.875.40625.010391.001089.02086.001088.03125 0 .010391.001089.02086.001088.03125 0 .005221.005224.0253-.004409.03125 0 .010851.009116.01838.025552.03125.03125.021221-.003905.04134.003817.0625 0 .023001-.005351.04442-.016059.0625-.03125 3.573151-.630275 6.33837.017872 8.125 1.34375.885691.657284 1.54202 1.491532 1.9375 2.40625-1.759949-1.103813-4.00328-2.03125-6.6875-2.03125-2.232569.000001-4.69108 1.207262-7.0625 2.40625-2.371419 1.198989-4.67285 2.40625-6.4375 2.40625-2.629679-.000001-4.15404-1.045414-5.46875-2.1875-.020979-.018229-.04162-.044228-.0625-.0625.001091-.010387.00109-.020862 0-.03125-.010389-.001087-.02086-.001088-.03125 0-.010389-.001087-.02086-.001088-.03125 0-.010389-.001087-.02086-.001088-.03125 0-.010389-.001087-.02086-.001088-.03125 0-.010389-.001087-.02086-.001088-.03125 0-.011899.008818-.02243.019348-.03125.03125-.011899.008818-.02243.019348-.03125.03125-.001089.010389-.00109.020862 0 .03125-.011899.008818-.02243.019348-.03125.03125-.001089.010389-.00109.020862 0 .03125.171181.937008.91477 2.180554 2.03125 3.21875 1.116481 1.038195 2.63023 1.875001 4.375 1.875 2.166181-.000001 4.43573-1.090114 6.65625-2.15625 2.220521-1.066137 4.37857-2.125 6.34375-2.125 1.569081.000001 2.96723.613047 4.15625 1.40625-1.904269.085334-3.88995.424718-5.625 1.0625-2.670709.981719-4.77999 2.671329-5.0625 5.15625-.001089.010387-.00109.020862 0 .03125.008821.011901.01935.022433.03125.03125-.001089.010387-.00109.020862 0 .03125.008821.011901.01935.022433.03125.03125.008821.011901.01935.022433.03125.03125.010391.001087.02086.001088.03125 0 .010391.001087.02086.001088.03125 0 .010391.001087.02086.001088.03125 0 .010391.001087.02086.001088.03125 0 3.046411-1.065022 7.24245-1.15297 10.5625-.875 1.021381.085514 1.86875.015222 2.59375-.15625.342131 6.420887-4.1052 11.916599-8.875 14.65625-2.396719 1.376613-4.86528 2.062064-6.8125 1.8125-1.947219-.249565-3.36702-1.401055-3.78125-3.71875-.008819-.011903-.01935-.022433-.03125-.03125-.008819-.011903-.01935-.022433-.03125-.03125-.008819-.011903-.01935-.022433-.03125-.03125-.010389-.001089-.02086-.001088-.03125 0-.008819-.011903-.01935-.022433-.03125-.03125-.011899.008816-.02243.019348-.03125.03125-.010389-.001089-.02086-.001088-.03125 0-.010389-.001089-.02086-.001088-.03125 0-.901989.686608-1.22029 1.770281-1.15625 2.84375.064041 1.073468.4908 2.164395 1.1875 2.90625.990351 1.054536 2.68199 1.720652 4.5 1.84375 1.299611.087996 2.6685-.113286 3.90625-.65625-1.120459.999741-2.10859 2.021729-2.9375 3.09375-.322989-.310025-1.04623-.818488-2-1.25-.966499-.437273-2.14646-.8125-3.3125-.8125-2.675569-.000001-4.95096 1.027623-7.15625 2.03125-2.205289 1.003626-4.33727 2-6.71875 2C44.677961 62.281247 40.25 57.154259 40.25 51.0625c-.000009-3.542816 2.03834-5.790618 4.09375-7.71875 1.027711-.964067 2.05875-1.864077 2.84375-2.78125.785001-.917174 1.3125-1.8771 1.3125-3 .000001-1.715998-.86534-3.129624-2.21875-4.3125-1.353409-1.182877-3.18289-2.148416-5.15625-2.96875-2.718989-1.130292-5.69364-2.884818-7.21875-4.96875C33.143691 24.270535 32.7326 23.171143 32.875 22c.142401-1.171142.83648-2.428257 2.3125-3.71875.011901-.008816.02243-.019348.03125-.03125.015191-.018082.0259-.039497.03125-.0625.001091-.010387.00109-.020862 0-.03125-.005349-.023002-.01606-.044417-.03125-.0625-.008819-.011901-.01935-.022433-.03125-.03125-.008819-.011901-.01935-.022433-.03125-.03125-.010389-.001087-.02086-.001088-.03125 0-.010389-.001087-.02086-.001088-.03125 0-.010389-.001087-.02086-.001088-.03125 0-.026169.003849-.03656.027182-.0625.03125-1.933859.303245-3.25954 1.202912-4 2.4375-.750401 1.251152-.89441 2.794732-.59375 4.375.437089 2.297282 1.87338 4.617235 4 6.09375-6.064079-2.245848-9.93052-5.75561-13.46875-9.5625-.018081-.01519-.0395-.025898-.0625-.03125-.010391-.001087-.02086-.001088-.03125 0-.802531-.187066-1.47171-.101113-2 .25-.528291.351114-.90317.950077-1.09375 1.6875-.381161 1.474847-.07893 3.577149.9375 5.84375 1.522159 3.394349 4.6769 7.172162 9.84375 9.6875-6.329431-1.48208-11.97679-4.3266-14.65625-8.09375-.00882-.011901-.01935-.022433-.03125-.03125-.00882-.011901-.01935-.022433-.03125-.03125-.01039-.001087-.02086-.001088-.03125 0-.01039-.001087-.02086-.001088-.03125 0-.01039-.001087-.02086-.001088-.03125 0-.01039-.001087-.02086-.001088-.03125 0-.01039-.001087-.02086-.001088-.03125 0-.01519.018084-.0259.039497-.03125.0625-.0119.008818-.02243.019348-.03125.03125a.14973023.14973023 0 0 0 0 .03125c-.00062.022804.03118.070212.03125.09375.00361 1.238749.93369 3.461003 3.4375 5.8125 1.985039 1.86429 4.97047 3.77398 9.21875 5.25-2.395891-.335436-4.73125-.777398-6.84375-1.375-3.804081-1.07613-6.92408-2.660025-8.53125-4.90625-.00882-.011903-.01935-.022433-.03125-.03125-.01039-.001089-.02086-.001088-.03125 0a.14973023.14973023 0 0 0 0-.03125c-.68664-.225576-1.28262-.190372-1.78125.03125-.4986301.221621-.88943.649942-1.15625 1.15625-.5336301 1.012614-.62113 2.405929-.21875 3.65625.8565699 2.66163 3.52202 5.861147 7.28125 8.21875 1.97011 1.235554 4.22937 2.223173 6.6875 2.78125-1.860211.06249-3.90864.037278-5.90625-.125-4.10319-.333327-8.01982-1.271427-9.8125-3.125-.0088201-.011903-.01935-.022433-.03125-.03125-.0103901-.001089-.02086-.001088-.03125 0-.0103901-.001089-.02086-.001088-.03125 0-.0103901-.001089-.02086-.001088-.03125 0-.0103901-.001089-.02086-.001088-.03125 0-.0103901-.001089-.02086-.001088-.03125 0-.0119001.008816-.02243.019348-.03125.03125-.0151901.018082-.0259.039497-.03125.0625-.0010901.010387-.00109.020862 0 .03125-.0010901.010387-.00109.020862 0 .03125.0048299.032943.02577.060979.03125.09375.4197799 2.510516 2.7299597 4.504477 6.5 5.625 2.87757.855265 6.60579 1.218127 11.03125.90625-2.545341 1.208971-5.15541 1.946167-7.5 2.25-1.99074.257978-3.77582.215222-5.1875-.09375-1.4116801-.308973-2.43755-.871392-2.875-1.625-.0088201-.011903-.01935-.022433-.03125-.03125-.0088201-.011903-.01935-.022433-.03125-.03125-.0180801-.015192-.0395-.025898-.0625-.03125-.0230001.005351-.04442.016059-.0625.03125-.0103901-.001089-.02086-.001088-.03125 0-.0119001.008816-.02243.019348-.03125.03125-.0010901.010387-.00109.020862 0 .03125-1.2633901 2.737399-1.10729 4.937332.03125 6.5625 1.1385399 1.625167 3.22381 2.665228 5.78125 3.21875 3.01211.651931 6.69359.607756 10.28125-.03125-5.993321 3.632433-13.16955 5.163648-16 5.5625-.0103901-.001085-.02086-.001088-.03125 0-.0119001.00882-.02243.019348-.03125.03125-.0119001.00882-.02243.019348-.03125.03125-.0119001.00882-.02243.019348-.03125.03125-.0010901.010391-.00109.020862 0 .03125-.0010901.010391-.00109.020862 0 .03125-.0010901.010391-.00109.020862 0 .03125.0088199.011905.01935.022433.03125.03125.0088199.011905.01935.022433.03125.03125 1.0360799 1.0291 2.804 1.368789 4.9375 1.25 2.1335-.118786 4.61492-.716868 7.09375-1.5625 2.300459-.784777 4.58916-1.807763 6.5625-2.90625-2.700131 2.389693-5.65327 4.102488-8.4375 5.28125-4.419091 1.870918-8.43481 2.382472-10.21875 2.09375-.0103901-.001085-.02086-.001088-.03125 0-.0103901-.001085-.02086-.001088-.03125 0-.0230001.005355-.04442.016059-.0625.03125-.0119001.00882-.02243.019348-.03125.03125-.0010901.010391-.00109.020862 0 .03125-.2358801.782081-.12901 1.532088.25 2.21875.3790099.686665 1.02442 1.303115 1.84375 1.8125 1.63867 1.018773 4.0138 1.648661 6.53125 1.59375 3.16589-.069052 6.77156-.862928 10.09375-2.25-4.699991 4.503092-10.85482 7.757522-14.9375 9.15625-.0119.00882-.02243.019348-.03125.03125-.0119.00882-.02243.019348-.03125.03125-.00109.010391-.00109.020862 0 .03125-.0119.00882-.02243.019348-.03125.03125-.00109.010391-.00109.020862 0 .03125-.00109.010391-.00109.020862 0 .03125.00535.023006.01606.044417.03125.0625.00882.011905.01935.022433.03125.03125.01039.001091.02086.001088.03125 0 .00882.011905.01935.022433.03125.03125.01039.001091.02086.001088.03125 0 .01037-.000269.02088.000289.03125 0 6.28358-.175009 12.3488-3.464049 17.09375-7.1875-1.161521 1.371527-2.38821 2.753823-3.6875 4.0625-4.763751 4.798156-10.29107 8.794291-15.09375 9.4375-.0230001.005355-.04442.016059-.0625.03125-.0010901.010391-.00109.020862 0 .03125-.5639101.551145-.84807 1.168182-.84375 1.78125.0043199.613071.27811 1.204811.78125 1.71875 1.00629 1.027881 2.90262 1.75 5.40625 1.75 6.01521.000003 12.35604-4.135461 17.71875-9.1875C27.583921 97.07824 21.2932 104.19427 15 108.375a.15028293.15028293 0 0 0-.03125.03125c-.01519.01808-.0259.0395-.03125.0625-.00109.01039-.00109.02086 0 .03125-.00109.01039-.00109.02086 0 .03125.00882.0119.01935.02243.03125.03125-.00109.01039-.00109.02086 0 .03125.00882.0119.01935.02243.03125.03125.01808.01519.0395.0259.0625.03125.01039.00109.02086.00109.03125 0 .02788.00118.06556-.03175.09375-.03125 1.57621.02812 3.61597-.96513 5.96875-2.65625 2.394859-1.72137 5.10125-4.14358 7.84375-6.90625 1.756579-1.7695 3.52272-3.67364 5.25-5.625-4.605999 7.78432-9.06693 13.97181-14.21875 18.09375-2.274841 1.82009-4.11663 2.56711-5.40625 3.09375-.64481.26332-1.13367.45491-1.5.75-.36633.29509-.59375.70554-.59375 1.25-.00001.90917.72096 1.75759 1.78125 2.40625s2.47512 1.09375 3.96875 1.09375c4.893109 0 10.86897-3.5482 16.0625-8.25 4.089561-3.70236 8.79081-9.79278 12.71875-16.0625 2.308441-3.684699 4.35286-7.417344 5.84375-10.78125-1.087379 5.31821-2.91054 10.751567-4.4375 13.90625-1.024709 2.11702-3.14399 6.16602-4.0625 7.9375-.358629.69168-1.10467 1.50248-1.78125 2.21875-.338289.35813-.66979.67178-.90625.96875-.236459.29697-.40625.55402-.40625.8125.000001.69729.21973 1.40024.78125 1.90625.561521.50601 1.44889.8097 2.75.75.750391 0 1.7407-.38604 2.96875-1.09375 1.228051-.70771 2.6733-1.76257 4.375-3.125 5.134291-4.11064 10.91558-13.016053 13.34375-28.84375-.001109 2.793477-.11349 6.009989-.34375 9-.302159 3.923663-.82726 7.48109-1.5625 9.21875-.001089.010391-.00109.020862 0 .03125-.001089.010391-.00109.020862 0 .03125-.001089.010391-.00109.020862 0 .03125.005351.023006.01606.044417.03125.0625.008821.011905.01935.022433.03125.03125.010391.001091.02086.001088.03125 0 .008821.011905.01935.022433.03125.03125.010391.001091.02086.001088.03125 0 .010391.001091.02086.001088.03125 0 1.267441-.348158 2.21159-1.568346 2.90625-3.21875.694661-1.650401 1.15835-3.770408 1.46875-6.03125.575391-4.190875.60905-8.779105.5625-11.78125.524931 1.561828 1.12072 3.111406 1.71875 4.65625 1.700411 4.392512 3.40625 8.624441 3.40625 12 .000001.772124-.46132 1.636792-1.21875 2.5625-.757429.925711-1.79683 1.901039-2.9375 2.90625-2.281339 2.01042-4.95263 4.13119-6.40625 6.21875-.456709.65589-.93919 1.744-1.53125 3.03125-.592059 1.28725-1.27731 2.76388-2.125 4.15625-1.695379 2.78474-3.98568 5.21875-7.3125 5.21875-1.126249 0-1.99285-.31443-2.5625-.84375-.569649-.52932-.86182-1.27864-.8125-2.125.001091-.01039.00109-.02086 0-.03125.001091-.01039.00109-.02086 0-.03125-.008819-.0119-.01935-.02243-.03125-.03125-.008819-.0119-.01935-.02243-.03125-.03125-.018079-.01519-.0395-.0259-.0625-.03125-.010389-.00109-.02086-.00109-.03125 0-.010389-.00109-.02086-.00109-.03125 0-.011899.00882-.02243.01935-.03125.03125-.010389-.00109-.02086-.00109-.03125 0-1.123509.9536-1.47388 2.59081-.90625 4 .567631 1.40919 2.07597 2.59375 4.65625 2.59375 2.090481 0 3.89455-.6826 5.4375-1.59375-3.302809 5.20649-9.95506 11.94648-17.40625 18.78125-1.301239.84034-3.20212 1.35952-4.625 1.34375-1.138069-.01262-2.51764-.65947-3.90625-1.3125-1.388611-.65304-2.78483-1.3125-4.03125-1.3125-.834151-.00001-1.63713.23936-2.25.65625-.718901-.48211-1.47477-.68527-2.1875-.65625-2.565841.10444-4.52894 3.0272-1.71875 5.25-.354371-1.51866 1.08091-2.65106 2.8125-1.875.256989 1.53444 1.40615 2.5 2.78125 2.5.511349-.00001.97226-.28223 1.4375-.53125.465239-.24903.93286-.46875 1.4375-.46875.308899-.00001.62281.20208.96875.46875.345939.26666.69379.59483 1.15625.71875.233531.06257.50292.10377.78125.125-.102459.02158-.21354.04638-.3125.0625-1.129789.18399-3.38042-.1875-5.40625-.1875-.904621-.00001-1.64558.46039-2.125 1.09375-.453831-.10474-.89505-.1783-1.3125-.1875-.202401-.00447-.40234.01616-.59375.03125-1.276081.10058-2.30431.66064-2.96875 1.5625-1.010001 1.37087-.75434 4.15616 1.71875 4.75-.813991-1.75445.58238-3.59015 2.90625-2.96875.111509.24149.23581.47605.40625.6875.507579.62968 1.29529 1.09375 2.28125 1.09375.577159-.00001 1.01053-.18468 1.34375-.4375.333219-.25283.56774-.58566.75-.90625.182259-.3206.32487-.62607.46875-.84375.143879-.21769.26176-.3125.4375-.3125.569959-.00001 1.03086.10008 1.53125.1875.339551.05931.6865.09662 1.09375.09375-.379369.22693-.74945.46389-1.125.6875-1.102199.65627-2.16612 1.30304-3 1.96875-.833881.6657-1.45277 1.36643-1.65625 2.125-.073151.27271-.07909.53871-.0625.8125-1.318751.85007-2.16128 2.19028-2.25 3.59375-.107441 1.69935 1.30781 3.81057 3.8125 3.5-1.296861-1.11608-.93859-2.92383.40625-3.65625.504729.49065 1.2886.84217 2.09375.875.805149.03282 1.6342-.24701 2.1875-1 .686351-.93405.81262-2.27683.96875-3.53125.156131-1.25443.363-2.40248 1.15625-3.0625.848531-.70602 1.62906-1.0224 2.46875-1.21875.839691-.19636 1.74077-.26776 2.78125-.5 1.781091-.39755 3.36593-1.58933 4.625-3.78125.866671-.32697 2.14914-.51445 3 0 .443711.26827.88844.81335 1.40625 1.3125.517811.49914 1.14462.96875 1.9375.96875.787371-.00001 1.65953-.29516 2.34375-.8125.684221-.51735 1.15625-1.27524 1.15625-2.21875.000001-.14654-.0218-.29103-.03125-.4375 1.575151-.92956 3.56032.08488 3.46875 2 2.022101-2.13721 1.65129-4.15925.34375-5.25-.860189-.71758-2.11532-1.03122-3.40625-.9375-.650039.04718-1.30055.20566-1.90625.46875-.593009-.60261-1.34875-1-2.21875-1-.761309-.00001-1.85475.43461-2.96875.96875-.720079.34525-1.3126.71865-1.9375 1.09375 3.798331-4.03375 9.91262-8.53146 14-13.0625.206181-.22856.66056-.42933 1.25-.625.589441-.19567 1.3151-.40198 2.0625-.625 1.420191-.42378 2.91098-.97451 3.8125-2.03125.169771.43707.35986.85963.59375 1.25.756361 1.26239 1.91475 2.21219 3.75 2.46875.010391.00108.02086.00109.03125 0 .010391.00108.02086.00109.03125 0 .023001-.00536.04442-.01606.0625-.03125.011901-.00883.02243-.01935.03125-.03125.001091-.0104.00109-.02086 0-.03125.001091-.0104.00109-.02086 0-.03125.001091-.0104.00109-.02086 0-.03125.001091-.0104.00109-.02086 0-.03125-.842119-4.00492-.64566-7.22322.25-9.5625.868031-2.26711 2.41333-3.66027 4.28125-4.15625.286631 1.27602.26485 3.50708-.09375 6.15625-.371969 2.74797-1.07732 5.9014-2.15625 8.75-1.078929 2.84859-2.5124 5.3969-4.28125 6.96875-1.768849 1.57184-3.87319 2.16844-6.34375 1.15625-.010389-.0011-.02086-.00109-.03125 0-.010389-.0011-.02086-.00109-.03125 0-.010389-.0011-.02086-.00109-.03125 0-.011899.00881-.02243.01935-.03125.03125-.010389-.0011-.02086-.00109-.03125 0-.001089.01038-.00109.02086 0 .03125-.011899.00881-.02243.01935-.03125.03125-.001089.01038-.00109.02086 0 .03125-.001089.01038-.00109.02086 0 .03125-.001089.01038-.00109.02086 0 .03125.778381 3.18494 3.62453 4.8125 6.5 4.8125 2.391391-.00001 4.35143-1.0145 5.875-2.625.049981-.05284.10714-.10216.15625-.15625-.344109 1.51056-1.02587 3.32947-2.28125 4.90625-1.635669 2.05442-4.24982 3.6875-8.4375 3.6875-2.948979-.00001-5.79435.61564-7.46875 2.75-.711819.90735-1.26594 2.33312-1.375 3.875-.109059 1.54187.23587 3.23057 1.375 4.5625.018081.01518.0395.0259.0625.03125.010391.00108.02086.00109.03125 0 .010391.00108.02086.00109.03125 0 .010391.00108.02086.00109.03125 0 .023001-.00536.04442-.01606.0625-.03125.015191-.01809.0259-.0395.03125-.0625.001091-.0104.00109-.02086 0-.03125.076121-1.28033.59807-2.36496 1.65625-3.125 1.058181-.76005 2.67472-1.1875 5-1.1875 4.023021-.00002 7.68116-1.49369 10.3125-4.09375-.964869 2.3493-2.52033 4.88616-4.375 7.03125-1.993769 2.30597-4.52755 3.98401-6.78125 4.65625-1.126849.33611-2.17951.39189-3.0625.1875-.882989-.2044-1.59131-.6737-2.0625-1.5-.008819-.01191-.01935-.02243-.03125-.03125-.008819-.01191-.01935-.02243-.03125-.03125-.010389-.0011-.02086-.00109-.03125 0-.010389-.0011-.02086-.00109-.03125 0-.760319-.09114-1.35212.14314-1.75.59375-.397879.4506-.6112 1.08461-.65625 1.78125-.090099 1.39327.44545 3.03239 1.53125 3.96875.921481.79464 2.24183 1.25626 3.5625 1.40625 1.038761.11796 1.98505-.11749 2.875-.375-7.633799 5.01968-15.6875.11635-15.6875-5.40625.000001-1.25679.4628-2.79276 1.28125-3.875.818451-1.08225 1.95101-1.71745 3.375-1.28125.008821.01189.01935.02243.03125.03125.010391.00108.02086.00109.03125 0 .011901-.00883.02243-.01935.03125-.03125.010391.00108.02086.00109.03125 0 .011901-.00883.02243-.01935.03125-.03125.011901-.00883.02243-.01935.03125-.03125.001091-.0104.00109-.02086 0-.03125.001091-.0104.00109-.02086 0-.03125.001091-.0104.00109-.02086 0-.03125.001091-.0104.00109-.02086 0-.03125-.017299-.04106-.07537-.05321-.09375-.09375-.618459-1.3639-1.79856-2.46875-3.5-2.46875-2.314589-.00001-4.42832 1.2628-5.9375 3.15625-1.509179 1.89344-2.4375 4.44096-2.4375 7.03125.000011 3.19493 1.11389 6.44236 3.5625 8.90625 2.448611 2.46388 6.25051 4.125 11.5625 4.125 3.212355-.00001 6.10687-1.06921 8.71875-2.78125-5.046507 10.17849 3.860764 17.32673 9.65625 11.53125-5.492528-.55574-4.194533-6.96501-.21875-9.59375 3.93464-2.60154 6.063545-6.06147 7.09375-9.90625-.434853 8.47436-.861657 16.41763-4.90625 22.1875-1.212214 1.72931 1.106526 2.6875 4 2.6875.057517 1.82893 2.115675 3.46875 4.125 3.46875s4.067477-1.63982 4.125-3.46875c2.893474 0 5.212208-.95819 4-2.6875-4.044593-5.76987-4.471403-13.71314-4.90625-22.1875 1.030205 3.84478 3.159104 7.30471 7.09375 9.90625 3.97578 2.62874 5.27376 9.03801-.21875 9.59375 5.79548 5.79548 14.70276-1.35276 9.65625-11.53125 2.6149 1.71662 5.53284 2.78125 8.75 2.78125 5.31199-.00001 9.11389-1.66111 11.5625-4.125 2.44861-2.4639 3.53125-5.71131 3.53125-8.90625-.00001-2.5903-.92833-5.1378-2.4375-7.03125-1.50917-1.89346-3.59165-3.15625-5.90625-3.15625-1.7011-.00001-2.88141 1.10525-3.5 2.46875-.01852.0408-.07633.05242-.09375.09375-.0119.00881-.02243.01935-.03125.03125-.00109.01038-.00109.02086 0 .03125-.00109.01038-.00109.02086 0 .03125.00882.01189.01935.02243.03125.03125-.00109.01038-.00109.02086 0 .03125.00882.01189.01935.02243.03125.03125.01039.00108.02086.00109.03125 0 .01808.01518.0395.0259.0625.03125.0119-.00883.02243-.01935.03125-.03125 1.42399-.43621 2.5878.19901 3.40625 1.28125.81845 1.08223 1.28125 2.61822 1.28125 3.875 0 5.52379-8.08349 10.43137-15.71875 5.40625.89598.2643 1.85638.49423 2.90625.375 1.32067-.15 2.60977-.6116 3.53125-1.40625 1.0858-.93637 1.62135-2.57547 1.53125-3.96875-.04505-.69665-.22712-1.33064-.625-1.78125-.39788-.45062-1.02093-.68488-1.78125-.59375-.01039-.0011-.02086-.00109-.03125 0-.0119.00881-.02243.01935-.03125.03125-.0119.00881-.02243.01935-.03125.03125-.47119.82629-1.17951 1.29561-2.0625 1.5-.88299.20438-1.93565.14862-3.0625-.1875-2.25371-.67225-4.78747-2.35027-6.78125-4.65625-1.854659-2.1451-3.41013-4.68194-4.375-7.03125 2.631331 2.60005 6.28947 4.09374 10.3125 4.09375 2.32528-.00001 3.94182.42746 5 1.1875 1.05818.76003 1.58014 1.84468 1.65625 3.125-.00109.01038-.00109.02086 0 .03125-.00109.01038-.00109.02086 0 .03125.00882.01189.01935.02243.03125.03125.00882.01189.01935.02243.03125.03125.01039.00108.02086.00109.03125 0 .01039.00108.02086.00109.03125 0 .01039.00108.02086.00109.03125 0 .01039.00108.02086.00109.03125 0 .0119-.00883.02243-.01935.03125-.03125.01039.00108.02086.00109.03125 0 1.13914-1.33194 1.48406-3.02062 1.375-4.5625-.10906-1.54189-.66318-2.96764-1.375-3.875-1.6744-2.13437-4.51976-2.75-7.46875-2.75-4.18768-.00001-6.80184-1.63307-8.4375-3.6875-1.255369-1.57679-1.93714-3.39568-2.28125-4.90625.049111.05408.10627.10342.15625.15625 1.523571 1.61049 3.483599 2.625 5.875 2.625 2.87547-.00001 5.72161-1.62755 6.5-4.8125.00109-.0104.00109-.02086 0-.03125.00109-.0104.00109-.02086 0-.03125.00109-.0104.00109-.02086 0-.03125-.00882-.01191-.01935-.02243-.03125-.03125-.00882-.01191-.01935-.02243-.03125-.03125-.00882-.01191-.01935-.02243-.03125-.03125-.01039-.0011-.02086-.00109-.03125 0-.01039-.0011-.02086-.00109-.03125 0-.01039-.0011-.02086-.00109-.03125 0-.01039-.0011-.02086-.00109-.03125 0-2.47056 1.01218-4.54364.4156-6.3125-1.15625-1.768859-1.57186-3.20232-4.12015-4.28125-6.96875-1.078929-2.84861-1.78428-6.00203-2.15625-8.75-.358599-2.64917-.38039-4.88023-.09375-6.15625 1.867921.49598 3.38197 1.88914 4.25 4.15625.895661 2.33928 1.12339 5.55759.28125 9.5625-.011899.00881-.02243.01935-.03125.03125.005351.02299.01606.04442.03125.0625-.001089.01038-.00109.02086 0 .03125.008821.01189.01935.02243.03125.03125.008821.01189.01935.02243.03125.03125.010391.00108.02086.00109.03125 0 .010391.00108.02086.00109.03125 0 .010391.00108.02086.00109.03125 0 1.83525-.25657 2.99364-1.20636 3.75-2.46875.2272-.3792.39602-.79522.5625-1.21875.90626 1.04532 2.43132 1.57853 3.84375 2 .74741.22302 1.47306.42933 2.0625.625s1.04382.39644 1.25.625c4.08738 4.53104 10.20169 9.02876 14 13.0625-.6249-.37511-1.21742-.74849-1.9375-1.09375-1.114-.53415-2.20743-.96875-2.96875-.96875-.87-.00001-1.62574.3974-2.21875 1-.84897-.36707-1.79461-.52022-2.6875-.46875-1.01514.05851-1.9681.36344-2.65625.9375-1.30754 1.09074-1.64709 3.1128.375 5.25-.09113-1.90592 1.86598-2.90652 3.4375-2-.0102.14646-.03125.29097-.03125.4375 0 .9435.50328 1.70141 1.1875 2.21875.68422.51733 1.55638.8125 2.34375.8125.79288-.00001 1.41969-.46959 1.9375-.96875.51781-.49917.96254-1.04422 1.40625-1.3125.86786-.52474 2.16474-.3393 3.03125 0 1.25727 2.17944 2.81793 3.38488 4.59375 3.78125 1.04048.23223 1.94156.30365 2.78125.5.83968.19634 1.62023.51274 2.46875 1.21875.79324.66001 1.00012 1.80808 1.15625 3.0625.15612 1.25441.25117 2.59721.9375 3.53125.55329.75298 1.4136 1.03283 2.21875 1 .80514-.03284 1.58903-.38434 2.09375-.875 1.34483.73241 1.70311 2.54018.40625 3.65625 2.50467.31056 3.91994-1.80064 3.8125-3.5-.08873-1.40348-.93125-2.74367-2.25-3.59375.01658-.2738.01066-.53978-.0625-.8125-.20349-.75858-.82237-1.45929-1.65625-2.125-.83389-.66572-1.8978-1.31247-3-1.96875-.37556-.22362-.74563-.46056-1.125-.6875.40724.00286.7542-.03443 1.09375-.09375.50038-.08743.96131-.1875 1.53125-.1875.17573-.00001.29362.09482.4375.3125.14387.21767.28648.52316.46875.84375.18226.32058.41678.65343.75.90625.33321.25281.7666.4375 1.34375.4375.98595-.00001 1.77367-.46406 2.28125-1.09375.17043-.21146.29474-.446.40625-.6875 2.31902-.62141 3.68899 1.21431 2.875 2.96875 2.47308-.59385 2.76-3.37912 1.75-4.75-.79733-1.08225-2.143-1.66089-3.78125-1.5625-.35106.02108-.72065.07654-1.09375.15625-.47943-.63337-1.22037-1.09375-2.125-1.09375-2.02584-.00001-4.27645.3715-5.40625.1875-.09897-.01613-.20979-.04091-.3125-.0625.26686-.02172.52166-.06382.75-.125.46246-.12393.84156-.45208 1.1875-.71875.34593-.26668.65986-.46875.96875-.46875.50463-.00001.97226.21973 1.4375.46875.46523.24901.92616.53125 1.4375.53125 1.3751-.00001 2.52426-.96555 2.78125-2.5 1.73158-.77607 3.16687.35635 2.8125 1.875 2.81018-2.22281.84709-5.14555-1.71875-5.25-.71274-.02903-1.4686.17415-2.1875.65625-.61287-.4169-1.41585-.65625-2.25-.65625-1.24643-.00001-2.64264.65947-4.03125 1.3125-1.38862.65302-2.76816 1.29989-3.90625 1.3125-1.47862.01638-3.48163-.53777-4.78125-1.4375-7.42218-6.81484-14.03442-13.534-17.3125-18.71875 1.55631.92927 3.38219 1.625 5.5 1.625 2.58028 0 4.08862-1.18456 4.65625-2.59375.56763-1.40919.21725-3.0464-.90625-4-.01039-.00109-.02086-.00109-.03125 0a.15028293.15028293 0 0 0-.03125-.03125c-.01039-.00109-.02086-.00109-.03125 0-.01039-.00109-.02086-.00109-.03125 0-.01039-.00109-.02086-.00109-.03125 0a.15028293.15028293 0 0 0-.03125.03125.15028293.15028293 0 0 0-.03125.03125.15028293.15028293 0 0 0-.03125.03125c-.00109.01039-.00109.02086 0 .03125-.00109.01039-.00109.02086 0 .03125.04932.84636-.24285 1.59568-.8125 2.125s-1.43625.84375-2.5625.84375c-3.32682 0-5.61712-2.43401-7.3125-5.21875-.84769-1.39237-1.53294-2.869-2.125-4.15625-.59206-1.28725-1.07454-2.37536-1.53125-3.03125-1.46275-2.10067-4.65521-4.26955-7.46875-6.34375-1.406769-1.037095-2.73175-2.049457-3.6875-3-.955749-.95054-1.53125-1.837627-1.53125-2.59375.000001-7.402287 1.325679-12.393142 5.3125-19.90625.10347.087564.21075.155503.3125.25.54032.501795 1.06027 1.069851 1.59375 1.59375-.00109.010391-.00109.020862 0 .03125-.00109.010391-.00109.020862 0 .03125-.0631 2.943091-.0692 8.237833.5625 12.96875.31585 2.365462.80176 4.583914 1.5 6.3125.6716 1.662632 1.58322 2.848533 2.78125 3.25.04753.015929.07649.080425.125.09375.01039.001091.02086.001088.03125 0 .01039.001091.02086.001088.03125 0 .0119-.008814.02243-.019348.03125-.03125.01039.001091.02086.001088.03125 0 .01519-.01808.0259-.039497.03125-.0625.01519-.01808.0259-.039497.03125-.0625-.00535-.023-.01606-.044417-.03125-.0625-.73524-1.737657-1.26035-5.29509-1.5625-9.21875-.23025-2.990008-.32003-6.206525-.3125-9 2.42556 15.8277 8.17823 24.73311 13.3125 28.84375 1.7017 1.36243 3.1782 2.41729 4.40625 3.125 1.22805.70771 2.21836 1.09375 2.96875 1.09375 1.30111.0597 2.18848-.24399 2.75-.75.56151-.50601.78125-1.20896.78125-1.90625-.00001-.25848-.16979-.51553-.40625-.8125-.23647-.29697-.56796-.61062-.90625-.96875-.67659-.71627-1.45386-1.52707-1.8125-2.21875-.91851-1.77148-3.00656-5.82048-4.03125-7.9375-1.52696-3.154679-3.35012-8.588043-4.4375-13.90625 1.49089 3.363909 3.53531 7.096548 5.84375 10.78125 3.92793 6.26972 8.62919 12.36014 12.71875 16.0625 5.19351 4.7018 11.13816 8.25 16.03125 8.25 1.49362 0 2.93971-.44509 4-1.09375 1.06028-.64866 1.78125-1.49708 1.78125-2.40625-.00001-.54446-.22742-.95491-.59375-1.25-.36634-.29509-.88644-.48668-1.53125-.75-1.28963-.52664-3.10015-1.27366-5.375-3.09375-5.15183-4.12194-9.61275-10.30943-14.21875-18.09375 1.72727 1.951363 3.49342 3.855497 5.25 5.625 2.74249 2.76267 5.44889 5.18488 7.84375 6.90625 2.35277 1.69112 4.39254 2.68437 5.96875 2.65625.02818-.0005.06587.03243.09375.03125.01038.00109.02086.00109.03125 0 .01189-.00882.02243-.01935.03125-.03125.01038.00109.02086.00109.03125 0 .01518-.01808.0259-.0395.03125-.0625.01518-.01808.0259-.0395.03125-.0625-.00536-.023-.01606-.04442-.03125-.0625.00108-.01039.00109-.02086 0-.03125-.00883-.0119-.01935-.02243-.03125-.03125-.0104-.00109-.02086-.00109-.03125 0-.0177-.01175-.04481-.01945-.0625-.03125-6.28285-4.19025-12.54485-11.307809-17.375-17.78125 5.36943 5.065923 11.72273 9.21875 17.75 9.21875 2.50362.000003 4.39997-.722122 5.40625-1.75.50313-.513936.77693-1.105683.78125-1.71875.00431-.613064-.27985-1.230108-.84375-1.78125-.00883-.011899-.01935-.022433-.03125-.03125-.00883-.011899-.01935-.022433-.03125-.03125-.0104-.001085-.02086-.001088-.03125 0-4.80269-.643206-10.29875-4.639347-15.0625-9.4375-1.2993-1.308674-2.52598-2.690976-3.6875-4.0625 4.72691 3.706664 10.7767 6.992804 17.03125 7.1875.01036.000326.02088-.000306.03125 0 .02073.000615.04176-.000544.0625 0 .01038.001091.02086.001088.03125 0 .01189-.008814.02243-.019348.03125-.03125.01189-.008814.02243-.019348.03125-.03125.01189-.008814.02243-.019348.03125-.03125.01518-.01808.0259-.039497.03125-.0625-.00536-.023-.01606-.044417-.03125-.0625-.00883-.011899-.01935-.022433-.03125-.03125-.00883-.011899-.01935-.022433-.03125-.03125-.00883-.011899-.01935-.022433-.03125-.03125-.00766-.002619-.02358.002635-.03125 0-4.0901-1.40562-10.22354-4.677995-14.90625-9.1875 3.3326 1.396978 6.94706 2.211932 10.125 2.28125 2.51744.054914 4.89258-.57498 6.53125-1.59375.81932-.509382 1.46474-1.125838 1.84375-1.8125.379-.686659.48588-1.436672.25-2.21875-.00883-.011899-.01935-.022433-.03125-.03125.00108-.010385.00109-.020862 0-.03125-.01809-.015188-.0395-.025898-.0625-.03125-.0104-.001085-.02086-.001088-.03125 0-.0104-.001085-.02086-.001088-.03125 0-.0104-.001085-.02086-.001088-.03125 0-1.78394.288725-5.76841-.222835-10.1875-2.09375-2.78424-1.178759-5.73737-2.89156-8.4375-5.28125 1.96612 1.09849 4.23079 2.12147 6.53125 2.90625 2.47883.845635 4.9915 1.443711 7.125 1.5625 2.13349.118792 3.90142-.220903 4.9375-1.25.01189-.008814.02243-.019348.03125-.03125.00108-.010385.00109-.020862 0-.03125.01189-.008814.02243-.019348.03125-.03125.00108-.010385.00109-.020862 0-.03125-.00883-.011899-.01935-.022433-.03125-.03125.00108-.010385.00109-.020862 0-.03125-.00883-.011899-.01935-.022433-.03125-.03125-.00883-.011899-.01935-.022433-.03125-.03125-.0104-.001085-.02086-.001088-.03125 0-.0104-.001085-.02086-.001088-.03125 0-2.83255-.399144-10.00401-1.955561-16-5.59375 3.5989.645131 7.29046.716577 10.3125.0625 2.55743-.553519 4.64271-1.593582 5.78125-3.21875 1.13853-1.625169 1.29464-3.8251.03125-6.5625-.00883-.011903-.01935-.022433-.03125-.03125-.00883-.011903-.01935-.022433-.03125-.03125-.0104-.001089-.02086-.001088-.03125 0-.00883-.011903-.01935-.022433-.03125-.03125-.02301.005351-.04442.016059-.0625.03125-.0104-.001089-.02086-.001088-.03125 0-.01191.008816-.02243.019348-.03125.03125-.0011.010387-.00109.020862 0 .03125-.43746.753607-1.46332 1.316028-2.875 1.625-1.41169.308971-3.19676.351729-5.1875.09375-2.3446-.303834-4.95466-1.041028-7.5-2.25 4.42545.311876 8.15367-.050984 11.03125-.90625 3.77031-1.120607 6.08047-3.114221 6.5-5.625.00543-.032587.02645-.060993.03125-.09375.00108-.010389.00109-.020862 0-.03125.00108-.010389.00109-.020862 0-.03125-.00883-.011903-.01935-.022433-.03125-.03125.00108-.010389.00109-.020862 0-.03125-.01809-.015192-.0395-.025898-.0625-.03125-.0104-.001089-.02086-.001088-.03125 0-.0104-.001089-.02086-.001088-.03125 0-.0104-.001089-.02086-.001088-.03125 0-.0104-.001089-.02086-.001088-.03125 0-.0104-.001089-.02086-.001088-.03125 0-.0011.010387-.00109.020862 0 .03125-1.79269 1.853572-5.74056 2.791674-9.84375 3.125-2.00842.163154-4.04563.188793-5.90625.125 2.45812-.558078 4.71739-1.545695 6.6875-2.78125 3.75922-2.357604 6.45593-5.557119 7.3125-8.21875.40238-1.250323.31489-2.643635-.21875-3.65625-.26683-.506309-.65762-.934628-1.15625-1.15625-.49864-.221623-1.09461-.256825-1.78125-.03125-.01191.008816-.02243.019348-.03125.03125-.01191.008816-.02243.019348-.03125.03125-.0104-.001089-.02086-.001088-.03125 0-1.60718 2.246224-4.69592 3.830121-8.5 4.90625-2.11251.597601-4.44786 1.039565-6.84375 1.375 4.24828-1.476021 7.23371-3.385709 9.21875-5.25 2.5038-2.351498 3.43388-4.573754 3.4375-5.8125.00006-.023537.03187-.070947.03125-.09375-.00536-.023002-.01606-.044417-.03125-.0625-.00883-.011901-.01935-.022433-.03125-.03125-.00883-.011901-.01935-.022433-.03125-.03125-.0104-.001087-.02086-.001088-.03125 0-.0104-.001087-.02086-.001088-.03125 0-.0104-.001087-.02086-.001088-.03125 0-.0104-.001087-.02086-.001088-.03125 0-.0104-.001087-.02086-.001088-.03125 0-.0011.010389-.00109.020862 0 .03125-.01191.008818-.02243.019348-.03125.03125-2.68779 3.778841-8.3655 6.615631-14.71875 8.09375 5.19061-2.51538 8.3816-6.287599 9.90625-9.6875 1.01642-2.2666 1.28741-4.368904.90625-5.84375-.19059-.737422-.53421-1.336387-1.0625-1.6875-.5283-.351112-1.22872-.437067-2.03125-.25-.0104-.001087-.02086-.001088-.03125 0-.01191.008818-.02243.019348-.03125.03125-3.53568 3.80414-7.4124 7.31634-13.46875 9.5625 2.12562-1.476585 3.56304-3.797119 4-6.09375.30065-1.580267.1254-3.123849-.625-4.375-.73641-1.227813-2.05233-2.129256-3.96875-2.4375-.03644-.005858-.05688-.025829-.09375-.03125-.0104-.001087-.02086-.001088-.03125 0-.0104-.001087-.02086-.001088-.03125 0-.0104-.001087-.02086-.001088-.03125 0-.01191.008818-.02243.019348-.03125.03125-.0011.010389-.00109.020862 0 .03125-.01191.008818-.02243.019348-.03125.03125-.0011.010389-.00109.020862 0 .03125-.0011.010389-.00109.020862 0 .03125-.0011.010389-.00109.020862 0 .03125.00881.011903.01935.022433.03125.03125.00881.011903.01935.022433.03125.03125 1.476 1.290494 2.13885 2.547607 2.28125 3.71875.14239 1.171144-.23744 2.270534-1 3.3125-1.52512 2.083933-4.49977 3.838457-7.21875 4.96875-1.97337.820335-3.80285 1.785874-5.15625 2.96875-1.3534 1.182875-2.24999 2.596503-2.25 4.3125 0 1.122899.55875 2.082827 1.34375 3 .785.917172 1.81605 1.817184 2.84375 2.78125 2.05541 1.928131 4.0625 4.175934 4.0625 7.71875-.00001 6.091758-4.39673 11.218748-10.8125 11.21875-4.96603-.000001-7.91741-1.560162-10.78125-3.125C106.41741 57.591411 103.64132 56 99.125 56c-3.999159-.000001-6.11345.960818-7.4375 1.75 2.543891-2.988832 4.75518-6.860029 5-10.84375.234031 1.009166.73436 2.511995 1.9375 3.90625 1.44309 1.672309 3.78063 2.940713 7.34375 2.125.02246-.005144.03994.005308.0625 0 .023-.005353.04442-.016059.0625-.03125.0119-.008818.02243-.019348.03125-.03125.0119-.008818.02243-.019348.03125-.03125a.14973023.14973023 0 0 0 0-.03125.14973023.14973023 0 0 0 0-.03125.14973023.14973023 0 0 0 0-.03125.14973023.14973023 0 0 0 0-.03125c-.00882-.011903-.01935-.022433-.03125-.03125-.00882-.011903-.01935-.022433-.03125-.03125-.01808-.015192-.0395-.025898-.0625-.03125-1.91318-.46636-3.19031-1.391564-4.09375-2.65625-.90344-1.264687-1.42585-2.871946-1.71875-4.625-.570689-3.415674-.32143-7.40576-.71875-10.75.91803.755849 2.17642 1.172834 3.375.96875 1.30562-.22231 2.49975-1.152031 2.90625-2.9375a.14973023.14973023 0 0 0 0-.03125c-.00882-.011903-.01935-.022433-.03125-.03125a.14973023.14973023 0 0 0 0-.03125c-.00882-.011903-.01935-.022433-.03125-.03125-.00882-.011903-.01935-.022433-.03125-.03125-.01039-.001089-.02086-.001088-.03125 0-.01039-.001089-.02086-.001088-.03125 0-.01039-.001089-.02086-.001088-.03125 0-.01039-.001089-.02086-.001088-.03125 0-1.56984.523684-2.59051.485443-3.3125.09375-.72199-.391694-1.1613-1.167412-1.5625-2.15625-.733449-1.807721-1.41088-4.290638-3.125-6.375.965261.762563 2.245139 1.410148 3.59375 1.4375 1.57696.031984 3.10433-.801889 3.96875-3 .00274-.006971.02852.007001.03125 0 .01027-.026346.02119-.035749.03125-.0625.0119-.008816.02243-.019348.03125-.03125a.14973023.14973023 0 0 0 0-.03125.14973023.14973023 0 0 0 0-.03125c-.00882-.011901-.01935-.022433-.03125-.03125a.14973023.14973023 0 0 0 0-.03125c-.01808-.01519-.0395-.025898-.0625-.03125-.01808-.01519-.0395-.025898-.0625-.03125-.023.005353-.04442.016059-.0625.03125-.01039-.001087-.02086-.001088-.03125 0-.81427.531031-1.90132.83947-2.9375.84375-1.03618.004281-1.98987-.302368-2.59375-.90625-.965379-.965381-1.46728-2.158522-2.1875-3.25-.664459-1.006979-1.63237-1.84717-3.25-2.28125 3.528471-.379144 4.53713-5.205642 2-6.84375-.010389-.0010879-.02086-.0010879-.03125 0-.010389-.0010879-.02086-.0010879-.03125 0-.010389-.0010879-.02086-.0010879-.03125 0-.010389-.0010879-.02086-.0010879-.03125 0-.010389-.0010879-.02086-.0010879-.03125 0z" style="opacity:1;fill:#f9e702;fill-opacity:1;fill-rule:nonzero;stroke:#000000;stroke-width:0.69999999;stroke-linecap:round;stroke-linejoin:round;stroke-miterlimit:4;stroke-dasharray:none;stroke-dashoffset:0;stroke-opacity:1"/>
    <path d="M138.17234 39.795459c8.0501-1.016653 15.8859-4.273448 19.2289-8.973486.06152 2.273241-3.67794 9.129043-16.49784 12.150433" style="fill:#f9e702;fill-opacity:1;fill-rule:nonzero;stroke:#000000;stroke-width:0.5;stroke-linecap:round;stroke-linejoin:round;stroke-miterlimit:4;stroke-dasharray:none;stroke-dashoffset:0;stroke-opacity:1"/>
    <path d="M144.4705 51.165588c5.05021.816946 17.14481.983583 20.84524-2.842532-.72717 4.959199-9.07453 8.003319-21.95996 5.963744" style="fill:#f9e702;fill-opacity:1;fill-rule:nonzero;stroke:#000000;stroke-width:0.5;stroke-linecap:round;stroke-linejoin:round;stroke-miterlimit:4;stroke-dasharray:none;stroke-dashoffset:0;stroke-opacity:1"/>
    <path d="M141.96239 60.807904c6.12988 7.004432 17.79949 9.604793 21.62554 10.143939-3.94246 3.915896-19.98826-2.428606-23.46483-7.134199" style="fill:#f9e702;fill-opacity:1;fill-rule:nonzero;stroke:#000000;stroke-width:0.5;stroke-linecap:round;stroke-linejoin:round;stroke-miterlimit:4;stroke-dasharray:none;stroke-dashoffset:0;stroke-opacity:1"/>
    <path d="M139.93154 72c3.91198 8.02014 14.1789 13.962862 20.125 16-9.85008-.258182-19.25565-8.280364-23.6875-13.5" style="fill:#f9e702;fill-opacity:1;fill-rule:nonzero;stroke:#000000;stroke-width:0.5;stroke-linecap:round;stroke-linejoin:round;stroke-miterlimit:4;stroke-dasharray:none;stroke-dashoffset:0;stroke-opacity:1"/>
    <path d="M132.05654 81c4.29204 7.286412 14.14849 20.9554 24 27.5-6.05873.25614-21.12934-16.636856-28.75-27.25" style="fill:#f9e702;fill-opacity:1;fill-rule:nonzero;stroke:#000000;stroke-width:0.5;stroke-linecap:round;stroke-linejoin:round;stroke-miterlimit:4;stroke-dasharray:none;stroke-dashoffset:0;stroke-opacity:1"/>
    <path d="M105.49404 78c-.17832 6.5.36764 17.1875 1.875 20.75-4.80102-1.318816-4.98271-16.587167-4.85669-22.464689" style="fill:#f9e702;fill-opacity:1;fill-rule:nonzero;stroke:#000000;stroke-width:0.5;stroke-linecap:round;stroke-linejoin:round;stroke-miterlimit:4;stroke-dasharray:none;stroke-dashoffset:0;stroke-opacity:1"/>
    <path d="M139.06412 42.749463c8.74099-.702077 18.0091-2.379938 21.29112-6.966992 2.63424-.865398 3.74481 2.220396 2.96411 4.646237-1.67837 5.2152-10.64264 12.768797-20.91108 11.182767h0" style="fill:#f9e702;fill-opacity:1;fill-rule:nonzero;stroke:#000000;stroke-width:0.5;stroke-linecap:round;stroke-linejoin:round;stroke-miterlimit:4;stroke-dasharray:none;stroke-dashoffset:0;stroke-opacity:1"/>
    <path d="M142.68695 51.83442c7.84849 6.554686 19.01896 6.976496 20.90098 3.734306 4.99546 10.823694-12.55373 12.246948-23.01894 7.357143" style="fill:#f9e702;fill-opacity:1;fill-rule:nonzero;stroke:#000000;stroke-width:0.5;stroke-linecap:round;stroke-linejoin:round;stroke-miterlimit:4;stroke-dasharray:none;stroke-dashoffset:0;stroke-opacity:1"/>
    <path d="M140.56899 62.981605c7.16427 10.306308 19.49677 12.970486 23.18614 12.373376.89767 2.976263-3.48654 5.537662-8.46814 5.429002-6.98069-.152265-16.22888-3.796412-19.45556-9.776404" style="fill:#f9e702;fill-opacity:1;fill-rule:nonzero;stroke:#000000;stroke-width:0.5;stroke-linecap:round;stroke-linejoin:round;stroke-miterlimit:4;stroke-dasharray:none;stroke-dashoffset:0;stroke-opacity:1"/>
    <path d="M135.80654 71c3.81376 7.471165 16.13766 22.320906 25.875 23.625 2.16623 2.1172-.30098 5-5.25 5-12.22805 0-26.13342-17.238475-29.625-24.625" style="fill:#f9e702;fill-opacity:1;fill-rule:nonzero;stroke:#000000;stroke-width:0.5;stroke-linecap:round;stroke-linejoin:round;stroke-miterlimit:4;stroke-dasharray:none;stroke-dashoffset:0;stroke-opacity:1"/>
    <path d="M126.68154 75.125c8.86968 16.602772 15.5682 29.52127 24.33742 36.53746 4.58124 3.66542 7.44161 2.91749 7.44161 4.95496 0 1.65701-2.67313 3.35983-5.60225 3.35983-4.81979 0-10.77798-3.5336-15.95686-8.22215-8.14256-7.37162-18.80275-24.330041-20.71992-33.1301" style="fill:#f9e702;fill-opacity:1;fill-rule:nonzero;stroke:#000000;stroke-width:0.5;stroke-linecap:round;stroke-linejoin:round;stroke-miterlimit:4;stroke-dasharray:none;stroke-dashoffset:0;stroke-opacity:1"/>
    <path d="M117.18154 78.5c.40636 6.831616 3.187 15.979625 5.375 20.5 1.02706 2.1219 3.12521 6.16314 4.04366 7.93451.75233 1.45098 3.08134 3.23819 3.08134 3.94049 0 1.33272-.82446 2.61703-3.375 2.5-1.39719 0-3.87099-1.44728-7.26692-4.16616-5.33897-4.27452-11.4157-13.821124-13.60808-31.08384" style="fill:#f9e702;fill-opacity:1;fill-rule:nonzero;stroke:#000000;stroke-width:0.5;stroke-linecap:round;stroke-linejoin:round;stroke-miterlimit:4;stroke-dasharray:none;stroke-dashoffset:0;stroke-opacity:1"/>
    <path d="M58.411255 30.041667c1.337662 1.170454 2.916578 2.285172 5.62933 2.285172 3.660263 0 9.133018-4.793289 13.488094-4.793289 3.616018 0 6.453546 1.719564 8.321795 3.241262l-.574499 4.506032c-1.142587-1.337662-3.934253-4.542479-7.607956-4.542479-4.035985 0-8.782744 4.263799-13.014339 4.263799-3.395556 0-5.919154-3.19088-6.242425-4.960497z" style="fill:#f9e702;fill-opacity:1;fill-rule:nonzero;stroke:#000000;stroke-width:0.5;stroke-linecap:round;stroke-linejoin:round;stroke-miterlimit:4;stroke-dasharray:none;stroke-dashoffset:0;stroke-opacity:1"/>
    <path d="M65.653407 78c.178321 6.5-.367636 17.1875-1.875 20.75 4.801012-1.318816 4.938518-15.747478 4.8125-21.625" style="fill:#f9e702;fill-opacity:1;fill-rule:nonzero;stroke:#000000;stroke-width:0.5;stroke-linecap:round;stroke-linejoin:round;stroke-miterlimit:4;stroke-dasharray:none;stroke-dashoffset:0;stroke-opacity:1"/>
    <path d="M29.185062 60.807904c-6.129883 7.004432-17.799495 9.604793-21.6255408 10.143939 3.9424528 3.915896 19.9882538-2.428606 23.4648268-7.134199" style="fill:none;fill-opacity:1;fill-rule:nonzero;stroke:#000000;stroke-width:0.5;stroke-linecap:round;stroke-linejoin:round;stroke-miterlimit:4;stroke-dasharray:none;stroke-dashoffset:0;stroke-opacity:1"/>
    <path d="M31.215907 72c-3.911979 8.02014-14.178895 13.962862-20.125 16 9.850076-.258182 19.255651-8.280364 23.6875-13.5" style="fill:none;fill-opacity:1;fill-rule:nonzero;stroke:#000000;stroke-width:0.5;stroke-linecap:round;stroke-linejoin:round;stroke-miterlimit:4;stroke-dasharray:none;stroke-dashoffset:0;stroke-opacity:1"/>
    <path d="M39.090907 81c-4.292041 7.286412-14.148492 20.9554-24 27.5 6.058731.25614 21.129338-16.636856 28.75-27.25" style="fill:none;fill-opacity:1;fill-rule:nonzero;stroke:#000000;stroke-width:0.5;stroke-linecap:round;stroke-linejoin:round;stroke-miterlimit:4;stroke-dasharray:none;stroke-dashoffset:0;stroke-opacity:1"/>
    <path d="M26.676945 51.165588c-5.050209.816946-17.1448105.983583-20.8452376-2.842532.7271645 4.959199 9.0745296 8.003319 21.9599566 5.963744" style="fill:#f9e702;fill-opacity:1;fill-rule:nonzero;stroke:#000000;stroke-width:0.5;stroke-linecap:round;stroke-linejoin:round;stroke-miterlimit:4;stroke-dasharray:none;stroke-dashoffset:0;stroke-opacity:1"/>
    <path d="M32.975105 39.795459c-8.050094-1.016653-15.885894-4.273448-19.228896-8.973486-.061526 2.273241 3.677937 9.129043 16.497836 12.150433" style="fill:#f9e702;fill-opacity:1;fill-rule:nonzero;stroke:#000000;stroke-width:0.5;stroke-linecap:round;stroke-linejoin:round;stroke-miterlimit:4;stroke-dasharray:none;stroke-dashoffset:0;stroke-opacity:1"/>
    <path d="M86.504655 23.734771c3.711408 1.091525 5.306174 4.994994 5.069479 12.103432" style="fill:none;fill-opacity:1;fill-rule:nonzero;stroke:#000000;stroke-width:0.5;stroke-linecap:round;stroke-linejoin:round;stroke-miterlimit:4;stroke-dasharray:none;stroke-dashoffset:0;stroke-opacity:1"/>
    <path d="M86.780844 17.222402c1.545286.203048 3.101915.530881 4.79329 2.340909" style="fill:none;fill-opacity:1;fill-rule:nonzero;stroke:#000000;stroke-width:0.5;stroke-linecap:round;stroke-linejoin:round;stroke-miterlimit:4;stroke-dasharray:none;stroke-dashoffset:0;stroke-opacity:1"/>
    <path d="M82.210498 17.11093c-1.905493 2.917813-6.950739 1.191018-10.757035 1.170455-.420716-4.440134 7.280145-5.744385 12.707792-4.681818 7.691911 1.505841 11.476032-1.06545 11.760282-3.6785713 2.503426 1.6163423 1.466308 6.6883113-2.285173 6.6883113 3.709312.752809 3.698629 3.682043 5.681805 5.665219 1.286901 1.286898 4.056481 1.176146 5.744071.075582-1.67656 4.45819-6.105081 3.03627-7.970249 1.170455 4.195939 4.281739 2.164439 11.207657 8.527599 9.084957-.79025 3.471009-4.52752 3.451938-6.298161 1.727813.881191 6.744048-1.085799 16.553571 6.688311 18.448593-7.110021 1.672844-9.14313-4.957362-9.363636-6.576839 0 8.462546-9.90254 16.887986-11.955357 16.887986-.68632 0-1.175463-.398446-1.449135-.80817" style="fill:none;fill-opacity:1;fill-rule:nonzero;stroke:#000000;stroke-width:0.5;stroke-linecap:round;stroke-linejoin:round;stroke-miterlimit:4;stroke-dasharray:none;stroke-dashoffset:0;stroke-opacity:1"/>
    <path d="M86.390693 54.621212c4.586054-3.828584 7.312113-9.087862 7.52435-13.543831" style="fill:none;fill-opacity:1;fill-rule:nonzero;stroke:#000000;stroke-width:0.5;stroke-linecap:round;stroke-linejoin:round;stroke-miterlimit:4;stroke-dasharray:none;stroke-dashoffset:0;stroke-opacity:1"/>
    <path d="M75.438582 18.629734c.848804.057607 3.172301 2.359493 3.678572 3.553166" style="fill:none;fill-opacity:1;fill-rule:nonzero;stroke:#000000;stroke-width:0.5;stroke-linecap:round;stroke-linejoin:round;stroke-miterlimit:4;stroke-dasharray:none;stroke-dashoffset:0;stroke-opacity:1"/>
    <path d="M78.96388 18.810876c.219872.823678.006365 1.813139-.362284 2.382711" style="fill:none;fill-opacity:1;fill-rule:nonzero;stroke:#000000;stroke-width:0.5;stroke-linecap:round;stroke-linejoin:round;stroke-miterlimit:4;stroke-dasharray:none;stroke-dashoffset:0;stroke-opacity:1"/>
    <path d="M84.662879 37.510281c.792339 13.071753-18.092384 22.380472-19.786256 12.902868-1.712342 1.30346-1.277575 4.087447.060171 5.511886 1.906891 2.030469 6.599682 2.639838 9.607578.35892" style="fill:none;fill-opacity:1;fill-rule:nonzero;stroke:#000000;stroke-width:0.5;stroke-linecap:round;stroke-linejoin:round;stroke-miterlimit:4;stroke-dasharray:none;stroke-dashoffset:0;stroke-opacity:1"/>
    <path d="M98.652598 69.279762c-3.058223-1.34882-7.606384 2.670298-9.753788 6.130952" style="fill:none;fill-opacity:1;fill-rule:nonzero;stroke:#000000;stroke-width:0.5;stroke-linecap:round;stroke-linejoin:round;stroke-miterlimit:4;stroke-dasharray:none;stroke-dashoffset:0;stroke-opacity:1"/>
    <path d="M74.28125 87.03125c-.022193.00744-.043232.017959-.0625.03125-.039117.022244-.071506.054633-.09375.09375a.25003327.25003327 0 0 0-.03125.09375c-.000683.043681-.013114.112114.003906.152344.916056 2.165167 1.722102 3.427725 2.527344 4.722656.805242 1.294931 1.652434 2.592872 1.71875 4.96875-.005911.03097-.005911.06278 0 .09375.025055.055498.069502.099945.125.125a.25003327.25003327 0 0 0 .09375.03125c.03097.005911.06278.005911.09375 0 .035598-.013429.067662-.034805.09375-.0625a.25000466.25000466 0 0 0 .03125-.03125c.013291-.019268.02381-.040307.03125-.0625a.25003327.25003327 0 0 0 .03125-.09375c-.068512-2.454569-.576747-4.072304-1.40625-5.40625s-1.917937-2.40395-2.808594-4.507812c-.037889-.0895-.130314-.137756-.222656-.148438-.031292-.00362-.06278-.005911-.09375 0a.24987704.24987704 0 0 0-.03125 0z" style="fill:#000000;fill-opacity:1;fill-rule:nonzero;stroke:none;stroke-width:0.5;stroke-linecap:round;stroke-linejoin:round;stroke-miterlimit:4;stroke-dasharray:none;stroke-dashoffset:0;stroke-opacity:1"/>
    <path d="M96.646104 100.43615c2.295661 1.47341 4.634046 2.81865 6.353896 6.01948" style="fill:none;fill-opacity:1;fill-rule:nonzero;stroke:#000000;stroke-width:0.5;stroke-linecap:round;stroke-linejoin:round;stroke-miterlimit:4;stroke-dasharray:none;stroke-dashoffset:0;stroke-opacity:1"/>
    <path d="M75.34375 109.25c-1.744185.24774-3.455419 1.64519-4.71875 3.78125-.01655.02886-.027174.06073-.03125.09375-.005911.03097-.005911.06278 0 .09375.017094.05061.049949.09442.09375.125.019268.01329.040307.02381.0625.03125.02886.01655.060732.02717.09375.03125.033018-.00408.06489-.0147.09375-.03125.050612-.01709.094419-.04995.125-.09375 1.205607-2.03846 2.819707-3.02909 4.375-3.25 1.555293-.22091 3.068628.28705 4.1875 2 .016956.02438.03812.04554.0625.0625.019268.01329.040307.02381.0625.03125.02886.01655.060732.02717.09375.03125.033018-.00408.06489-.0147.09375-.03125.055498-.02506.099945-.0695.125-.125.01655-.02886.027174-.06073.03125-.09375.000683-.04368-.010092-.08678-.03125-.125-.009474-.01132-.019931-.02178-.03125-.03125-1.201827-1.83995-2.943315-2.74774-4.6875-2.5z" style="fill:#000000;fill-opacity:1;fill-rule:nonzero;stroke:none;stroke-width:0.5;stroke-linecap:round;stroke-linejoin:round;stroke-miterlimit:4;stroke-dasharray:none;stroke-dashoffset:0;stroke-opacity:1"/>
    <path d="M87.115259 34.389069c0 2.368387-1.857741 3.50671-5.186276 3.228031-3.333438-.279091-7.558683-.18175-10.642727.896428.547768-4.818046 8.202906-6.570546 13.488095-6.019481.613095-4.307447-3.421402-8.31742-10.757035-6.966991-2.936912-2.504284-7.85097.250236-8.137446 3.511364-4.011387-4.791479-.703121-10.757035 5.573593-10.757035 1.407639 0 2.883172.229077 4.046537.343615 1.427757 1.080224 2.941041 2.106194 3.6875 3.6875.855123 1.8115 3.155492 2.930601 5.375 3.9375 1.987746 2.713023 2.552759 5.300343 2.552759 8.139069z" style="fill:#f9e702;fill-opacity:1;fill-rule:nonzero;stroke:none;stroke-width:0.5;stroke-linecap:round;stroke-linejoin:round;stroke-miterlimit:4;stroke-dasharray:none;stroke-dashoffset:0;stroke-opacity:1"/>
    <path d="M74.073052 25.527056c-.296437-1.16137-1.083862-2.269664-2.117965-3.176948" style="fill:none;fill-opacity:1;fill-rule:nonzero;stroke:#000000;stroke-width:0.5;stroke-linecap:round;stroke-linejoin:round;stroke-miterlimit:4;stroke-dasharray:none;stroke-dashoffset:0;stroke-opacity:1"/>
    <path d="M81.541667 23.68777c2.258323-.32916 4.262352.287953 4.763234.003395.310729-.176529.534693-.567107.503811-1.118113" style="fill:none;fill-opacity:1;fill-rule:nonzero;stroke:#000000;stroke-width:0.5;stroke-linecap:round;stroke-linejoin:round;stroke-miterlimit:4;stroke-dasharray:none;stroke-dashoffset:0;stroke-opacity:1"/>
    <path d="M85.573722 188.38745v-18.50433" style="fill:none;fill-opacity:1;fill-rule:nonzero;stroke:#000000;stroke-width:0.5;stroke-linecap:round;stroke-linejoin:round;stroke-miterlimit:4;stroke-dasharray:none;stroke-dashoffset:0;stroke-opacity:1"/>
    <path d="M85.573722 119.375v19.5" style="fill:#f8e504;fill-opacity:1;fill-rule:nonzero;stroke:#000000;stroke-width:0.5;stroke-linecap:round;stroke-linejoin:round;stroke-miterlimit:4;stroke-dasharray:none;stroke-dashoffset:0;stroke-opacity:1"/>
    <path d="M37.322509 55.958874c.874934 9.205183 11.047351 13.449573 17.166666 12.150433" style="fill:none;fill-opacity:1;fill-rule:nonzero;stroke:#000000;stroke-width:0.5;stroke-linecap:round;stroke-linejoin:round;stroke-miterlimit:4;stroke-dasharray:none;stroke-dashoffset:0;stroke-opacity:1"/>
    <path d="M68.033007 63.594697c-1.802129-1.097049-3.604257-.552613-5.406386-.222944" style="fill:none;fill-opacity:1;fill-rule:nonzero;stroke:#000000;stroke-width:0.5;stroke-linecap:round;stroke-linejoin:round;stroke-miterlimit:4;stroke-dasharray:none;stroke-dashoffset:0;stroke-opacity:1"/>
    <path d="M37.099564 32.1039c-7.848428-2.10298-12.206209-6.212208-16.274891-10.589826-6.179454-1.44041-3.732225 15.238647 13.655302 19.228896" style="fill:#f9e702;fill-opacity:1;fill-rule:nonzero;stroke:#000000;stroke-width:0.5;stroke-linecap:round;stroke-linejoin:round;stroke-miterlimit:4;stroke-dasharray:none;stroke-dashoffset:0;stroke-opacity:1"/>
    <path d="M32.083331 42.749463c-8.740993-.702077-18.009102-2.379938-21.291126-6.966992-2.6342401-.865398-3.7448053 2.220396-2.9641133 4.646237 1.678372 5.2152 10.6426473 12.768797 20.9110833 11.182767h0" style="fill:#f9e702;fill-opacity:1;fill-rule:nonzero;stroke:#000000;stroke-width:0.5;stroke-linecap:round;stroke-linejoin:round;stroke-miterlimit:4;stroke-dasharray:none;stroke-dashoffset:0;stroke-opacity:1"/>
    <path d="M28.460495 51.83442c-7.848488 6.554686-19.0189603 6.976496-20.9009738 3.734306C2.5640593 66.39242 20.113251 67.815674 30.57846 62.925869" style="fill:#f9e702;fill-opacity:1;fill-rule:nonzero;stroke:#000000;stroke-width:0.5;stroke-linecap:round;stroke-linejoin:round;stroke-miterlimit:4;stroke-dasharray:none;stroke-dashoffset:0;stroke-opacity:1"/>
    <path d="M30.57846 62.981605C23.41419 73.287913 11.081687 75.952091 7.3923134 75.354981c-.8976697 2.976263 3.4865426 5.537662 8.4681456 5.429002 6.98069-.152265 16.228876-3.796412 19.455555-9.776404" style="fill:#f9e702;fill-opacity:1;fill-rule:nonzero;stroke:#000000;stroke-width:0.5;stroke-linecap:round;stroke-linejoin:round;stroke-miterlimit:4;stroke-dasharray:none;stroke-dashoffset:0;stroke-opacity:1"/>
    <path d="M35.340907 71c-3.813756 7.471165-16.137658 22.320906-25.8750003 23.625-2.1662274 2.1172.3009842 5 5.2500003 5 12.228047 0 26.133422-17.238475 29.625-24.625" style="fill:#f9e702;fill-opacity:1;fill-rule:nonzero;stroke:#000000;stroke-width:0.5;stroke-linecap:round;stroke-linejoin:round;stroke-miterlimit:4;stroke-dasharray:none;stroke-dashoffset:0;stroke-opacity:1"/>
    <path d="M44.465907 75.125c-8.869676 16.602772-15.568203 29.52127-24.337422 36.53746-4.581241 3.66542-7.441607 2.91749-7.441607 4.95496 0 1.65701 2.67313 3.35983 5.602252 3.35983 4.819791 0 10.777973-3.5336 15.956858-8.22215 8.142558-7.37162 18.802749-24.330041 20.719919-33.1301" style="fill:#f9e702;fill-opacity:1;fill-rule:nonzero;stroke:#000000;stroke-width:0.5;stroke-linecap:round;stroke-linejoin:round;stroke-miterlimit:4;stroke-dasharray:none;stroke-dashoffset:0;stroke-opacity:1"/>
    <path d="M53.965907 78.5c-.406365 6.831616-3.187002 15.979625-5.375 20.5-1.027063 2.1219-3.125207 6.16314-4.043661 7.93451-.752332 1.45098-3.081339 3.23819-3.081339 3.94049 0 1.33272.824458 2.61703 3.375 2.5 1.39719 0 3.870992-1.44728 7.266923-4.16616 5.338972-4.27452 11.415701-13.821124 13.608077-31.08384" style="fill:#f9e702;fill-opacity:1;fill-rule:nonzero;stroke:#000000;stroke-width:0.5;stroke-linecap:round;stroke-linejoin:round;stroke-miterlimit:4;stroke-dasharray:none;stroke-dashoffset:0;stroke-opacity:1"/>
    <path d="M24.684657 30.28125c-.062022.010483-.117814.043958-.15625.09375-.013291.019268-.02381.040307-.03125.0625-.021158.038221-.031933.081319-.03125.125.004076.033018.0147.06489.03125.09375a.25000521.25000521 0 0 0 .0625.0625c3.071421 3.043552 6.520593 4.892245 10.75 6.125l.75-.75c-4.19152-1.221711-8.171347-2.76093-11.15625-5.71875a.25000466.25000466 0 0 0-.03125-.03125c-.019268-.013291-.040307-.02381-.0625-.03125-.038221-.021158-.081319-.031933-.125-.03125zm-8.6875 12.59375c-.062022.010483-.117814.043958-.15625.09375-.013291.019268-.02381.040307-.03125.0625a.25003327.25003327 0 0 0-.03125.09375c-.005802.068431.0168.136236.0625.1875 2.962622 3.148547 8.196621 4.874605 14.59375 4.53125L31.340907 47c-6.299094.338093-12.327622-1.058317-15.125-4.03125a.25000466.25000466 0 0 0-.03125-.03125c-.019268-.013291-.040307-.02381-.0625-.03125-.038221-.021158-.081319-.031933-.125-.03125zm12.46875 15.21875c-2.13935 1.650561-5.218486 2.791551-8 3.21875-2.781514.427199-5.371788.377444-6.71875.09375-.03097-.005911-.06278-.005911-.09375 0-.057741.002153-.112953.024238-.15625.0625-.0457.051264-.068302.119069-.0625.1875.004076.033018.0147.06489.03125.09375.039115.069067.108702.115458.1875.125 1.454992.306447 4.165054.560406 7 .125 2.834946-.435406 6.068135-1.487167 8-3l-.1875-.90625zm5.78125 8.8125c.000001.000003-1.03125.09375-1.03125.09375-3.615524 4.461047-8.278896 8.074683-14.625 9.4375a.25000466.25000466 0 0 0-.03125.03125c-.022193.00744-.043232.017959-.0625.03125a.25000466.25000466 0 0 0-.03125.03125c-.038262.043297-.060347.098509-.0625.15625-.005802.068431.0168.136236.0625.1875.019268.013291.040307.02381.0625.03125a.25003327.25003327 0 0 0 .09375.03125c.03097.005911.06279.005964.09375 0 6.568242-1.265389 11.891057-5.032457 15.5625-9.5625l-.03125-.46875zm4.78125 6.625c-3.88243 7.526335-9.644937 12.671558-15.625 17.71875a.25000466.25000466 0 0 0-.03125.03125c-.0457.051264-.068302.119069-.0625.1875.004076.033018.0147.06489.03125.09375.00744.022193.017959.043232.03125.0625.043297.038262.098509.060347.15625.0625.040995.010584.084005.010584.125 0a.25000521.25000521 0 0 0 .0625-.0625C29.69617 86.57764 35.936051 81.630393 39.872157 74c.000001-.000001-.84375-.46875-.84375-.46875zm20.25 3.03125c-.305114 8.969082-2.709465 16.734044-7 23.59375-.000652.01041-.000652.02084 0 .03125-.021158.03822-.031933.08132-.03125.125.004076.03302.0147.06489.03125.09375.025055.0555.069502.09994.125.125.040995.01058.084005.01058.125 0 .033018-.00408.06489-.0147.09375-.03125.022193-.00744.043232-.01796.0625-.03125.013291-.01927.02381-.04031.03125-.0625 4.331783-6.925654 7.129417-14.756091 7.4375-23.8125.000002 0-.875-.03125-.875-.03125zm-11.59375.5625c-2.600033 12.112982-8.932475 20.422964-17.8125 30.25-.0457.05126-.068302.11907-.0625.1875.004076.03302.0147.06489.03125.09375.00744.02219.017959.04323.03125.0625.026088.0277.058152.04907.09375.0625.03097.00591.06278.00591.09375 0 .057741-.00215.112953-.02424.15625-.0625.011319-.00947.02086-.02076.03125-.03125 7.08441-7.14928 16.022391-17.414121 18.46875-30.4375-.000001 0-1.03125-.125-1.03125-.125z" style="fill:#000000;fill-opacity:1;fill-rule:nonzero;stroke:none;stroke-width:0.5;stroke-linecap:round;stroke-linejoin:round;stroke-miterlimit:4;stroke-dasharray:none;stroke-dashoffset:0;stroke-opacity:1"/>
    <path d="M31.325942 54.160555c-5.00289 2.981491-2.135677 8.75785 2.073494 5.842144" style="fill:#f9e702;fill-opacity:1;fill-rule:nonzero;stroke:#000000;stroke-width:0.49999997;stroke-linecap:round;stroke-linejoin:round;stroke-miterlimit:4;stroke-dasharray:none;stroke-dashoffset:0;stroke-opacity:1"/>
    <path d="M32.044221 60.62701c-4.1972 4.397798.39264 9.03663 3.8051 4.947044" style="fill:#f9e702;fill-opacity:1;fill-rule:nonzero;stroke:#000000;stroke-width:0.5;stroke-linecap:round;stroke-linejoin:round;stroke-miterlimit:4;stroke-dasharray:none;stroke-dashoffset:0;stroke-opacity:1"/>
    <path d="M35.516977 65.099567c-3.588087 4.907417 1.567305 8.908333 4.417527 4.408796" style="fill:#f9e702;fill-opacity:1;fill-rule:nonzero;stroke:#000000;stroke-width:0.5;stroke-linecap:round;stroke-linejoin:round;stroke-miterlimit:4;stroke-dasharray:none;stroke-dashoffset:0;stroke-opacity:1"/>
    <path d="M39.888281 68.666667c-4.47409 5.518708 1.954318 10.017997 5.508343 4.957977" style="fill:#f9e702;fill-opacity:1;fill-rule:nonzero;stroke:#000000;stroke-width:0.49999997;stroke-linecap:round;stroke-linejoin:round;stroke-miterlimit:4;stroke-dasharray:none;stroke-dashoffset:0;stroke-opacity:1"/>
    <path d="M33.515672 46.490741c-6.608567 1.190537-6.063578 8.739342-.907431 7.239101" style="fill:#f9e702;fill-opacity:1;fill-rule:nonzero;stroke:#000000;stroke-width:0.49999997;stroke-linecap:round;stroke-linejoin:round;stroke-miterlimit:4;stroke-dasharray:none;stroke-dashoffset:0;stroke-opacity:1"/>
    <path d="M33.515672 46.490741c-3.654563-.091389-1.66044-5.640528 1.879365-5.078539" style="fill:#f9e702;fill-opacity:1;fill-rule:nonzero;stroke:#000000;stroke-width:0.49999997;stroke-linecap:round;stroke-linejoin:round;stroke-miterlimit:4;stroke-dasharray:none;stroke-dashoffset:0;stroke-opacity:1"/>
    <path d="M38.420434 36.458274c-2.851173-1.823165-5.855799 3.209601-3.025397 4.953928" style="fill:#f9e702;fill-opacity:1;fill-rule:nonzero;stroke:#000000;stroke-width:0.49999997;stroke-linecap:round;stroke-linejoin:round;stroke-miterlimit:4;stroke-dasharray:none;stroke-dashoffset:0;stroke-opacity:1"/>
    <path d="M46.297913 71.23052c-4.47409 5.518708 1.954318 10.017997 5.508343 4.957977" style="fill:#f9e702;fill-opacity:1;fill-rule:nonzero;stroke:#000000;stroke-width:0.49999997;stroke-linecap:round;stroke-linejoin:round;stroke-miterlimit:4;stroke-dasharray:none;stroke-dashoffset:0;stroke-opacity:1"/>
    <path d="M53.335287 71.676407c-4.190569 5.518708 1.830474 10.017997 5.159282 4.957977" style="fill:#f9e702;fill-opacity:1;fill-rule:nonzero;stroke:#000000;stroke-width:0.5;stroke-linecap:round;stroke-linejoin:round;stroke-miterlimit:4;stroke-dasharray:none;stroke-dashoffset:0;stroke-opacity:1"/>
    <path d="M59.616881 71.341991c-3.581414 4.852376.961453 8.821754 4.570346 5.462121" style="fill:#f9e702;fill-opacity:1;fill-rule:nonzero;stroke:#000000;stroke-width:0.5;stroke-linecap:round;stroke-linejoin:round;stroke-miterlimit:4;stroke-dasharray:none;stroke-dashoffset:0;stroke-opacity:1"/>
    <path d="M64.521643 71.341991c-3.433426 4.65187.599892 8.492208 4.11883 5.841506" style="fill:#f9e702;fill-opacity:1;fill-rule:nonzero;stroke:#000000;stroke-width:0.5;stroke-linecap:round;stroke-linejoin:round;stroke-miterlimit:4;stroke-dasharray:none;stroke-dashoffset:0;stroke-opacity:1"/>
    <path d="M45.153407 36.25c.424249 1.020833-.843836 2.541667-1.875 3.4375" style="fill:none;fill-opacity:1;fill-rule:nonzero;stroke:#000000;stroke-width:0.5;stroke-linecap:round;stroke-linejoin:round;stroke-miterlimit:4;stroke-dasharray:none;stroke-dashoffset:0;stroke-opacity:1"/>
    <path d="M133.82494 55.958874c-.87494 9.205183-11.04735 13.449573-17.16667 12.150433" style="fill:none;fill-opacity:1;fill-rule:nonzero;stroke:#000000;stroke-width:0.5;stroke-linecap:round;stroke-linejoin:round;stroke-miterlimit:4;stroke-dasharray:none;stroke-dashoffset:0;stroke-opacity:1"/>
    <path d="M103.11444 63.594697c1.80213-1.097049 3.60426-.552613 5.40639-.222944" style="fill:none;fill-opacity:1;fill-rule:nonzero;stroke:#000000;stroke-width:0.5;stroke-linecap:round;stroke-linejoin:round;stroke-miterlimit:4;stroke-dasharray:none;stroke-dashoffset:0;stroke-opacity:1"/>
    <path d="M134.04788 32.1039c7.84843-2.10298 12.20621-6.212208 16.27489-10.589826 6.17946-1.44041 3.73223 15.238647-13.6553 19.228896" style="fill:#f9e702;fill-opacity:1;fill-rule:nonzero;stroke:#000000;stroke-width:0.5;stroke-linecap:round;stroke-linejoin:round;stroke-miterlimit:4;stroke-dasharray:none;stroke-dashoffset:0;stroke-opacity:1"/>
    <path d="M146.46591 30.28125c-.04368-.000683-.08679.010092-.125.03125-.02219.00744-.04324.017959-.0625.03125-.01132.009474-.02179.019931-.03125.03125-2.9849 2.95782-6.96473 4.497039-11.15625 5.71875 0 0 .75.749999.75.75 4.22941-1.232755 7.67857-3.081448 10.75-6.125.02438-.016956.04553-.03812.0625-.0625.01655-.02886.02716-.060732.03125-.09375.00068-.043681-.0101-.086779-.03125-.125-.00744-.022193-.01797-.043232-.03125-.0625-.03844-.049792-.09424-.083267-.15625-.09375zm8.6875 12.59375c-.04368-.000683-.08679.010092-.125.03125-.02219.00744-.04324.017959-.0625.03125-.01132.009474-.02179.019931-.03125.03125-2.79738 2.972933-8.82592 4.369343-15.125 4.03125 0 0 .90624.84375.90625.84375 6.39713.343355 11.63112-1.382703 14.59375-4.53125.0457-.051264.06829-.119069.0625-.1875-.00408-.033018-.01471-.06489-.03125-.09375-.00744-.022193-.01797-.043232-.03125-.0625-.03844-.049792-.09424-.083267-.15625-.09375zm-12.46875 15.21875L142.46591 59c1.93186 1.512833 5.19629 2.564594 8.03125 3 2.83495.435406 5.545.181447 7-.125.0788-.009542.14837-.055933.1875-.125.01655-.02886.02716-.060732.03125-.09375.0058-.068431-.01681-.136236-.0625-.1875-.0433-.038262-.09852-.060347-.15625-.0625-.03097-.005911-.06279-.005911-.09375 0-1.34696.283694-3.93725.333449-6.71875-.09375-2.78151-.427199-5.86065-1.568189-8-3.21875zm-5.78125 8.8125-.03125.46875c3.67144 4.530043 8.99425 8.297111 15.5625 9.5625.03096.005964.06277.005911.09375 0 .03302-.004076.06488-.0147.09375-.03125.02219-.00744.04322-.017959.0625-.03125.0457-.051264.06829-.119069.0625-.1875-.00215-.057741-.02425-.112953-.0625-.15625-.00947-.011319-.01994-.021776-.03125-.03125-.01927-.013291-.04032-.02381-.0625-.03125-.00947-.011319-.01994-.021776-.03125-.03125-6.3461-1.362817-11.00949-4.976453-14.625-9.4375 0 0-1.03125-.093747-1.03125-.09375zm-4.78125 6.625s-.84375.468749-.84375.46875c3.93611 7.630393 10.17598 12.57764 16.15625 17.625.01696.02438.03811.045544.0625.0625.041.010584.08399.010584.125 0 .05774-.002153.11294-.024238.15625-.0625.01329-.019268.0238-.040307.03125-.0625.01655-.02886.02716-.060732.03125-.09375.0058-.068431-.01681-.136236-.0625-.1875-.00947-.011319-.01994-.021776-.03125-.03125-5.98006-5.047192-11.74257-10.192415-15.625-17.71875zm-20.25 3.03125-.875.03125c.30808 9.056409 3.10572 16.886846 7.4375 23.8125.00744.02219.01796.04323.03125.0625.01927.01329.04031.02381.0625.03125.02886.01655.06073.02717.09375.03125.041.01058.084.01058.125 0 .0555-.02506.09994-.0695.125-.125.01655-.02886.02717-.06073.03125-.09375.00068-.04368-.01009-.08678-.03125-.125.00065-.01041.00065-.02084 0-.03125-4.29054-6.859706-6.69489-14.624668-7-23.59375zm11.59375.5625-1.03125.125c2.44635 13.023379 9.83754 21.697228 18.46875 30.4375.01037.0105.01992.02178.03125.03125.0433.03826.0985.06035.15625.0625.03097.00591.06277.00591.09375 0 .0356-.01343.06765-.0348.09375-.0625.01329-.01927.0238-.04031.03125-.0625.01655-.02886.02716-.06073.03125-.09375.0058-.06843-.01681-.13624-.0625-.1875-8.88003-9.827036-15.21247-18.137018-17.8125-30.25z" style="fill:#000000;fill-opacity:1;fill-rule:nonzero;stroke:none;stroke-width:0.5;stroke-linecap:round;stroke-linejoin:round;stroke-miterlimit:4;stroke-dasharray:none;stroke-dashoffset:0;stroke-opacity:1"/>
    <path d="M139.61837 53.95743c5.40915 2.950241 2.33881 8.960975-1.87036 6.045269" style="fill:#f9e702;fill-opacity:1;fill-rule:nonzero;stroke:#000000;stroke-width:0.49999997;stroke-linecap:round;stroke-linejoin:round;stroke-miterlimit:4;stroke-dasharray:none;stroke-dashoffset:0;stroke-opacity:1"/>
    <path d="M139.19304 60.722587c3.59917 3.891286.38468 7.92024-2.75488 5.886097" style="fill:#f9e702;fill-opacity:1;fill-rule:nonzero;stroke:#000000;stroke-width:0.5;stroke-linecap:round;stroke-linejoin:round;stroke-miterlimit:4;stroke-dasharray:none;stroke-dashoffset:0;stroke-opacity:1"/>
    <path d="M135.63047 65.099567c3.58809 4.907417-1.5673 8.908333-4.41753 4.408796" style="fill:#f9e702;fill-opacity:1;fill-rule:nonzero;stroke:#000000;stroke-width:0.5;stroke-linecap:round;stroke-linejoin:round;stroke-miterlimit:4;stroke-dasharray:none;stroke-dashoffset:0;stroke-opacity:1"/>
    <path d="M131.25917 68.666667c4.47409 5.518708-1.95432 10.017997-5.50835 4.957977" style="fill:#f9e702;fill-opacity:1;fill-rule:nonzero;stroke:#000000;stroke-width:0.49999997;stroke-linecap:round;stroke-linejoin:round;stroke-miterlimit:4;stroke-dasharray:none;stroke-dashoffset:0;stroke-opacity:1"/>
    <path d="M137.63177 46.490741c6.60857 1.190537 6.06358 8.739342.90744 7.239101" style="fill:#f9e702;fill-opacity:1;fill-rule:nonzero;stroke:#000000;stroke-width:0.49999997;stroke-linecap:round;stroke-linejoin:round;stroke-miterlimit:4;stroke-dasharray:none;stroke-dashoffset:0;stroke-opacity:1"/>
    <path d="M137.63177 46.490741c3.65457-.091389 1.66044-5.640528-1.87936-5.078539" style="fill:#f9e702;fill-opacity:1;fill-rule:nonzero;stroke:#000000;stroke-width:0.49999997;stroke-linecap:round;stroke-linejoin:round;stroke-miterlimit:4;stroke-dasharray:none;stroke-dashoffset:0;stroke-opacity:1"/>
    <path d="M132.72701 36.458274c2.85118-1.823165 5.8558 3.209601 3.0254 4.953928" style="fill:#f9e702;fill-opacity:1;fill-rule:nonzero;stroke:#000000;stroke-width:0.49999997;stroke-linecap:round;stroke-linejoin:round;stroke-miterlimit:4;stroke-dasharray:none;stroke-dashoffset:0;stroke-opacity:1"/>
    <path d="M124.84953 71.23052c4.47409 5.518708-1.95431 10.017997-5.50834 4.957977" style="fill:#f9e702;fill-opacity:1;fill-rule:nonzero;stroke:#000000;stroke-width:0.49999997;stroke-linecap:round;stroke-linejoin:round;stroke-miterlimit:4;stroke-dasharray:none;stroke-dashoffset:0;stroke-opacity:1"/>
    <path d="M117.81216 71.676407c4.19057 5.518708-1.83047 10.017997-5.15928 4.957977" style="fill:#f9e702;fill-opacity:1;fill-rule:nonzero;stroke:#000000;stroke-width:0.5;stroke-linecap:round;stroke-linejoin:round;stroke-miterlimit:4;stroke-dasharray:none;stroke-dashoffset:0;stroke-opacity:1"/>
    <path d="M125.99404 36.25c-.42425 1.020833.84384 2.541667 1.875 3.4375" style="fill:none;fill-opacity:1;fill-rule:nonzero;stroke:#000000;stroke-width:0.5;stroke-linecap:round;stroke-linejoin:round;stroke-miterlimit:4;stroke-dasharray:none;stroke-dashoffset:0;stroke-opacity:1"/>
    <path d="M66.5 117.77344c-.28028 1.29739-.425952 2.95799-.53125 4.22656-.901849.27353-1.742505.68215-2.28125 1.34375-.011319.00947-.021776.01993-.03125.03125-.01655.02886-.027174.06073-.03125.09375-.005911.03097-.005911.06278 0 .09375.0181.06721.0634.12384.125.15625.02886.01655.060732.02717.09375.03125.084068.00768.166336-.02757.21875-.09375.434138-.53314 1.336519-.84019 2.4375-.96875.078798-.00954.148385-.05593.1875-.125.01655-.02886.027174-.06073.03125-.09375.094338-1.58383.168494-3.02041.28125-4.46875l-.5-.22656z" style="fill:#000000;fill-opacity:1;fill-rule:nonzero;stroke:none;stroke-width:0.5;stroke-linecap:round;stroke-linejoin:round;stroke-miterlimit:4;stroke-dasharray:none;stroke-dashoffset:0;stroke-opacity:1"/>
    <path d="M58.456803 119.96875c-3.494443 5.85788-11.514756 13.8197-20.21875 21.65625-1.863435 1.67772-3.832496 2.56129-5.375 2.8125-1.190089.19382-3.43067-.1875-5.4375-.1875-1.526473 0-2.5625 1.38041-2.5625 2.625 0 1.45283.991872 3.125 2.875 3.125 2.194705 0 2.03733-2.5 3-2.5 1.177417 0 1.88725.44179 3.25.25" style="fill:none;fill-opacity:1;fill-rule:nonzero;stroke:#000000;stroke-width:0.5;stroke-linecap:round;stroke-linejoin:round;stroke-miterlimit:4;stroke-dasharray:none;stroke-dashoffset:0;stroke-opacity:1"/>
    <path d="M38.113053 144.5c-2.375 3.1875-9.617968 5.42779-10.375 8.25-.38067 1.41913.641943 2.9263 1.875 4.125.945465.91912 3.019559 1.29435 4.0625-.125 1.298638-1.76733.426942-5.21214 2.125-6.625 1.734158-1.4429 3.253722-1.29048 5.3125-1.75 1.756799-.39212 3.312538-1.54154 4.5625-3.75.894895-.35041 2.250381-.56661 3.1875 0 .963831.58276 1.777465 2.25 3.25 2.25 1.501962 0 3.375-1.09309 3.375-2.875 0-2.45322-1.42052-5-3.625-5-1.40774 0-4.380689 1.61742-5.875 2.625 3.704163-4.25 10.5427-9.07246 14.875-13.875.978544-1.08476 5.599944-1.19897 7.28125-3.4375" style="fill:none;fill-opacity:1;fill-rule:nonzero;stroke:#000000;stroke-width:0.5;stroke-linecap:round;stroke-linejoin:round;stroke-miterlimit:4;stroke-dasharray:none;stroke-dashoffset:0;stroke-opacity:1"/>
    <path d="M41.050553 139.125c-1.3125 1.0625-3.551079 1.70564-5.1875 1.6875-2.383686-.02642-5.553668-2.625-7.9375-2.625-1.726251 0-3.25 1.03511-3.25 2.5625 0 1.84324 1.203977 3 2.6875 3 .913185 0 1.774829-1 2.875-1 .746712 0 1.348679.96274 2.1875 1.1875.633889.16985 1.5625.1875 2.1875 0" style="fill:none;fill-opacity:1;fill-rule:nonzero;stroke:#000000;stroke-width:0.5;stroke-linecap:round;stroke-linejoin:round;stroke-miterlimit:4;stroke-dasharray:none;stroke-dashoffset:0;stroke-opacity:1"/>
    <path d="M74.013921 166.11613c-1.154207 1.04829-2.378408 2.22833-3.690199 3.54012-13.061039 13.06104-1.741163 24.49116 5.15625 17.59375-5.492528-.55574-4.194533-6.96501-.21875-9.59375 3.93464-2.60154 6.063545-6.06147 7.09375-9.90625-.434853 8.47436-.861657 16.41763-4.90625 22.1875-1.212214 1.72931 1.106526 2.6875 4 2.6875.057517 1.82893 2.115675 3.46875 4.125 3.46875s4.067477-1.63982 4.125-3.46875c2.893474 0 5.212208-.95819 4-2.6875-4.044593-5.76987-4.471403-13.71314-4.90625-22.1875 1.030205 3.84478 3.159104 7.30471 7.09375 9.90625 3.97578 2.62874 5.273758 9.03801-.21875 9.59375 6.897408 6.89741 18.217288-4.53271 5.156248-17.59375-1.386067-1.38607-2.674346-2.62504-3.885591-3.71692" style="fill:#f9e702;fill-opacity:1;fill-rule:nonzero;stroke:#000000;stroke-width:0.5;stroke-linecap:round;stroke-linejoin:round;stroke-miterlimit:4;stroke-dasharray:none;stroke-dashoffset:0;stroke-opacity:1"/>
    <path d="M76.765907 147.3658c-.343077 3.06056-2.526759 7.32611-5.404593 10.65457-4.022349 4.6522-10.187389 6.78074-12.152225 3.33515-2.883202-.34556-2.827337 4.31755-.752329 6.10697 1.779269 1.53439 5.110069 1.79763 7.05049.91576-7.886963 5.77769-16.560769.63815-16.560769-5.18342 0-2.58644 1.884798-6.20515 4.856224-5.29493-.581573-1.38008-1.777048-2.4585-3.465185-2.4585-4.520573 0-8.209235 4.9095-8.209235 10.01788 0 6.32041 4.390806 12.89226 14.952569 12.89226 13.502961 0 21.795039-18.48898 24.478344-28.58909" style="fill:#f9e702;fill-opacity:1;fill-rule:nonzero;stroke:#000000;stroke-width:0.5;stroke-linecap:round;stroke-linejoin:round;stroke-miterlimit:4;stroke-dasharray:none;stroke-dashoffset:0;stroke-opacity:1"/>
    <path d="M94.381532 147.3658c.343077 3.06056 2.52676 7.32611 5.404593 10.65457 4.022355 4.6522 10.187395 6.78074 12.152225 3.33515 2.88321-.34556 2.82734 4.31755.75233 6.10697-1.77927 1.53439-5.11007 1.79763-7.05049.91576 7.88697 5.77769 16.56077.63815 16.56077-5.18342 0-2.58644-1.8848-6.20515-4.85622-5.29493.58157-1.38008 1.77705-2.4585 3.46518-2.4585 4.52058 0 8.20924 4.9095 8.20924 10.01788 0 6.32041-4.39081 12.89226-14.95257 12.89226-13.50296 0-21.795044-18.48898-24.478348-28.58909" style="fill:#f9e702;fill-opacity:1;fill-rule:nonzero;stroke:#000000;stroke-width:0.5;stroke-linecap:round;stroke-linejoin:round;stroke-miterlimit:4;stroke-dasharray:none;stroke-dashoffset:0;stroke-opacity:1"/>
    <path d="M76.817581 139.22205c-.695227 3.49626-3.169862 9.147-10.948195 9.147-2.927715 0-5.718331.62253-7.350452 2.70299-1.375933 1.7539-2.224718 5.62782-.006692 8.22125.156378-2.63042 2.110244-4.45887 6.799785-4.45887 7.143797 0 13.085655-4.67151 14.156926-12.03897" style="fill:#f9e702;fill-opacity:1;fill-rule:nonzero;stroke:#000000;stroke-width:0.5;stroke-linecap:round;stroke-linejoin:round;stroke-miterlimit:4;stroke-dasharray:none;stroke-dashoffset:0;stroke-opacity:1"/>
    <path d="M94.320443 139.17428c.682146 3.49229 3.143749 9.19477 10.957617 9.19477 2.92771 0 5.71833.62253 7.35045 2.70299 1.37593 1.7539 2.22472 5.62782.00669 8.22125-.15638-2.63042-2.11025-4.45887-6.79979-4.45887-7.143795 0-13.085652-4.67151-14.156923-12.03897" style="fill:#f9e702;fill-opacity:1;fill-rule:nonzero;stroke:#000000;stroke-width:0.5;stroke-linecap:round;stroke-linejoin:round;stroke-miterlimit:4;stroke-dasharray:none;stroke-dashoffset:0;stroke-opacity:1"/>
    <path d="M78.809385 53.28355c-7.330814 4.620668-11.593074 9.500409-11.593074 16.16342 0 8.181397 6.799784 18.230789 6.799784 25.081169 0 3.320656-7.70969 7.660061-10.573052 11.772181-1.760144 2.52777-4.30613 12.47598-11.106073 12.47598-2.311069 0-3.616689-1.35372-3.513516-3.12424-2.141549 1.8177-1.4308 6.31083 3.641178 6.31083 6.447218 0 10.091234-6.47804 12.076354-6.47804 4.346155 0 .737995 11.64881 7.914503 12.65206-1.692919-8.05099.789686-13.06439 4.79329-13.98972 1.331356 5.15408-2.970018 27.53568-13.042208 23.40909.761138 3.11439 3.546708 4.70409 6.365785 4.70409 9.397087 0 11.468543-15.83354 10.577938-22.42812" style="fill:none;fill-opacity:1;fill-rule:nonzero;stroke:#000000;stroke-width:0.5;stroke-linecap:round;stroke-linejoin:round;stroke-miterlimit:4;stroke-dasharray:none;stroke-dashoffset:0;stroke-opacity:1"/>
    <path d="M111.81216 71.676407c4.19057 5.518708-1.83047 10.017997-5.15928 4.957977" style="fill:#f9e702;fill-opacity:1;fill-rule:nonzero;stroke:#000000;stroke-width:0.5;stroke-linecap:round;stroke-linejoin:round;stroke-miterlimit:4;stroke-dasharray:none;stroke-dashoffset:0;stroke-opacity:1"/>
    <path d="M100.43441 74.13447c-4.062502 7.618897-5.424787 12.668289-5.424787 20.143669 0 3.320656 9.834687 7.910061 12.698057 12.022181 1.76014 2.52777 4.30613 12.47598 11.10607 12.47598 2.31107 0 3.61669-1.35372 3.51352-3.12424 2.14154 1.8177 1.4308 6.31083-3.64118 6.31083-6.44722 0-10.09124-6.47804-12.07636-6.47804-4.34615 0-.73799 11.64881-7.914501 12.65206 1.692921-8.05099-.789686-13.06439-4.79329-13.98972-1.331356 5.15408 2.970018 27.53568 13.042211 23.40909-.76114 3.11439-3.54671 4.70409-6.36579 4.70409-9.397085 0-11.468541-15.83354-10.577936-22.42812" style="fill:none;fill-opacity:1;fill-rule:nonzero;stroke:#000000;stroke-width:0.5;stroke-linecap:round;stroke-linejoin:round;stroke-miterlimit:4;stroke-dasharray:none;stroke-dashoffset:0;stroke-opacity:1"/>
    <path d="M112.69391 119.96875c3.49445 5.85788 11.51476 13.8197 20.21875 21.65625 1.86344 1.67772 3.8325 2.56129 5.375 2.8125 1.19009.19382 3.43067-.1875 5.4375-.1875 1.52648 0 2.5625 1.38041 2.5625 2.625 0 1.45283-.99187 3.125-2.875 3.125-2.1947 0-2.03733-2.5-3-2.5-1.17741 0-1.88725.44179-3.25.25" style="fill:none;fill-opacity:1;fill-rule:nonzero;stroke:#000000;stroke-width:0.5;stroke-linecap:round;stroke-linejoin:round;stroke-miterlimit:4;stroke-dasharray:none;stroke-dashoffset:0;stroke-opacity:1"/>
    <path d="M133.03766 144.5c2.375 3.1875 9.61797 5.42779 10.375 8.25.38067 1.41913-.64194 2.9263-1.875 4.125-.94546.91912-3.01955 1.29435-4.0625-.125-1.29863-1.76733-.42694-5.21214-2.125-6.625-1.73415-1.4429-3.25372-1.29048-5.3125-1.75-1.75679-.39212-3.31253-1.54154-4.5625-3.75-.89489-.35041-2.25038-.56661-3.1875 0-.96383.58276-1.77746 2.25-3.25 2.25-1.50196 0-3.375-1.09309-3.375-2.875 0-2.45322 1.42052-5 3.625-5 1.40774 0 4.38069 1.61742 5.875 2.625-3.70416-4.25-10.5427-9.07246-14.875-13.875-.97854-1.08476-5.59994-1.19897-7.28125-3.4375" style="fill:none;fill-opacity:1;fill-rule:nonzero;stroke:#000000;stroke-width:0.5;stroke-linecap:round;stroke-linejoin:round;stroke-miterlimit:4;stroke-dasharray:none;stroke-dashoffset:0;stroke-opacity:1"/>
    <path d="M130.10016 139.125c1.3125 1.0625 3.55108 1.70564 5.1875 1.6875 2.38369-.02642 5.55367-2.625 7.9375-2.625 1.72626 0 3.25 1.03511 3.25 2.5625 0 1.84324-1.20397 3-2.6875 3-.91318 0-1.77482-1-2.875-1-.74671 0-1.34867.96274-2.1875 1.1875-.63388.16985-1.5625.1875-2.1875 0" style="fill:none;fill-opacity:1;fill-rule:nonzero;stroke:#000000;stroke-width:0.5;stroke-linecap:round;stroke-linejoin:round;stroke-miterlimit:4;stroke-dasharray:none;stroke-dashoffset:0;stroke-opacity:1"/>
    <path d="M104.5 122.09375c-.02438.01696-.04554.03812-.0625.0625a.24933162.24933162 0 0 0-.03125.03125c-.01655.02886-.02717.06073-.03125.09375-.01058.04099-.01058.08401 0 .125.00744.02219.01954.04223.03125.0625.52406.90742 1.45691 1.81709 2.625 2.5.01274.00745.01993.02178.03125.03125.02886.01655.06073.02717.09375.03125.03302-.00408.06489-.0147.09375-.03125.1283-.04446.19766-.18319.15625-.3125-.00744-.02219-.01796-.04323-.03125-.0625-.01696-.02438-.03812-.04554-.0625-.0625-1.06317-.7554-1.99656-1.61122-2.5-2.375a.24933162.24933162 0 0 0-.03125-.03125c-.05126-.0457-.11907-.0683-.1875-.0625-.03097-.00591-.06278-.00591-.09375 0z" style="fill:#000000;fill-opacity:1;fill-rule:nonzero;stroke:none;stroke-width:0.5;stroke-linecap:round;stroke-linejoin:round;stroke-miterlimit:4;stroke-dasharray:none;stroke-dashoffset:0;stroke-opacity:1"/>
    <path d="M107.78057 71.341991c3.58141 4.852376-1.02633 8.317919-4.57035 5.462121" style="fill:#f9e702;fill-opacity:1;fill-rule:nonzero;stroke:#000000;stroke-width:0.5;stroke-linecap:round;stroke-linejoin:round;stroke-miterlimit:4;stroke-dasharray:none;stroke-dashoffset:0;stroke-opacity:1"/>
    <path d="M103.21022 76.804112c-1.59526-1.285472-2.94294-3.616612-5.056813-3.616612-1.299363 0-2.093981.897778-2.4375 1.5625" style="fill:none;fill-opacity:1;fill-rule:nonzero;stroke:#000000;stroke-width:0.5;stroke-linecap:round;stroke-linejoin:round;stroke-miterlimit:4;stroke-dasharray:none;stroke-dashoffset:0;stroke-opacity:1"/>
    <path d="M75.90625 18.71875c1.05943.711403 1.99221 1.549456 2.71875 2.59375.276263-.653901.538037-1.325189.40625-2.46875-1.041667.074806-2.083333.049958-3.125-.125z" style="opacity:1;fill:#000000;fill-opacity:1;fill-rule:nonzero;stroke:none;stroke-width:0.69999999;stroke-linecap:round;stroke-linejoin:round;stroke-miterlimit:4;stroke-dasharray:none;stroke-dashoffset:0;stroke-opacity:1"/>
    <path d="M70.202513 60.417752c-.57497-.5625-2.966553-2.006493-5.234984-2.006493-5.275064 0-9.032482 4.012987-13.878247 4.012987-6.495907 0-10.979977-5.205631-10.979977-11.37013 0-7.200197 8.248917-9.188342 8.248917-13.488095 0-3.330946-3.365863-5.508046-7.297008-7.142238-5.467647-2.272921-11.94656-7.026881-5.968143-12.253865-7.766248 1.141817-5.047394 12.043899 2.006493 13.933982" style="fill:none;fill-opacity:1;fill-rule:nonzero;stroke:#000000;stroke-width:0.5;stroke-linecap:round;stroke-linejoin:round;stroke-miterlimit:4;stroke-dasharray:none;stroke-dashoffset:0;stroke-opacity:1"/>
    <path d="M87.115259 34.389069c0 2.368387-1.857741 3.50671-5.186276 3.228031-3.333438-.279091-7.558683-.18175-10.642727.896428.547768-4.818046 8.202906-6.570546 13.488095-6.019481.613095-4.307447-3.421402-8.31742-10.757035-6.966991-2.936912-2.504284-7.85097.250236-8.137446 3.511364-4.011387-4.791479-.703121-10.757035 5.573593-10.757035 1.407639 0 2.883172.229077 4.046537.343615 1.427757 1.080224 2.941041 2.106194 3.6875 3.6875" style="fill:none;fill-opacity:1;fill-rule:nonzero;stroke:#000000;stroke-width:0.5;stroke-linecap:round;stroke-linejoin:round;stroke-miterlimit:4;stroke-dasharray:none;stroke-dashoffset:0;stroke-opacity:1"/>
    <path d="M91.257431 58.167752c1.26247-.8125 3.404056-2.006493 7.859986-2.006493 8.962783 0 10.946013 6.262987 20.940743 6.262987 6.49591 0 10.97998-5.205631 10.97998-11.37013 0-7.200197-8.24891-9.188342-8.24891-13.488095 0-3.330946 3.36586-5.508046 7.297-7.142238 5.46765-2.272921 11.94656-7.026881 5.96815-12.253865 7.76624 1.141817 5.04739 12.043899-2.0065 13.933982" style="fill:none;fill-opacity:1;fill-rule:nonzero;stroke:#000000;stroke-width:0.5;stroke-linecap:round;stroke-linejoin:round;stroke-miterlimit:4;stroke-dasharray:none;stroke-dashoffset:0;stroke-opacity:1"/>
    <path d="M23.5 138.03125c-2.565838.10445-4.528942 3.0272-1.71875 5.25-.403073-1.72737 1.498025-2.94759 3.53125-1.4375.830281-.34861 1.403218-1.94432.8125-2.84375-.833601-.72173-1.769721-1.00357-2.625-.96875zm124.15625 0c-.85528-.03482-1.7914.24702-2.625.96875-.59073.89943-.01778 2.49514.8125 2.84375 2.03323-1.51009 3.93432-.28987 3.53125 1.4375 2.81019-2.2228.84709-5.14555-1.71875-5.25zM56 139.375c-.774555.05623-1.551294.26007-2.25.625-1.339715 1.27083-.784878 3.66667 1 4.3125 1.577428-2.02706 4.421452-1.02871 4.3125 1.25 2.0221-2.1372 1.651293-4.15925.34375-5.25-.860187-.71757-2.115324-1.03122-3.40625-.9375zm58.375 0c-1.01514.05852-1.9681.36344-2.65625.9375-1.30754 1.09075-1.64709 3.1128.375 5.25-.10895-2.27871 2.73508-3.27706 4.3125-1.25 1.78488-.64583 2.33972-3.04167 1-4.3125-.93161-.48658-2.01611-.68352-3.03125-.625zM24 145c-.202401-.00446-.402338.01616-.59375.03125-1.276078.10059-2.30431.66064-2.96875 1.5625-1.009997 1.37088-.754335 4.15616 1.71875 4.75-.898754-1.93712.891273-3.96783 3.65625-2.6875.892094-.61501 1.041427-2.39746.125-3.3125-.679619-.21127-1.330298-.33037-1.9375-.34375zm122.9375.03125c-.54608.0328-1.11464.12471-1.71875.3125-.91641.91504-.76709 2.69749.125 3.3125 2.76497-1.28033 4.52375.75038 3.625 2.6875 2.47309-.59384 2.76-3.37912 1.75-4.75-.79732-1.08224-2.143-1.66089-3.78125-1.5625zM28.71875 152.9375c-1.987885.6833-3.324418 2.39876-3.4375 4.1875-.107441 1.69936 1.307806 3.81057 3.8125 3.5-1.729151-1.48809-.493915-4.21775 2.0625-3.96875.758716-1.7399-.593553-3.8173-2.4375-3.71875zm113.71875 0c-1.84395-.09855-3.19622 1.97885-2.4375 3.71875 2.55641-.249 3.79165 2.48066 2.0625 3.96875 2.50468.31057 3.91994-1.80064 3.8125-3.5-.11308-1.78874-1.44962-3.5042-3.4375-4.1875z" style="fill:#f9e702;fill-opacity:1;fill-rule:nonzero;stroke:#000000;stroke-width:0.5;stroke-linecap:round;stroke-linejoin:round;stroke-miterlimit:4;stroke-dasharray:none;stroke-dashoffset:0;stroke-opacity:1"/>
  </g>
</svg>