<?xml version="1.0" encoding="UTF-8" standalone="no"?>
<!-- Created with Inkscape (http://www.inkscape.org/) -->

<svg
   version="1.0"
   width="251"
   height="304.20001"
   id="svg4166"
   xmlns:xlink="http://www.w3.org/1999/xlink"
   xmlns="http://www.w3.org/2000/svg"
   xmlns:svg="http://www.w3.org/2000/svg"
   xmlns:rdf="http://www.w3.org/1999/02/22-rdf-syntax-ns#"
   xmlns:cc="http://creativecommons.org/ns#"
   xmlns:dc="http://purl.org/dc/elements/1.1/">
  <defs
     id="defs4168" />
  <metadata 
     id="metadata1880"><rdf:RDF><cc:Work
         rdf:about=""><dc:title>Heraldic leafed tree</dc:title><dc:date>2010-09-12</dc:date><dc:creator><cc:Agent><dc:title>Lokal_Profil</dc:title></cc:Agent></dc:creator><cc:license
         rdf:resource="http://creativecommons.org/licenses/by-sa/2.5/" /><dc:rights><cc:Agent><dc:title>cc-by-sa-2.5</dc:title></cc:Agent></dc:rights><dc:format>image/svg+xml</dc:format><dc:type
         rdf:resource="http://purl.org/dc/dcmitype/StillImage" /></cc:Work><cc:License
         rdf:about="http://creativecommons.org/licenses/by-sa/2.5/"><cc:permits
         rdf:resource="http://web.resource.org/cc/Reproduction" /><cc:permits
         rdf:resource="http://web.resource.org/cc/Distribution" /><cc:requires
         rdf:resource="http://web.resource.org/cc/Notice" /><cc:requires
         rdf:resource="http://web.resource.org/cc/Attribution" /><cc:permits
         rdf:resource="http://web.resource.org/cc/DerivativeWorks" /><cc:requires
         rdf:resource="http://web.resource.org/cc/ShareAlike" /></cc:License></rdf:RDF>
  </metadata>
  <g
     transform="translate(0,-18)"
     id="Generic-Tree">
    <path
       d="m 125.87665,87.26046 c 0.14281,0 0.66153,0.09778 0.66153,0.09778 0.45229,12.026655 1.30682,15.72143 2.81528,31.24731 1.51346,15.57748 1.70605,31.24731 1.70605,31.24731 0.47317,0.71621 3.64752,-0.80468 6.14726,-2.5257 7.70296,-5.30336 8.40999,-8.90331 10.18317,-15.8318 l 0.38874,1.24801 c 0,1.21396 -0.61329,6.53189 -1.22026,8.35283 -0.60699,1.82093 -2.14329,3.28184 -3.35724,5.10279 -1.21396,1.82094 -2.75025,3.35722 -4.57118,4.57118 -1.82094,1.21396 -2.63719,3.23376 -3.85115,5.05471 -1.21395,1.82094 -1.21395,4.24885 0,5.46281 1.21396,1.21396 3.64189,1.21396 5.46282,1.21396 1.82094,0 3.0349,0 5.46281,-2.42792 2.42792,-2.42791 6.0698,-7.28376 9.1047,-11.53261 4.65618,-7.05972 9.66181,-13.80091 14.78453,-20.46273 5.12271,-6.66181 10.94915,-11.77756 16.07365,-18.51973 l 1.06213,0.52372 c -4.55087,6.40971 -8.28468,12.18942 -13.14771,18.3625 -4.86303,6.17308 -9.58416,12.44618 -13.56743,19.25599 -0.83962,1.06637 11.48317,6.5196 14.75046,6.42178 -0.20231,1.61861 -0.16221,-0.31361 -0.36454,1.305 -4.75428,0 -14.12828,-3.85164 -15.34224,-3.24466 -1.21396,0.60698 -2.52368,1.77761 -3.03489,3.03491 -1.76756,4.34717 -4.73323,9.90686 -0.40119,12.17728 2.28092,1.19543 4.81814,5.0547 6.63909,7.48261 1.82093,2.42792 2.67254,11.7506 2.67254,13.57155 0,0 -1.05509,0.10191 -1.05509,0.10191 -0.60699,-1.21396 -1.98789,-9.05423 -3.80882,-11.48215 -1.82094,-2.42792 -5.46282,-4.85584 -9.10469,-6.06979 -3.64189,-1.21396 -7.28376,-1.21396 -9.1047,1.21395 -1.82093,2.42792 -0.45337,7.51169 -1.06035,11.76054 -0.60698,4.24885 -1.82095,7.89074 -1.82095,10.92562 0,3.03489 1.21397,5.46282 1.21397,8.49772 0,3.03489 -1.21397,6.67676 -1.21397,9.71167 0,3.0349 1.21397,5.46281 1.21397,8.49772 0,3.03489 -1.21397,6.67677 -1.21397,9.71166 0,3.0349 1.21397,5.46282 1.21397,8.49772 0,3.03489 -1.21397,6.67677 -1.82094,10.92563 -0.60699,4.24885 -0.60699,9.10469 0,13.35355 0.60697,4.24885 1.82094,7.89073 4.24886,10.92563 2.42791,3.0349 6.06979,5.46281 9.71167,4.85583 3.64187,-0.60697 7.28375,-4.24885 11.53261,-3.64187 4.24886,0.60698 9.10469,5.46281 13.96053,6.0698 4.85583,0.60697 9.71166,-3.0349 14.56751,-3.64188 4.85583,-0.60698 9.71167,1.82093 13.35355,1.82093 3.64187,0 6.06979,-2.42791 7.89073,-3.03489 1.82094,-0.60698 3.0349,0.60698 1.82094,2.42791 -1.21396,1.82094 -4.85584,4.24886 -8.49772,4.85585 -3.64187,0.60698 -7.28376,-0.60699 -9.71167,0 -2.42792,0.60698 -3.64188,3.03489 -5.46281,3.64187 -1.82094,0.60698 -4.24887,-0.60698 -4.85583,0 -0.60699,0.60698 0.60696,3.0349 2.42791,4.24885 1.82094,1.21396 4.24885,1.21396 5.46281,1.82095 1.21396,0.60697 1.21396,1.82093 0,2.42792 -1.21396,0.60698 -3.64187,0.60698 -5.46281,1.82094 -1.82095,1.21395 -3.0349,3.64187 -4.24886,4.24885 -1.21396,0.60698 -2.42792,-0.60698 -2.42792,-1.82094 0,-1.21396 1.21396,-2.42791 1.21396,-4.24885 0,-1.82095 -1.21396,-4.24887 -2.42792,-5.46282 -1.21395,-1.21396 -2.42791,-1.21396 -4.85583,-1.82094 -2.42793,-0.60698 -6.0698,-1.82094 -7.28376,-1.82094 -1.21395,0 0,1.21396 0.60698,3.64188 0.60698,2.42791 0.60698,6.0698 1.21396,7.89073 0.60698,1.82094 1.82094,1.82094 3.03489,2.42792 1.21396,0.60698 2.42793,1.82094 2.42793,3.03489 0,1.21396 -1.21397,2.42792 -3.03489,2.42792 -1.82095,0 -4.24887,-1.21396 -6.0698,-0.60697 -1.82094,0.60697 -3.0349,3.0349 -4.24887,4.85584 -1.21396,1.82093 -2.42791,3.03489 -3.64187,2.42791 -1.21396,-0.60698 -2.42792,-3.03489 -1.21396,-6.06979 1.21396,-3.03491 4.85583,-6.67678 6.0698,-9.71167 1.21396,-3.03491 0,-5.46283 -1.21397,-6.67678 -1.21396,-1.21396 -2.42791,-1.21396 -3.03489,0 -0.60698,1.21395 -0.60698,3.64187 -1.82094,4.85583 -1.21396,1.21397 -3.64187,1.21397 -4.24885,0.60699 -0.60698,-0.60699 0.60698,-1.82095 -1.21396,-3.03491 -1.82095,-1.21396 -6.67678,-2.42791 -8.49772,-1.82093 -1.82093,0.60697 -0.60698,3.03489 1.21396,6.67678 1.82094,3.64187 4.24885,8.4977 3.64189,12.13959 -0.60699,3.64187 -4.24887,6.06979 -5.46283,5.46281 -1.21395,-0.60698 0,-4.24886 0,-6.67677 0,-2.42793 -1.21395,-3.64189 -2.42791,-4.24887 -1.21396,-0.60698 -2.42793,-0.60698 -4.24885,0.60698 -1.82095,1.21396 -4.24887,3.64189 -5.46282,6.0698 -1.21396,2.42792 -1.21396,4.85584 -1.82094,4.24886 -0.60698,-0.60698 -1.82094,-4.24886 -1.82094,-7.28375 0,-3.03491 1.21396,-5.46282 3.0349,-7.28376 1.82093,-1.82094 4.24885,-3.03489 4.85583,-4.85583 0.60697,-1.82095 -0.60698,-4.24887 -2.42792,-6.0698 -1.82093,-1.82094 -5.81858,-3.64146 -7.63952,-3.64146 -1.82094,0 -5.81859,1.82052 -7.63952,3.64146 -1.82094,1.82093 -3.03489,4.24885 -2.42792,6.0698 0.60698,1.82094 3.0349,3.03489 4.85583,4.85583 1.82094,1.82094 3.0349,4.24885 3.0349,7.28376 0,3.03489 -1.21396,6.67677 -1.82094,7.28375 -0.60698,0.60698 -0.60698,-1.82094 -1.82094,-4.24886 -1.21395,-2.42791 -3.64187,-4.85584 -5.46282,-6.0698 -1.82092,-1.21396 -3.03489,-1.21396 -4.24885,-0.60698 -1.21396,0.60698 -2.42791,1.82094 -2.42791,4.24887 0,2.42791 1.21395,6.06979 0,6.67677 -1.21396,0.60698 -4.85584,-1.82094 -5.46283,-5.46281 -0.60696,-3.64189 1.82095,-8.49772 3.64189,-12.13959 1.82094,-3.64189 3.03489,-6.06981 1.21396,-6.67678 -1.82094,-0.60698 -6.67677,0.60697 -8.49772,1.82093 -1.82094,1.21396 -0.60698,2.42792 -1.21396,3.03491 -0.60698,0.60698 -3.03489,0.60698 -4.24885,-0.60699 -1.21396,-1.21396 -1.21396,-3.64188 -1.82094,-4.85583 -0.60698,-1.21396 -1.82093,-1.21396 -3.03489,0 -1.21397,1.21395 -2.42793,3.64187 -1.21397,6.67678 1.21397,3.03489 4.85584,6.67676 6.0698,9.71167 1.21396,3.0349 0,5.46281 -1.21396,6.06979 -1.21396,0.60698 -2.42791,-0.60698 -3.64187,-2.42791 -1.21397,-1.82094 -2.42793,-4.24887 -4.24887,-4.85584 -1.82093,-0.60699 -4.24885,0.60697 -6.0698,0.60697 -1.82092,0 -3.03489,-1.21396 -3.03489,-2.42792 0,-1.21395 1.21397,-2.42791 2.42793,-3.03489 1.21395,-0.60698 2.42791,-0.60698 3.03489,-2.42792 0.60698,-1.82093 0.60698,-5.46282 1.21396,-7.89073 0.60698,-2.42792 1.82093,-3.64188 0.60698,-3.64188 -1.21396,0 -4.85583,1.21396 -7.28376,1.82094 -2.42792,0.60698 -3.64188,0.60698 -4.85583,1.82094 -1.21396,1.21395 -2.42792,3.64187 -2.42792,5.46282 0,1.82094 1.21396,3.03489 1.21396,4.24885 0,1.21396 -1.21396,2.42792 -2.42792,1.82094 -1.21396,-0.60698 -2.42791,-3.0349 -4.24886,-4.24885 -1.82094,-1.21396 -4.24885,-1.21396 -5.46281,-1.82094 -1.21396,-0.60699 -1.21396,-1.82095 0,-2.42792 1.21396,-0.60699 3.64187,-0.60699 5.46281,-1.82095 1.82095,-1.21395 3.0349,-3.64187 2.42791,-4.24885 -0.60696,-0.60698 -3.03489,0.60698 -4.85583,0 -1.82093,-0.60698 -3.03489,-3.03489 -5.46281,-3.64187 -2.42791,-0.60699 -6.0698,0.60698 -9.71167,0 -3.64188,-0.60699 -7.28376,-3.03491 -8.49772,-4.85585 -1.21396,-1.82093 0,-3.03489 1.82094,-2.42791 1.82094,0.60698 4.24886,3.03489 7.89073,3.03489 3.64188,0 8.49772,-2.42791 13.35355,-1.82093 4.85585,0.60698 9.71168,4.24885 14.56751,3.64188 4.85584,-0.60699 9.71167,-5.46282 13.96053,-6.0698 4.24886,-0.60698 7.89074,3.0349 11.53261,3.64187 3.64188,0.60698 7.28376,-1.82093 9.71167,-4.85583 2.42792,-3.0349 3.64189,-6.67678 4.24886,-10.92563 0.60699,-4.24886 0.60699,-9.1047 0,-13.35355 -0.60697,-4.24886 -1.82094,-7.89074 -1.82094,-10.92563 0,-3.0349 1.21397,-5.46282 1.21397,-8.49772 0,-3.03489 -1.21397,-6.67677 -1.21397,-9.71166 0,-3.03491 1.21397,-5.46282 1.21397,-8.49772 0,-3.03491 -1.21397,-6.67678 -1.21397,-9.71167 0,-3.0349 1.21397,-5.46283 1.21397,-8.49772 0,-3.03488 -1.21397,-6.67677 -1.82095,-10.92562 -0.60698,-4.24885 0.76058,-9.33262 -1.06035,-11.76054 -1.82094,-2.42791 -5.46281,-2.42791 -9.1047,-1.21395 -3.64187,1.21395 -7.28375,3.64187 -9.10469,6.06979 -1.82093,2.42792 -3.20183,10.26819 -3.80882,11.48215 0,0 -1.05509,-0.10191 -1.05509,-0.10191 0,-1.82095 0.85161,-11.14363 2.67254,-13.57155 1.82095,-2.42791 4.35817,-6.28718 6.63909,-7.48261 4.33204,-2.27042 1.36637,-7.83011 -0.40119,-12.17728 -0.51121,-1.2573 -1.82093,-2.42793 -3.03489,-3.03491 -1.21396,-0.60698 -10.58796,3.24466 -15.34224,3.24466 -0.20233,-1.61861 -0.16223,0.31361 -0.36454,-1.305 3.26729,0.0978 15.59008,-5.35541 14.75046,-6.42178 -3.98327,-6.80981 -8.7044,-13.08291 -13.56743,-19.25599 -4.86303,-6.17308 -8.59684,-11.95279 -13.14771,-18.3625 l 1.06213,-0.52372 c 5.1245,6.74217 10.95094,11.85792 16.07365,18.51973 5.12272,6.66182 10.12835,13.40301 14.78453,20.46273 3.0349,4.24885 6.67678,9.1047 9.1047,11.53261 2.42791,2.42792 3.64187,2.42792 5.46281,2.42792 1.82093,0 4.24886,0 5.46282,-1.21396 1.21395,-1.21396 1.21395,-3.64187 0,-5.46281 -1.21396,-1.82095 -2.03021,-3.84075 -3.85115,-5.05471 -1.82093,-1.21396 -3.35722,-2.75024 -4.57118,-4.57118 -1.21395,-1.82095 -2.75025,-3.28186 -3.35724,-5.10279 -0.60697,-1.82094 -1.22026,-7.13887 -1.22026,-8.35283 l 0.38874,-1.24801 c 1.77318,6.92849 2.48021,10.52844 10.18317,15.8318 2.49974,1.72102 5.67409,3.24191 6.14726,2.5257 0,0 0.19259,-15.66983 1.70605,-31.24731 1.50846,-15.52588 2.36299,-19.220655 2.81528,-31.24731 0,0 0.51872,-0.09778 0.66153,-0.09778 z"
       id="Stam"
       style="fill:#808080;stroke:none" />
    <use
       transform="matrix(0.03717428,0.53161685,-0.53161685,0.03717428,239.0045,89.159882)"
       id="Small-leaf-1"
       x="0"
       y="0"
       width="251"
       height="304.20001"
       xlink:href="#Leaf" />
    <use
       x="0"
       y="0"
       xlink:href="#Leaf"
       id="Small-leaf-2"
       transform="matrix(0.04644654,-0.53088736,0.53088736,0.04644654,57.714237,216.97056)" />
    <path
       d="m 168.84968,153.55969 c -1.37107,-8.37628 2.87474,-16.52917 9.93265,-20.84873 17.23949,-10.55091 31.24335,18.41983 43.46167,23.64704 -12.69777,3.9214 -29.65319,31.26957 -45.69537,18.97446 -6.56772,-5.03366 -9.93807,-13.58569 -7.69895,-21.77277 z"
       id="Leaf"
       style="fill:#666666;stroke:none" />
    <use
       transform="matrix(0.52991972,-0.84804772,0.84804772,0.52991972,-38.765139,177.98543)"
       id="Leaf-2"
       x="0"
       y="0"
       width="251"
       height="304.20001"
       xlink:href="#Leaf" />
    <use
       transform="matrix(-0.06842684,-1.3056621,1.3056621,-0.06842684,-63.066565,328.00169)"
       id="Leaf-3"
       x="0"
       y="0"
       width="251"
       height="304.20001"
       xlink:href="#Leaf" />
    <use
       x="0"
       y="0"
       xlink:href="#Leaf"
       id="Small-leaf-1.2"
       transform="matrix(-0.03717428,0.53161685,0.53161685,0.03717428,12.7495,89.159882)" />
    <use
       x="0"
       y="0"
       xlink:href="#Leaf"
       id="Small-leaf-2.2"
       transform="matrix(-0.04644654,-0.53088736,-0.53088736,0.04644654,194.03976,216.97056)" />
    <use
       transform="matrix(-1,0,0,1,251.754,0)"
       id="Leaf-1.2"
       x="0"
       y="0"
       width="251"
       height="304.20001"
       xlink:href="#Leaf" />
    <use
       transform="matrix(-1,0,0,1,251.754,0)"
       id="Leaf-2.2"
       x="0"
       y="0"
       width="251"
       height="304.20001"
       xlink:href="#Leaf-2" />
  </g>
</svg>
