<?xml version="1.0" encoding="UTF-8" standalone="no"?>
<!-- Created with Inkscape (http://www.inkscape.org/) -->
<svg
   xmlns:dc="http://purl.org/dc/elements/1.1/"
   xmlns:cc="http://web.resource.org/cc/"
   xmlns:rdf="http://www.w3.org/1999/02/22-rdf-syntax-ns#"
   xmlns:svg="http://www.w3.org/2000/svg"
   xmlns="http://www.w3.org/2000/svg"
   xmlns:sodipodi="http://sodipodi.sourceforge.net/DTD/sodipodi-0.dtd"
   xmlns:inkscape="http://www.inkscape.org/namespaces/inkscape"
   width="441.50681"
   height="454.06583"
   id="svg8618"
   sodipodi:version="0.32"
   inkscape:version="0.44"
   sodipodi:docbase="D:\Mes documents\Renaud-Notre Lapin\Heraldique"
   sodipodi:docname="Heraldique meuble cerf passant.svg"
   version="1.0">
  <defs
     id="defs8620" />
  <sodipodi:namedview
     id="base"
     pagecolor="#ffffff"
     bordercolor="#666666"
     borderopacity="1.0"
     inkscape:pageopacity="0.0"
     inkscape:pageshadow="2"
     inkscape:zoom="0.7"
     inkscape:cx="406.98475"
     inkscape:cy="205.82551"
     inkscape:document-units="px"
     inkscape:current-layer="layer1"
     inkscape:window-width="1024"
     inkscape:window-height="712"
     inkscape:window-x="-4"
     inkscape:window-y="-4" />
  <metadata
     id="metadata8623">
    <rdf:RDF>
      <cc:Work
         rdf:about="">
        <dc:format>image/svg+xml</dc:format>
        <dc:type
           rdf:resource="http://purl.org/dc/dcmitype/StillImage" />
      </cc:Work>
    </rdf:RDF>
  </metadata>
  <g
     inkscape:label="Calque 1"
     inkscape:groupmode="layer"
     id="layer1"
     transform="translate(-115.4901,-255.9772)">
    <g
       id="g9557">
      <g
         style="fill:#fcef3c;fill-opacity:1"
         transform="translate(28.28427,-6.060915)"
         id="g8660">
        <g
           style="fill:#fcef3c;fill-opacity:1"
           id="g8650">
          <path
             sodipodi:nodetypes="ccccccccccccccccccccccccccccccccccccccsssccccccsccccccccsccccccccccccccccccccc"
             id="path8636"
             d="M 193.57143,324.1479 C 215.14061,326.15162 230.35201,315.41969 235.35714,308.79075 C 234.5281,305.03013 253.21191,308.55194 262.14286,306.29075 C 259.94911,286.78421 262.0955,284.17223 269.28571,275.21932 C 269.28099,281.14884 268.0118,287.33125 272.5,292.36218 C 273.5462,295.41405 273.42026,301.98235 273.57143,307.71932 C 276.99726,304.07213 280.1829,306.66059 283.57143,305.57646 C 290.33476,300.16506 290.41223,314.34718 297.5,318.43361 C 299.07796,336.76612 299.89081,357.85291 299.79287,364.87846 C 303.39826,370.24113 310.31621,375.1054 298.72613,372.47269 C 298.80171,374.37415 298.5638,379.8464 297.5,385.21932 C 296.62316,394.73756 286.75748,416.96786 280.71429,432.36218 C 276.94512,441.29204 285.62328,457.09701 290.35714,456.6479 C 337.96289,463.2659 386.73715,460.60022 425,458.79075 C 443.7783,459.45854 458.24471,462.4091 468.92857,467.36218 C 486.03071,475.67043 484.11518,491.15462 495.71429,505.21932 C 492.6714,505.7335 488.37956,502.50087 483.92857,498.79075 C 485.29142,516.70122 483.30895,531.26637 481.42857,545.93361 C 481.50716,550.8044 482.51407,555.18007 489.64286,556.29075 C 502.05189,557.93046 508.78701,554.70682 518.21429,553.79075 C 526.29453,552.81446 527.55962,556.00299 527.14286,560.21932 C 512.48251,596.04556 506.97299,630.4319 508.21429,655.93361 C 507.77846,657.7501 507.40943,661.98823 501.42857,656.6479 C 500.99663,655.85196 499.83432,655.42122 497.5,655.57647 C 492.61905,662.00495 487.73809,664.92416 482.85714,674.86218 C 481.02749,681.3444 479.67305,688.16606 474.64286,692.36218 C 472.33693,692.83755 472.58092,689.55587 471.07143,688.79075 C 468.45238,692.22741 465.83334,691.94058 463.21429,692.18361 C 454.80495,692.91225 496.16411,649.43032 495.89286,647.36218 C 501.01336,643.68332 501.7078,624.66306 502.85714,619.50504 C 504.75985,603.99111 510.4137,590.85417 506.78572,572.36218 C 496.62744,581.61202 472.73175,583.43382 447.14285,578.07647 C 433.10065,575.79542 434.27078,566.174 432.85714,563.43361 C 431.40988,537.3075 440.83062,543.8267 435.71429,513.43361 C 435.71761,510.76849 425.94908,500.9801 421.42857,502.71932 C 441.753,516.10973 436.41906,528.10177 433.39286,540.57647 C 423.54157,542.38692 409.72752,561.51066 436.78571,584.1479 C 444.91268,592.25778 435.94775,596.11921 433.21429,595.57647 C 392.70578,592.53906 349.90958,591.8008 341.07505,600.93709 C 338.36445,603.74027 333.44144,601.39829 332.62415,599.73608 C 332.0849,598.63933 333.5612,597.6726 332.93031,596.78726 C 331.10793,594.22989 309.90459,606.70847 304.83952,616.46735 C 303.10842,619.80265 299.5738,614.90365 300.48171,612.39135 C 300.15125,613.66042 290.00706,620.08941 291.40657,615.62601 C 308.87406,581.53758 378.44058,590.20055 411.59803,582.49275 C 400.24529,574.6888 384.10245,567.31601 376.95598,561.03058 C 365.94351,552.25538 379.37498,519.45578 406.44928,508.85214 C 399.02585,507.50123 382.99828,519.79748 379.49664,520.55295 C 371.51598,522.27474 390.96522,507.09197 401.78571,502.00504 C 379.64285,509.74313 364.04219,509.30348 335.35714,525.21932 C 318.19271,536.64865 297.99464,538.93552 277.85714,542.71932 C 278.44801,535.33182 281.58409,531.76213 283.92857,527.00504 C 266.96359,549.07712 286.83334,565.05595 290,579.50504 C 290.81153,581.19174 291.99758,583.28743 287.5,584.1479 C 280.37597,585.73107 276.40982,592.14819 273.57143,601.82647 C 267.97626,619.86218 263.17472,637.8979 255.35714,655.93361 C 251.56522,664.72136 256.32133,677.10113 250.65729,678.05047 C 249.25509,678.28549 250.28619,681.48685 249.28571,682.36218 C 246.73921,687.15674 244.75726,685.10089 243.92857,682.36218 C 243.3159,677.81712 241.29075,677.9803 239.28571,678.07647 C 228.17291,688.62933 217.67349,700.16357 208.92857,714.50504 C 203.72302,715.70683 209.40077,705.56826 208.21429,705.21932 C 206.63737,703.93894 198.71402,713.53169 197.85714,707.36218 L 240,668.79075 C 249.3704,647.1279 252.20718,627.48069 260.71429,606.29075 C 261.32993,603.6089 265.41672,585.52006 250.71429,557.36218 C 244.20609,545.31573 241.54808,532.71926 238.21429,520.21932 C 241.62052,534.12298 245.41879,547.73261 250.71429,560.21932 C 223.59095,556.81663 206.99107,501.92686 208.92857,478.07647 C 215.80567,436.36818 234.33395,407.8308 251.78571,378.07647 C 252.75573,375.57316 253.91095,369.77622 248.57143,360.57647 C 244.11098,361.92435 238.81922,354.95915 233.92857,352.00504 C 215.07043,343.94566 212.87847,349.65423 207.85714,351.29075 C 200.13958,355.42293 198.23395,353.16197 195,352.36218 C 192.15221,351.29075 191.53572,347.8979 195.35714,347.00504 C 201.61368,346.07153 203.45415,345.31937 206.68111,343.52027 C 191.81899,343.86681 188.55625,340.79266 181.78571,332.00504 C 175.9588,324.63279 189.30345,320.6017 193.57143,324.1479 z "
             style="opacity:1;color:black;fill:#fcef3c;fill-opacity:1;fill-rule:evenodd;stroke:black;stroke-width:3;stroke-linecap:butt;stroke-linejoin:miter;marker:none;marker-start:none;marker-mid:none;marker-end:none;stroke-miterlimit:4;stroke-dasharray:none;stroke-dashoffset:0;stroke-opacity:0.9959183;visibility:visible;display:inline;overflow:visible" />
          <path
             sodipodi:nodetypes="ccccccccccc"
             id="path8638"
             d="M 88.928572,543.79075 C 101.14058,533.72263 109.08837,524.02531 131.42857,513.07647 C 136.09278,511.30468 138.48413,508.05059 153.57143,513.07647 L 222.5,533.43361 L 237.5,555.21932 C 229.82143,554.56456 150.52589,517.81872 146.42857,520.57647 C 141.89802,523.56075 132.81454,532.00855 134.64286,527.36218 C 137.5335,520.54555 138.62846,515.38645 129.28571,519.86218 C 117.84117,527.72265 108.47309,537.36293 100.35714,548.07647 C 95.983565,554.64029 97.221579,544.14112 96.785714,544.1479 C 95.325822,546.00384 87.274469,547.45611 88.928572,543.79075 z "
             style="opacity:1;color:black;fill:#fcef3c;fill-opacity:1;fill-rule:evenodd;stroke:black;stroke-width:3;stroke-linecap:butt;stroke-linejoin:miter;marker:none;marker-start:none;marker-mid:none;marker-end:none;stroke-miterlimit:4;stroke-dasharray:none;stroke-dashoffset:0;stroke-opacity:0.9959183;visibility:visible;display:inline;overflow:visible" />
          <path
             sodipodi:nodetypes="cccc"
             id="path8640"
             d="M 241.78571,324.32647 C 243.2999,323.86414 246.559,326.41965 246.96429,330.93361 C 246.43172,333.25923 246.76541,335.13272 243.75,335.75504 C 240.38366,335.69552 239.51078,325.10028 241.78571,324.32647 z "
             style="opacity:1;color:black;fill:white;fill-opacity:1;fill-rule:evenodd;stroke:black;stroke-width:3;stroke-linecap:butt;stroke-linejoin:miter;marker:none;marker-start:none;marker-mid:none;marker-end:none;stroke-miterlimit:4;stroke-dasharray:none;stroke-dashoffset:0;stroke-opacity:0.9959183;visibility:visible;display:inline;overflow:visible" />
          <path
             sodipodi:nodetypes="ccccccc"
             id="path8642"
             d="M 277.67857,332.71933 C 284.8259,340.05797 289.7603,341.63712 295.17857,357.00504 C 298.62295,364.55481 303.56813,368.35255 307.85714,373.79075 C 293.55872,373.55268 279.60991,363.11599 275.1405,356.07937 C 279.6054,364.17009 299.49437,375.80385 306.25,373.25504 C 303.15476,368.80836 298.45238,364.49199 295.35714,357.36217 C 288.36045,339.76177 272.65133,331.14134 277.67857,332.71933 z "
             style="opacity:1;color:black;fill:#fcef3c;fill-opacity:1;fill-rule:evenodd;stroke:black;stroke-width:2;stroke-linecap:butt;stroke-linejoin:miter;marker:none;marker-start:none;marker-mid:none;marker-end:none;stroke-miterlimit:4;stroke-dasharray:none;stroke-dashoffset:0;stroke-opacity:0.9959183;visibility:visible;display:inline;overflow:visible" />
          <path
             sodipodi:nodetypes="ccccccccsccccccccccc"
             id="path8644"
             d="M 295.17857,297.00504 C 288.46282,301.40806 287.58746,310.00399 302.5,304.1479 C 324.90781,290.57521 358.15476,288.79076 381.60714,289.86219 C 393.9789,291.97304 430.47619,299.44552 465.17857,295.75504 C 476.90518,290.94942 445.05959,293.96932 431.78572,292.00504 C 435.55952,287.99311 443.48264,287.00702 444.28572,284.68361 C 440.02755,284.3161 434.40045,285.20344 424.46429,290.04075 C 415.39711,292.43474 414.57072,289.33487 409.64286,288.96932 C 407.05924,285.64752 427.13124,279.45934 427.14286,278.61218 C 427.16801,276.77921 414.1253,277.90113 403.39286,286.29075 C 398.66837,286.30607 394.03695,286.50749 388.39286,284.68361 C 389.04654,275.20256 400.58495,273.56441 399.46429,272.18361 C 390.30532,271.42952 388.20601,274.88607 376.78572,282.8979 C 369.57713,282.03609 363.73621,284.33589 357.85714,281.82647 C 361.47255,271.98959 371.09073,268.29532 369.64286,267.36218 C 348.51191,272.89789 356.23895,277.36218 342.14286,282.36218 C 335.32055,284.31279 330.71415,286.05238 323.75,285.3979 C 323.72055,274.22547 337.76034,262.49458 334.28571,263.61218 C 316.1584,271.50387 318.66467,283.87892 313.92857,287.18361 L 295.17857,297.00504 z "
             style="opacity:1;color:black;fill:#fcef3c;fill-opacity:1;fill-rule:evenodd;stroke:black;stroke-width:3;stroke-linecap:butt;stroke-linejoin:miter;marker:none;marker-start:none;marker-mid:none;marker-end:none;stroke-miterlimit:4;stroke-dasharray:none;stroke-dashoffset:0;stroke-opacity:0.9959183;visibility:visible;display:inline;overflow:visible" />
          <path
             sodipodi:nodetypes="ccccccccccccccccccccc"
             id="path8648"
             d="M 291.42857,319.50504 C 297.30317,326.52321 307.03333,328.85611 316.96429,332.71932 C 329.76083,322.25231 334.3091,321.98485 342.85714,320.57647 C 345.63684,322.22604 329.51169,324.54725 325,335.93361 C 337.18312,339.66421 344.68146,339.79114 350.71429,338.79075 C 359.00732,329.86405 367.79762,327.30266 370.71429,326.6479 C 374.26485,327.25732 357.17942,336.37287 358.21429,341.6479 C 364.76191,341.05266 374.89199,342.50454 377.85714,339.86218 C 384.81833,332.50601 391.85825,328.98425 398.21429,328.43361 C 401.42013,329.40305 389.84197,333.11671 387.5,339.50504 C 395.76718,339.65053 400.90817,338.23294 406.42857,337.00504 C 410.50637,331.14288 415.87022,327.46715 422.32142,326.82646 C 424.40875,327.19268 415.51026,331.37215 412.85714,337.00504 L 428.57143,334.50504 C 433.29488,331.35669 437.00189,326.30529 444.46429,326.46933 C 446.76718,327.13192 439.22385,329.43146 437.14286,334.1479 C 453.33334,332.06457 469.97305,329.41482 470.71429,330.57647 C 470.93615,334.10691 443.09781,337.5722 388.57143,346.6479 C 364.42695,350.64232 339.50133,348.12726 313.92857,340.21932 C 303.78738,335.60538 290.62791,331.3268 284.28571,326.29075 C 279.9154,323.44517 281.52739,313.59278 291.42857,319.50504 z "
             style="opacity:1;color:black;fill:#fcef3c;fill-opacity:1;fill-rule:evenodd;stroke:black;stroke-width:3;stroke-linecap:butt;stroke-linejoin:miter;marker:none;marker-start:none;marker-mid:none;marker-end:none;stroke-miterlimit:4;stroke-dasharray:none;stroke-dashoffset:0;stroke-opacity:0.9959183;visibility:visible;display:inline;overflow:visible" />
        </g>
        <path
           style="opacity:1;color:black;fill:#fcef3c;fill-opacity:1;fill-rule:evenodd;stroke:black;stroke-width:2;stroke-linecap:butt;stroke-linejoin:miter;marker:none;marker-start:none;marker-mid:none;marker-end:none;stroke-miterlimit:4;stroke-dasharray:none;stroke-dashoffset:0;stroke-opacity:1;visibility:visible;display:inline;overflow:visible"
           d="M 184.85791,328.08281 C 183.1186,328.31091 184.85791,334.4775 184.85791,328.08281 z "
           id="path8658" />
      </g>
      <path
         sodipodi:nodetypes="ccc"
         id="path9555"
         d="M 270.15266,321.20949 C 272.2171,321.4276 272.98437,324.89869 270.91442,325.64151 C 266.66919,324.88349 267.90586,321.16843 270.15266,321.20949 z "
         style="opacity:1;color:black;fill:#0c0909;fill-opacity:1;fill-rule:evenodd;stroke:black;stroke-width:1.16340446;stroke-linecap:butt;stroke-linejoin:miter;marker:none;marker-start:none;marker-mid:none;marker-end:none;stroke-miterlimit:4;stroke-dasharray:none;stroke-dashoffset:0;stroke-opacity:0.9959183;visibility:visible;display:inline;overflow:visible" />
    </g>
  </g>
</svg>
