<?xml version="1.0" encoding="UTF-8" standalone="no"?>
<!-- Created with Inkscape (http://www.inkscape.org/) -->

<svg
   xmlns:dc="http://purl.org/dc/elements/1.1/"
   xmlns:cc="http://creativecommons.org/ns#"
   xmlns:rdf="http://www.w3.org/1999/02/22-rdf-syntax-ns#"
   xmlns:svg="http://www.w3.org/2000/svg"
   xmlns="http://www.w3.org/2000/svg"
   xmlns:sodipodi="http://sodipodi.sourceforge.net/DTD/sodipodi-0.dtd"
   xmlns:inkscape="http://www.inkscape.org/namespaces/inkscape"
   width="400"
   height="366.44733"
   id="svg2"
   version="1.1"
   inkscape:version="0.92.4 (5da689c313, 2019-01-14)"
   sodipodi:docname="cerf couché.svg">
  <defs
     id="defs4">
    <inkscape:perspective
       id="perspective2969"
       inkscape:persp3d-origin="396.85039 : 374.17322 : 1"
       inkscape:vp_z="793.70078 : 561.25983 : 1"
       inkscape:vp_y="0 : 1066.6667 : 0"
       inkscape:vp_x="0 : 561.25983 : 1"
       sodipodi:type="inkscape:persp3d" />
    <inkscape:perspective
       id="perspective17598"
       inkscape:persp3d-origin="86.895378 : 86.329834 : 1"
       inkscape:vp_z="173.79075 : 129.49475 : 1"
       inkscape:vp_y="0 : 1066.6667 : 0"
       inkscape:vp_x="0 : 129.49475 : 1"
       sodipodi:type="inkscape:persp3d" />
  </defs>
  <sodipodi:namedview
     id="base"
     pagecolor="#ffffff"
     bordercolor="#666666"
     borderopacity="1.0"
     inkscape:pageopacity="1"
     inkscape:pageshadow="2"
     inkscape:zoom="2.2377022"
     inkscape:cx="200"
     inkscape:cy="183.22366"
     inkscape:document-units="px"
     inkscape:current-layer="layer1"
     showgrid="false"
     inkscape:window-width="1920"
     inkscape:window-height="1017"
     inkscape:window-x="-8"
     inkscape:window-y="-8"
     inkscape:window-maximized="1"
     units="px"
     fit-margin-top="0"
     fit-margin-left="0"
     fit-margin-right="0"
     fit-margin-bottom="0" />
  <metadata
     id="metadata7">
    <rdf:RDF>
      <cc:Work
         rdf:about="">
        <dc:format>image/svg+xml</dc:format>
        <dc:type
           rdf:resource="http://purl.org/dc/dcmitype/StillImage" />
        <dc:title></dc:title>
      </cc:Work>
    </rdf:RDF>
  </metadata>
  <g
     inkscape:label="Calque 1"
     inkscape:groupmode="layer"
     id="layer1"
     transform="translate(-66.576921,-343.84842)">
    <g
       id="g15692"
       transform="matrix(0.66271285,0,0,0.66271285,22.45554,239.57363)">
      <g
         style="display:inline;fill:#fcef3c;fill-opacity:1;stroke:#000000;stroke-width:0.92215508;stroke-miterlimit:4;stroke-dasharray:none;stroke-opacity:1"
         id="g4462"
         transform="matrix(3.2532488,0,0,3.2532488,-124.5938,-332.43531)">
        <path
           style="fill:#fcef3c;fill-opacity:1;fill-rule:evenodd;stroke:#000000;stroke-width:0.92215508;stroke-miterlimit:4;stroke-dasharray:none;stroke-opacity:1"
           d="m 131.42154,202.15742 c 0.46715,-0.63818 0.63645,-4.01796 -3.44097,-5.51024 -2.33736,-0.5098 -4.28217,-1.63286 -5.89631,-4.14846 -1.74218,-2.25884 -3.14311,-4.271 -3.86421,-7.93459 -0.58937,-2.17184 -0.0519,-4.27313 1.63636,-2.36653 0.64492,0.93473 1.11419,1.87741 1.70938,2.94265 1.65752,2.72726 3.6473,5.49962 6.02804,7.67359 1.36602,1.48962 3.36055,4.35163 8.6511,3.0254 2.50666,-0.46842 4.91861,-2.71453 6.31955,-5.01476 1.23164,-2.38509 0.80628,-5.02112 0.89516,-7.40622 -0.29574,-2.94052 -0.29997,-5.71766 -1.87232,-8.10276 -0.42378,-1.70341 0.36981,-2.02648 1.55806,-0.783 2.03951,2.00155 2.56062,3.55165 3.24258,5.76911 0.50842,4.13202 0.80786,8.51496 0.34071,12.86023 1.01895,0.0414 2.10405,0.25092 3.12512,0.25092 3.99436,0.21114 7.42739,-0.42492 10.86995,-1.53365 3.22829,-0.97823 5.09056,-1.78618 6.83432,-3.49171 1.57077,-1.31987 3.05053,-3.69489 3.90019,-5.73994 0.67772,-2.13047 0.76872,-4.22538 1.27925,-6.52773 0.38198,-1.57715 1.86175,-3.03389 2.96324,-0.39787 0.30791,2.21534 -0.0804,3.52513 -0.84543,5.86832 -0.46663,1.3204 -3.25686,7.7399 -5.33763,11.0226 1.14064,1.26417 5.78627,0.28806 7.52844,-0.52042 1.40094,-0.89282 3.42034,-2.12197 4.86466,-3.05829 1.27343,-1.19149 2.34582,-2.46627 3.65206,-4.55694 1.35967,-2.79358 1.82894,-4.84288 0.51054,-9.48894 -1.27344,-4.38877 -3.22829,-8.01735 -4.80117,-12.15149 -0.1693,-2.02648 0.40737,-3.72406 3.26532,-1.3326 0.97769,2.21534 2.00036,4.09488 2.80875,6.4386 1.61415,3.11029 2.50454,6.51287 3.77956,9.66719 1.02531,2.94212 3.71397,2.86573 5.44556,-0.45835 1.5295,-3.0254 2.16595,-6.89641 2.37651,-9.87832 0.0418,-5.32562 0.55604,-9.60034 1.19461,-14.37319 0.7957,-1.42756 1.20889,-3.39622 2.96376,-0.0493 0.85336,3.57659 0.83061,5.854 0.43171,11.01199 -0.93378,4.00522 -1.87233,7.50542 -2.21092,11.8942 -1.05017,3.30762 0.69835,4.15111 2.48391,3.46889 2.08077,-1.10661 2.96165,-2.33523 3.93669,-3.57022 2.12469,-2.85352 3.27802,-5.54737 4.93925,-8.69903 1.03113,-0.95967 2.3707,-0.78354 1.85169,2.66042 -1.65752,4.51556 -3.87056,8.1521 -8.24795,12.37111 -2.08289,1.80739 -0.77665,3.95589 1.81677,3.16228 3.14311,-0.76657 5.21806,-2.25832 7.72684,-3.40843 0.97769,-0.5533 2.05008,-1.32411 2.86853,0.52413 -0.12591,1.53366 -0.64068,2.07211 -3.83564,3.72566 -7.05336,2.47051 -11.30854,2.21746 -18.44654,2.98402 -5.86298,1.15011 -9.42986,1.96071 -15.6362,5.02961 -3.78168,1.40475 -6.12751,3.27845 -10.97364,4.2169 -3.61027,-0.0414 -9.72561,-1.23711 -14.69766,-1.45037 -5.94763,-0.42493 -8.40085,-0.3236 -15.71027,5.34207 -3.21982,1.93948 -4.97046,1.69493 -4.85883,-0.2053 l -3.13518,0.25092"
           id="path2395"
           inkscape:connector-curvature="0" />
      </g>
      <path
         sodipodi:nodetypes="cccccccccccccccccccccc"
         style="display:inline;fill:#fcef3c;fill-opacity:1;fill-rule:evenodd;stroke:#000000;stroke-width:3;stroke-miterlimit:4;stroke-dasharray:none;stroke-opacity:1"
         d="m 288.14413,674.8601 c -14.35045,-1.48341 -55.01798,-7.99176 -63.52738,-24.5718 -16.67521,-19.7066 -29.85867,-32.12118 -44.7195,-38.30528 -21.99684,-2.72522 -38.47621,9.08475 -51.52277,22.27533 -6.57378,7.43623 -14.30197,16.51906 -12.58742,28.8386 3.18748,6.30474 2.45471,4.80422 -5.31802,7.47749 -10.24082,5.04751 -11.1568,12.58856 -10.2112,17.41016 0.15069,1.53809 1.07248,3.17412 -0.689845,5.66404 -10.290339,7.93152 -17.626842,12.86823 -28.365044,14.79968 -3.636201,-0.34348 -2.482509,-3.35667 -3.092468,-5.5617 l 2.476224,-15.09216 c 4.018402,-3.47589 5.560212,-3.98802 9.116969,-5.43617 -1.365503,-1.84369 -3.986666,-1.21942 -8.289438,1.46002 3.640583,-13.39155 11.667735,-28.81841 19.401345,-41.41804 7.883064,-9.27123 17.633367,-12.80913 26.829587,-20.97045 6.40153,-5.31239 11.36886,-12.59149 19.71538,-18.52811 l 28.28436,-20.07156 c 11.07454,-4.89497 17.99424,-2.91817 32.70026,4.09919 17.31351,8.14192 43.63947,16.50229 61.48159,23.55355 1.64323,0.45531 3.48794,12.40207 17.15228,12.24214 l 14.86111,49.67106 z"
         id="path3140"
         inkscape:connector-curvature="0" />
      <path
         sodipodi:nodetypes="cccccccscccccccc"
         style="display:inline;fill:#fcef3c;fill-opacity:1;stroke:#000000;stroke-width:3;stroke-miterlimit:4;stroke-dasharray:none;stroke-opacity:1"
         d="m 267.06881,643.11095 c -1.2771,-8.25291 -6.58855,-24.08049 -9.11691,-36.02668 15.78008,-4.52549 26.08257,-166.13382 127.94305,-98.25826 9.94994,13.16635 23.69156,17.75704 40.97702,20.80485 24.8826,2.49381 48.66365,6.35623 74.7958,7.88015 22.25443,0 44.65685,0.25701 67.05066,0.39865 23.4988,0.82841 40.86516,6.52537 58.70139,17.34629 8.84842,5.68144 16.61939,11.27137 24.08914,20.28365 7.46289,9.00711 13.0222,18.34383 16.48512,30.12779 1.9294,8.87248 -0.65231,14.40031 -3.28048,21.89039 -1.46643,3.20315 -3.47671,5.26551 -5.7211,6.49947 0.79344,-11.00216 -2.7108,-15.80858 -7.02571,-18.02801 -17.12605,48.9154 -24.1645,52.98478 -96.71798,43.56927 -83.64333,-18.6131 -160.03312,47.40619 -283.66558,-6.11336 l -4.51542,-10.37421 z"
         id="path3156"
         inkscape:connector-curvature="0" />
      <path
         sodipodi:nodetypes="cccccccccccccccccccccccccccccccccccccccscscsccccccccccccccccccccc"
         style="display:inline;fill:#fcef3c;fill-opacity:1;fill-rule:evenodd;stroke:#000000;stroke-width:3;stroke-miterlimit:4;stroke-dasharray:none;stroke-opacity:1"
         d="m 255.13364,612.85352 c 0.0983,-17.07712 -5.67399,-31.51152 12.74412,-59.52424 -13.77605,17.27729 -28.23195,12.22233 -30.92037,18.56473 -3.89684,-34.61235 5.53875,-30.56772 28.86188,-64.50278 -17.57461,12.22229 -30.7517,12.49325 -35.98227,22.11301 8.84916,-39.86381 3.06127,-49.44645 31.47043,-64.91444 -5.85705,0.44527 -29.73551,8.68353 -37.6218,18.1894 -7.74085,-6.06028 0.18315,-18.4794 4.56447,-24.80189 6.07736,-7.90257 10.66421,-11.53544 18.54361,-19.29473 8.51109,-10.19965 17.21148,-22.36846 23.51087,-35.78333 10.10482,2.02095 13.34574,-1.19427 13.0497,-5.59685 -5.39923,3.24973 -8.12896,3.64838 -11.25455,2.09688 -4.7934,-2.50764 -9.59367,-5.01524 -14.39566,-7.52978 -11.05838,-4.71324 -23.12016,-8.99331 -37.22494,-8.8518 -8.56613,-0.82837 -19.23552,1.5032 -25.17862,0.67483 -4.35106,0 -5.23747,-5.0239 -6.4956,-9.75611 4.64021,4.00563 16.74844,5.3 19.0875,0.38486 -8.75375,1.03893 -13.07728,0.36414 -18.56255,-3.6139 -2.2048,-0.82838 -5.99649,-0.0605 -5.99649,-2.97188 -1.37863,-4.4371 -0.58519,-5.77806 0.51636,-10.4913 3.45605,-6.65306 5.57479,-10.65696 19.48507,-12.02557 23.36285,-0.271 38.81184,-5.21889 55.53966,-10.34806 12.02218,-3.18933 18.97389,-8.2857 38.05452,-7.17426 1.73317,-3.8417 6.97064,-4.32839 10.78296,-3.28943 0.82788,8.31849 7.93447,5.37251 16.09616,1.86044 3.73144,3.60007 9.64012,3.66738 11.85181,8.23911 -3.95865,2.74926 -4.83989,3.96942 -9.00161,6.51154 5.45261,1.94157 7.79163,-1.38237 15.89993,-8.76373 0.97591,-0.42458 3.68499,-2.72336 4.37689,-3.27736 5.80197,-3.73987 10.15993,-8.58773 23.98243,-10.39468 7.32176,-1.38237 15.301,-1.5843 27.60544,2.56805 -11.46968,10.39637 -14.45587,20.58223 -31.04774,27.37163 -4.79336,2.75615 -10.41462,4.68562 -16.59355,6.0473 -5.62643,0.9561 -10.21842,1.91395 -10.94474,4.79952 8.47146,-1.79312 10.69691,-1.92085 12.02736,0.43838 3.79166,16.97522 8.30967,35.89202 10.06526,53.35913 2.07053,17.87784 1.79514,35.52099 4.55757,53.26421 1.79518,8.31159 9.66101,34.88101 18.09981,43.33412 0.73302,21.02191 10.10807,36.34936 -9.49269,63.18521 -2.95753,-27.95559 -11.71446,-42.12979 -16.09145,-39.951 -4.37698,2.17877 2.60371,37.34974 -18.7961,56.01987 2.21706,-28.02686 -8.91751,-44.10696 -15.17308,-41.37462 -6.25558,2.73227 -1.728,34.47517 -31.52291,60.22785 -0.27392,-44.56124 2.50819,-39.71068 -5.18724,-32.35681 -10.55393,10.08556 -23.93327,27.40729 -33.28985,37.33848 z M 369.1551,337.88389 c -0.093,-0.0882 2.89152,-2.54216 4.9156,-2.67678 11.35611,-5.58133 11.26144,-10.39637 0.51118,-7.49698 -5.43881,0.78179 -24.71565,15.57386 -28.97721,16.89412 -3.47671,3.19622 4.63848,2.39371 6.0636,1.74654 -1.77452,0.90951 -3.50941,2.08306 -5.78821,2.39371 -6.07736,1.80006 -4.97585,-4.29559 -2.20479,-5.54162 8.98095,-2.07619 19.07373,-12.19643 30.1338,-17.32559 8.43018,-2.90629 12.99465,-0.13469 10.36648,4.29386 -2.20479,4.15235 -7.32176,5.40703 -11.33546,6.51154 -2.53526,1.32889 -3.1738,2.02957 -3.47499,3.66739 -0.68676,-0.90951 -1.0155,-0.80079 -0.203,-2.46619 z m -166.4055,17.89163 c 2.44059,-2.73026 2.38037,-4.50442 0.15486,-4.0108 -3.759,2.49381 -7.23399,4.82541 -10.52999,7.38826 -2.3115,-0.74903 -1.93627,2.81136 -1.14283,3.82959 -2.09636,0.45045 -2.40617,-1.62571 -1.16177,-4.94965 4.69873,-1.93465 8.01366,-4.98766 12.16162,-7.48319 6.49388,-1.23916 3.59032,4.15407 0.51805,5.22579 z"
         id="path3136"
         inkscape:connector-curvature="0" />
      <path
         sodipodi:nodetypes="cszsc"
         id="path5096"
         d="m 264.82471,353.04247 c 3.74801,-12.97266 3.41413,-13.18663 12.36713,-13.18038 8.95304,0.007 27.193,0.23261 27.193,0.23261 0,0 -13.2905,4.16747 -19.751,8.26429 -6.46049,4.09682 -4.90713,4.96615 -19.80913,4.68344 z"
         style="display:inline;fill:#fcef3c;fill-opacity:1;stroke:#000000;stroke-width:3;stroke-linecap:butt;stroke-linejoin:miter;stroke-miterlimit:4;stroke-dasharray:none;stroke-opacity:1"
         inkscape:connector-curvature="0" />
      <ellipse
         style="fill:#000000;fill-opacity:1;stroke:#000000;stroke-width:3;stroke-miterlimit:4;stroke-dasharray:none;stroke-opacity:1"
         id="path5098"
         cx="278.71857"
         cy="345.01498"
         rx="3.8961742"
         ry="4.0614662" />
      <path
         sodipodi:nodetypes="ccccccccccccccccc"
         inkscape:connector-curvature="0"
         id="path22085"
         d="m 336.51235,620.25072 c 1.14383,5.55659 3.40842,10.26581 0.17863,11.44878 -5.49591,5.13821 -22.38419,5.43081 -46.81063,14.30091 -20.27842,9.87935 -48.05025,20.55701 -61.28751,27.15758 -7.12953,6.91497 -15.26746,25.80104 -1.96813,32.866 43.74669,2.37737 99.54805,-1.22301 140.39376,2.62419 6.92102,-5.09476 15.59727,-5.2386 19.89594,-5.08865 18.7313,5.08744 32.88154,4.44253 40.52487,-7.1298 l -18.73646,-6 18.3067,1.54104 c -4.00743,-4.34801 -14.88102,-17.63215 -33.24445,-14.29612 -10.59881,3.47427 -12.87622,6.73546 -17.23394,7.62018 -6.12308,0.83949 -12.5742,-4.70166 -18.69729,-8.20057 -24.40646,-1.86175 -70.24331,9.00453 -105.29532,3.60825 22.79303,-0.14227 40.77728,-0.25232 73.79037,-5.34276 46.61894,-3.0367 71.48014,-10.30831 74.37484,-14.50342 4.21068,-7.82783 3.39949,-20.92055 -7.68274,-33.62154"
         style="fill:#fcef3c;fill-opacity:1;stroke:#000000;stroke-width:3.19500852;stroke-linecap:butt;stroke-linejoin:miter;stroke-miterlimit:4;stroke-dasharray:none;stroke-opacity:1" />
      <path
         sodipodi:nodetypes="ccccccccccccccc"
         inkscape:connector-curvature="0"
         id="path22087"
         d="m 536.68085,565.7898 c -22.72471,52.47479 9.87125,89.83493 72.36988,97.27579 -28.49438,1.65067 -89.19686,-6.72173 -93.87691,-1.55208 -1.86659,5.07713 -11.6237,7.28955 -7.1477,7.39204 l -13.55208,-1.89249 c -11.87843,-1.0049 -19.40517,8.34332 -23.33783,21.69773 l 19.02581,-4.1052 -17.33708,8.88758 c 20.23521,11.07458 30.64853,2.80482 39.5663,-1.59116 l 9.39934,2.55964 c 3.14729,1.82109 28.35646,-12.00803 54.6733,-7.80946 22.01678,2.73952 42.28192,1.82544 52.29896,2.28555 25.15798,3.07465 28.55595,1.3093 32.03219,0 8.68516,-4.85075 5.20515,-12.50885 3.69603,-19.71212 -8.11219,-15.15251 -8.46428,-37.68351 -14.16809,-53.59232"
         style="fill:#fcef3c;fill-opacity:1;stroke:#000000;stroke-width:3;stroke-linecap:butt;stroke-linejoin:miter;stroke-miterlimit:4;stroke-dasharray:none;stroke-opacity:1" />
      <path
         sodipodi:nodetypes="cc"
         inkscape:connector-curvature="0"
         id="path22089"
         d="m 396.10553,683.02054 c -3.50893,9.06397 -0.69083,14.33172 4.68368,18.06562"
         style="fill:none;stroke:#000000;stroke-width:3;stroke-linecap:butt;stroke-linejoin:miter;stroke-miterlimit:4;stroke-dasharray:none;stroke-opacity:1" />
      <path
         sodipodi:nodetypes="cc"
         inkscape:connector-curvature="0"
         id="path22091"
         d="m 489.77914,672.98408 c 7.40291,5.30846 12.58396,10.98724 9.36736,18.06562"
         style="fill:none;stroke:#000000;stroke-width:3;stroke-linecap:butt;stroke-linejoin:miter;stroke-miterlimit:4;stroke-dasharray:none;stroke-opacity:1" />
    </g>
  </g>
</svg>
