<?xml version="1.0" encoding="UTF-8" standalone="no"?>
<!-- Created with Inkscape (http://www.inkscape.org/) -->

<svg
   xmlns:dc="http://purl.org/dc/elements/1.1/"
   xmlns:cc="http://creativecommons.org/ns#"
   xmlns:rdf="http://www.w3.org/1999/02/22-rdf-syntax-ns#"
   xmlns:svg="http://www.w3.org/2000/svg"
   xmlns="http://www.w3.org/2000/svg"
   xmlns:sodipodi="http://sodipodi.sourceforge.net/DTD/sodipodi-0.dtd"
   xmlns:inkscape="http://www.inkscape.org/namespaces/inkscape"
   width="183.00322"
   height="196.03435"
   id="svg5124"
   version="1.1"
   inkscape:version="0.48.4 r9939"
   sodipodi:docname="Lion.svg">
  <sodipodi:namedview
     id="base"
     pagecolor="#ffffff"
     bordercolor="#666666"
     borderopacity="1.0"
     inkscape:pageopacity="0.0"
     inkscape:pageshadow="2"
     inkscape:zoom="0.24748738"
     inkscape:cx="1003.0373"
     inkscape:cy="-516.03902"
     inkscape:document-units="px"
     inkscape:current-layer="layer1"
     showgrid="false"
     fit-margin-top="0"
     fit-margin-left="0"
     fit-margin-right="0"
     fit-margin-bottom="0"
     inkscape:window-width="1920"
     inkscape:window-height="1030"
     inkscape:window-x="0"
     inkscape:window-y="30"
     inkscape:window-maximized="1"
     showguides="false" />
  <defs
     id="defs5126" />
  <metadata
     id="metadata5129">
    <rdf:RDF>
      <cc:Work
         rdf:about="">
        <dc:format>image/svg+xml</dc:format>
        <dc:type
           rdf:resource="http://purl.org/dc/dcmitype/StillImage" />
        <dc:title></dc:title>
      </cc:Work>
    </rdf:RDF>
  </metadata>
  <g
     inkscape:label="Layer 1"
     inkscape:groupmode="layer"
     id="layer1"
     transform="translate(860.83954,-398.71777)">
    <g
       id="g5519">
      <path
         id="path4735"
         style="fill:#eac102;fill-opacity:1;stroke:#000000;stroke-width:1;stroke-miterlimit:3.98457432;stroke-opacity:1;stroke-dasharray:none"
         d="m -697.56378,421.85206 c 0.75393,-5.5309 -1.65864,-7.70975 -7.69005,-6.70413 -14.32461,4.19008 -29.55394,6.20132 -45.38641,5.86612 2.111,5.69851 4.37278,12.40265 6.48378,20.28001 1.80943,5.5309 4.22199,10.3914 7.08691,14.7491 6.63456,-2.51407 11.91205,-7.87736 15.98325,-15.92233 0.45236,-1.84364 1.96021,-3.01686 4.222,-3.85487 4.82513,-1.34083 9.1979,-3.35207 13.41989,-6.03373 l 0.15078,0 c 3.31729,-2.17884 5.12671,-5.0281 5.72985,-8.38017 z"
         inkscape:connector-curvature="0" />
      <path
         id="path4737"
         style="fill:#eac102;fill-opacity:1;stroke:#000000;stroke-width:1;stroke-miterlimit:3.98457432;stroke-dasharray:none"
         d="m -724.10201,469.45142 c -5.1267,-3.51967 -9.49947,-8.04496 -12.96754,-13.40826 -2.86492,-4.3577 -5.27748,-9.2182 -7.08691,-14.7491 -2.111,-7.87736 -4.37278,-14.5815 -6.48378,-20.28001 -5.72983,-14.24629 -11.76125,-21.45324 -18.39581,-21.78844 -6.63456,0.3352 -12.66597,7.54215 -18.39581,21.78844 -2.111,5.69851 -4.37278,12.40265 -6.48377,20.28001 -1.80943,5.5309 -4.222,10.3914 -6.93614,14.7491 -3.61884,5.3633 -7.99162,9.88859 -12.96754,13.40826 -1.35706,7.37455 0.45236,11.39703 5.27749,12.23505 8.2932,-9.88861 15.68168,-21.95605 22.31624,-36.36993 -5.72984,15.75472 -12.66597,28.99538 -20.6576,39.55439 4.37278,0.50282 7.2377,2.84926 8.44398,7.03935 4.37278,-8.21257 8.2932,-16.76034 11.61048,-25.97853 0.60314,-1.67603 1.0555,-3.18446 1.50786,-4.6929 0.15078,-0.3352 0.30156,-0.67041 0.30156,-1.00561 0.75393,-2.17884 1.35707,-4.35769 1.96021,-6.53654 1.65864,-7.87736 2.41256,-15.92232 2.111,-23.96728 0.30156,8.04496 -0.45236,16.08992 -2.111,23.96728 -0.60314,2.17885 -1.20628,4.3577 -1.96021,6.53654 0,0.3352 -0.15078,0.67041 -0.30156,1.00561 -0.45236,1.50844 -0.90472,3.01687 -1.50786,4.6929 -1.80942,11.73224 -5.1267,21.78844 -9.80105,29.83341 -0.30157,0.5028 -0.60314,1.00561 -0.90472,1.50842 0.15079,6.36893 3.01571,8.71537 8.44399,6.87175 3.92042,-14.41391 6.93612,-29.163 9.19791,-44.41491 1.9602,-11.39702 3.0157,-23.12926 3.31728,-35.0291 l 0.45235,13.40827 c -0.90471,23.12926 -3.61885,45.75572 -8.59477,67.87936 2.41256,4.69289 5.72984,5.86613 9.95184,3.51968 0.30157,-3.85488 0.45236,-7.70976 0.75392,-11.56463 1.0555,-26.81654 2.71414,-53.63308 4.97592,-80.44962 2.26178,26.81654 3.92042,53.63308 5.12671,80.44962 0.15077,3.85487 0.45235,7.70975 0.60314,11.56463 4.37278,2.34645 7.69005,1.17321 9.95182,-3.51968 -4.82512,-22.12364 -7.69005,-44.7501 -8.59476,-67.87936 l 0.60315,-13.40827 c 0.15079,11.89984 1.35706,23.63208 3.31728,35.0291 2.11099,15.25191 5.27749,30.001 9.04712,44.41491 5.57906,1.84362 8.29319,-0.50282 8.44398,-6.87175 -0.30157,-0.50281 -0.60314,-1.00562 -0.90472,-1.50842 -4.67434,-8.04497 -7.84083,-18.10117 -9.80104,-29.83341 -0.45237,-1.67603 -1.0555,-3.18446 -1.50785,-4.6929 -0.15079,-0.3352 -0.15079,-0.67041 -0.30157,-1.00561 -0.60315,-2.17884 -1.35708,-4.35769 -1.80943,-6.53654 -1.80943,-7.87736 -2.56335,-15.92232 -2.111,-23.96728 -0.45235,8.04496 0.30157,16.08992 2.111,23.96728 0.45235,2.17885 1.20628,4.3577 1.80943,6.53654 0.15078,0.3352 0.15078,0.67041 0.30157,1.00561 0.45235,1.50844 1.05548,3.01687 1.50785,4.6929 3.31727,9.21819 7.2377,17.76596 11.76126,25.97853 1.0555,-4.19009 3.92042,-6.53653 8.44397,-7.03935 -8.1424,-10.55901 -14.92774,-23.79967 -20.80837,-39.55439 6.63455,14.41388 14.02304,26.48132 22.46701,36.36993 4.67436,-0.83802 6.48377,-4.8605 5.27749,-12.23505 z"
         inkscape:connector-curvature="0" />
      <path
         id="path4739"
         style="fill:#eac102;fill-opacity:1;stroke:#000000;stroke-width:1;stroke-miterlimit:3.98457432;stroke-dasharray:none"
         d="m -724.10201,469.45142 c 1.20628,7.37455 -0.60313,11.39703 -5.27749,12.23505 7.3885,8.71538 15.5309,15.58711 24.27646,20.61521 2.86492,-2.34644 3.31727,-5.86611 1.50784,-10.55901 2.41258,-3.35207 3.01571,-7.70975 1.65864,-12.90546 -8.59476,-1.84364 -15.98325,-4.86049 -22.16545,-9.38579 z"
         inkscape:connector-curvature="0" />
      <path
         id="path4741"
         style="fill:#eac102;fill-opacity:1;stroke:#000000;stroke-width:1;stroke-miterlimit:3.98457432;stroke-dasharray:none"
         d="m -692.73865,480.17804 c -3.16649,-0.33521 -6.33298,-0.83802 -9.19791,-1.34083 1.35707,5.19571 0.75394,9.55339 -1.65864,12.90546 1.80943,4.6929 1.35708,8.21257 -1.50784,10.55901 5.57905,3.18446 11.3089,5.53091 17.49109,7.37455 1.20628,0.1676 2.26179,0.1676 3.1665,0.1676 4.37277,-0.3352 6.33299,-3.35206 5.88063,-8.88298 l 0,0 c -0.30157,-2.34644 -1.65864,-3.68727 -4.22199,-4.35769 -2.26178,-1.00561 -2.41256,-1.67603 -0.30157,-2.34644 1.96021,-0.83802 3.16649,-2.34644 3.16649,-4.69289 0,-5.69852 -4.22199,-8.71538 -12.81676,-9.38579 z"
         inkscape:connector-curvature="0" />
      <path
         id="path4743"
         style="fill:#eac102;fill-opacity:1;stroke:#000000;stroke-width:1;stroke-miterlimit:3.98457432;stroke-opacity:1;stroke-dasharray:none"
         d="m -684.44545,516.71557 c -2.26179,-2.17884 -2.26179,-4.35769 0,-6.87174 -0.90471,0 -1.96022,0 -3.16649,-0.1676 -6.1822,-1.84364 -11.91205,-4.19009 -17.4911,-7.37455 -8.74556,-5.0281 -16.88796,-11.89983 -24.27646,-20.61521 -8.44397,-9.88861 -15.83246,-21.95605 -22.46701,-36.36993 5.88063,15.75472 12.66597,28.99538 20.80838,39.55439 1.65863,2.17885 3.46806,4.35769 5.42828,6.53654 5.27749,6.70413 11.45969,12.06743 18.5466,16.42512 6.78533,4.02249 14.3246,6.87174 22.6178,8.88298 z"
         inkscape:connector-curvature="0" />
      <path
         id="path4745"
         style="fill:#eac102;fill-opacity:1;stroke:#000000;stroke-width:1;stroke-miterlimit:3.98457432;stroke-dasharray:none"
         d="m -707.06325,507.83259 c -7.08691,-4.35769 -13.26911,-9.72099 -18.5466,-16.42512 -1.96022,-2.17885 -3.76965,-4.35769 -5.42829,-6.53654 -4.52355,0.50282 -7.38847,2.84926 -8.44397,7.03935 3.76963,6.87173 8.1424,13.40826 12.96754,19.44199 3.61884,4.69289 7.08691,8.88298 10.40419,12.57025 3.31728,-0.33521 5.27748,-2.84926 5.42827,-7.54215 3.31728,-1.67603 4.52357,-4.52529 3.61886,-8.54778 z"
         inkscape:connector-curvature="0" />
      <path
         id="path4747"
         style="fill:#eac102;fill-opacity:1;stroke:#000000;stroke-width:1;stroke-miterlimit:3.98457432;stroke-dasharray:none"
         d="m -734.05384,546.04616 c 4.0712,1.00563 7.84084,-0.83801 11.3089,-6.03372 5.88064,-0.67041 7.69006,-4.02248 5.27749,-10.0562 -8.59477,-9.88859 -16.13403,-20.78281 -23.07016,-32.68266 -0.15079,6.36893 -2.86492,8.71537 -8.44398,6.87175 1.05549,3.51966 1.96021,7.20694 3.01571,10.89421 3.0157,11.06182 6.93612,21.45323 11.91204,31.00662 z"
         inkscape:connector-curvature="0" />
      <path
         id="path4749"
         style="fill:#eac102;fill-opacity:1;stroke:#000000;stroke-width:1;stroke-miterlimit:3.98457432;stroke-dasharray:none"
         d="m -722.74494,540.01244 c -3.46806,5.19571 -7.2377,7.03935 -11.3089,6.03372 4.82513,9.55339 10.70576,18.26877 17.64189,26.31374 3.31729,3.18445 6.93613,3.51966 10.70576,1.17321 3.31728,-1.84363 4.07121,-4.69289 2.56335,-8.54777 -0.45236,-1.84362 0.30158,-2.34645 2.26178,-1.50842 1.96022,1.50842 3.92042,1.34081 5.88064,-0.50281 2.86491,-4.8605 2.56335,-8.88298 -0.90472,-11.73224 -0.15078,0.1676 -0.15078,0.3352 0,0.50281 -7.69006,-6.70414 -14.92776,-13.91108 -21.56231,-21.78844 2.41257,6.03372 0.60315,9.38579 -5.27749,10.0562 z"
         inkscape:connector-curvature="0" />
      <path
         id="path4751"
         style="fill:#eac102;fill-opacity:1;stroke:#000000;stroke-width:1;stroke-miterlimit:3.98457432;stroke-opacity:1;stroke-dasharray:none"
         d="m -690.02451,542.69409 c -1.05549,-0.1676 -2.111,-0.50281 -3.46807,-0.83801 -6.18219,-2.01124 -13.72147,-8.04497 -22.6178,-17.93356 -3.31728,-3.68727 -6.78535,-7.87736 -10.40419,-12.57025 -4.82514,-6.03373 -9.19791,-12.57026 -12.96754,-19.44199 -4.52356,-8.21257 -8.44399,-16.76034 -11.76126,-25.97853 1.96021,11.73224 5.1267,21.78844 9.80105,29.83341 0.30157,0.5028 0.60314,1.00561 0.90471,1.50842 6.93613,11.89985 14.47539,22.79407 23.07016,32.68266 6.63455,7.87736 13.87225,15.0843 21.56231,21.78844 -0.15078,-0.16761 -0.15078,-0.33521 0,-0.50281 0.15079,-3.68728 2.111,-6.53653 5.88063,-8.54778 z"
         inkscape:connector-curvature="0" />
      <path
         id="path4753"
         style="fill:#eac102;fill-opacity:1;stroke:#000000;stroke-width:1;stroke-miterlimit:3.98457432;stroke-dasharray:none"
         d="m -693.49258,541.85608 c 1.35707,0.3352 2.41258,0.67041 3.46807,0.83801 4.97592,0.67042 6.63456,-3.18446 4.82514,-11.39702 3.76962,-0.50282 5.42826,-3.01686 4.97591,-7.20694 -0.15078,-3.18448 -1.50786,-5.69853 -4.22199,-7.37456 -8.2932,-2.01124 -15.83247,-4.86049 -22.6178,-8.88298 0.90471,4.02249 -0.30158,6.87174 -3.61886,8.54778 -0.15079,4.69289 -2.11099,7.20694 -5.42827,7.54215 8.89633,9.88859 16.43561,15.92232 22.6178,17.93356 z"
         inkscape:connector-curvature="0" />
      <path
         id="path4755"
         style="fill:#eac102;fill-opacity:1;stroke:#000000;stroke-width:1;stroke-miterlimit:3.98457432;stroke-opacity:1;stroke-dasharray:none"
         d="m -761.34599,424.70132 -0.60315,13.40828 c 0.90472,23.12925 3.76964,45.75571 8.59476,67.87936 0.30159,1.17322 0.60316,2.34644 0.75394,3.68727 3.16649,14.5815 7.38848,27.82216 12.81675,39.722 4.67435,10.0562 10.25341,19.27439 16.73719,27.31935 1.20628,-3.01687 3.31727,-4.35768 6.63455,-4.35768 -6.93613,-8.04497 -12.81676,-16.76035 -17.64189,-26.31374 -4.97592,-9.55339 -8.89634,-19.9448 -11.91204,-31.00662 -1.0555,-3.68727 -1.96022,-7.37455 -3.01571,-10.89421 -3.76963,-14.41391 -6.93613,-29.163 -9.04712,-44.41491 -1.96022,-11.39702 -3.16649,-23.12926 -3.31728,-35.0291 z"
         inkscape:connector-curvature="0" />
      <path
         id="path4757"
         style="fill:#eac102;fill-opacity:1;stroke:#000000;stroke-width:1;stroke-miterlimit:3.98457432;stroke-opacity:1;stroke-dasharray:none"
         d="m -776.12296,438.1096 -0.45235,-13.40828 c -0.30158,11.89984 -1.35708,23.63208 -3.31728,35.0291 -2.26179,15.25191 -5.27749,30.001 -9.19791,44.41491 -0.90471,3.51966 -1.96022,7.20694 -3.01571,10.89421 -3.01571,11.06182 -6.93613,21.45323 -11.76126,31.00662 -4.97592,9.55339 -10.85655,18.26877 -17.64189,26.31374 3.16649,0 5.42827,1.34081 6.48377,4.35768 6.48378,-8.04496 12.06283,-17.26315 16.73718,-27.31935 5.42827,-11.89984 9.80105,-25.1405 12.81676,-39.722 0.30157,-1.34083 0.60314,-2.51405 0.75392,-3.68727 4.97592,-22.12365 7.69006,-44.75011 8.59477,-67.87936 z"
         inkscape:connector-curvature="0" />
      <path
         id="path4759"
         style="fill:#eac102;fill-opacity:1;stroke:#000000;stroke-width:1;stroke-miterlimit:3.98457432;stroke-opacity:1;stroke-dasharray:none"
         d="m -793.91563,441.29406 c 2.11099,-7.87736 4.37277,-14.5815 6.48377,-20.28001 -15.83247,0.3352 -30.91101,-1.67604 -45.3864,-5.86612 -5.88063,-1.00562 -8.44398,1.17323 -7.53927,6.70413 0.45236,3.35207 2.41256,6.20133 5.57906,8.38017 l 0.30157,0 c 4.0712,2.68166 8.44398,4.6929 13.26912,6.03373 l 0,0 c 2.26178,0.83801 3.76963,2.01123 4.37277,3.85487 3.92042,8.04497 9.19791,13.40826 15.98324,15.92233 2.71414,-4.3577 5.12671,-9.2182 6.93614,-14.7491 z"
         inkscape:connector-curvature="0" />
      <path
         id="path4761"
         style="fill:#eac102;fill-opacity:1;stroke:#000000;stroke-width:1;stroke-miterlimit:3.98457432;stroke-dasharray:none"
         d="m -835.98475,478.83721 c -3.01572,0.50281 -6.03142,1.00562 -9.3487,1.34083 -8.59476,0.67041 -12.81676,3.68727 -12.81676,9.38579 0,2.34645 1.20628,3.85487 3.31728,4.69289 1.96021,0.67041 1.96021,1.34083 -0.30157,2.34644 -2.71414,0.67042 -4.07121,2.01125 -4.22199,4.35769 l 0,0 c -0.60314,5.53092 1.35706,8.54778 5.72985,8.88298 0.90471,0 2.11099,0 3.31727,-0.1676 6.03141,-1.84364 11.76127,-4.19009 17.34032,-7.37455 -2.86492,-2.34644 -3.31728,-5.86611 -1.35706,-10.55901 -2.56336,-3.35207 -3.01572,-7.70975 -1.65864,-12.90546 z"
         inkscape:connector-curvature="0" />
      <path
         id="path4763"
         style="fill:#eac102;fill-opacity:1;stroke:#000000;stroke-width:1;stroke-miterlimit:3.98457432;stroke-dasharray:none"
         d="m -808.54182,481.68647 c -4.82513,-0.83802 -6.63455,-4.8605 -5.27749,-12.23505 -6.33298,4.5253 -13.72147,7.54215 -22.16544,9.38579 -1.35708,5.19571 -0.90472,9.55339 1.65864,12.90546 -1.96022,4.6929 -1.50786,8.21257 1.35706,10.55901 8.74555,-5.0281 16.88796,-11.89983 24.42723,-20.61521 z"
         inkscape:connector-curvature="0" />
      <path
         id="path4765"
         style="fill:#eac102;fill-opacity:1;stroke:#000000;stroke-width:1;stroke-miterlimit:3.98457432;stroke-dasharray:none"
         d="m -811.40674,511.35227 c 4.67434,-6.03373 9.04713,-12.57026 12.96754,-19.44199 -1.20628,-4.19009 -4.0712,-6.53653 -8.44398,-7.03935 -1.80942,2.17885 -3.61885,4.35769 -5.42827,6.53654 -5.27749,6.70413 -11.45969,12.06743 -18.69738,16.42512 -0.90473,4.02249 0.30156,6.87174 3.61884,8.54778 0.15079,4.69289 2.11099,7.20694 5.42827,7.54215 3.31728,-3.68727 6.78535,-7.87736 10.55498,-12.57025 z"
         inkscape:connector-curvature="0" />
      <path
         id="path4767"
         style="fill:#eac102;fill-opacity:1;stroke:#000000;stroke-width:1;stroke-miterlimit:3.98457432;stroke-opacity:1;stroke-dasharray:none"
         d="m -798.4392,491.91028 c -3.92041,6.87173 -8.2932,13.40826 -12.96754,19.44199 -3.76963,4.69289 -7.2377,8.88298 -10.55498,12.57025 -8.89634,9.88859 -16.4356,15.92232 -22.6178,17.93356 -1.20629,0.3352 -2.41257,0.67041 -3.31728,0.83801 3.61884,2.01125 5.57905,4.86051 5.88063,8.54778 0,0.1676 0,0.3352 0,0.50281 7.69006,-6.70414 14.77697,-13.91108 21.5623,-21.78844 8.44399,-9.88859 16.13405,-20.78281 22.91938,-32.68266 0.30158,-0.50281 0.60315,-1.00562 0.90472,-1.50842 4.67435,-8.04497 7.99163,-18.10117 9.80105,-29.83341 -3.31728,9.21819 -7.2377,17.76596 -11.61048,25.97853 z"
         inkscape:connector-curvature="0" />
      <path
         id="path4769"
         style="fill:#eac102;fill-opacity:1;stroke:#000000;stroke-width:1;stroke-miterlimit:3.98457432;stroke-opacity:1;stroke-dasharray:none"
         d="m -812.31145,491.40747 c 1.80942,-2.17885 3.61885,-4.35769 5.42827,-6.53654 7.99163,-10.55901 14.92776,-23.79967 20.6576,-39.55439 -6.63456,14.41388 -14.02304,26.48132 -22.31624,36.36993 -7.53927,8.71538 -15.68168,15.58711 -24.42723,20.61521 -5.57906,3.18446 -11.30891,5.53091 -17.34032,7.37455 -1.20628,0.1676 -2.41256,0.1676 -3.31727,0.1676 2.26178,2.51405 2.26178,4.6929 0,6.87174 8.29319,-2.01124 15.83246,-4.86049 22.61781,-8.88298 7.23769,-4.35769 13.41989,-9.72099 18.69738,-16.42512 z"
         inkscape:connector-curvature="0" />
      <path
         id="path4771"
         style="fill:#eac102;fill-opacity:1;stroke:#000000;stroke-width:1;stroke-miterlimit:3.98457432;stroke-dasharray:none"
         d="m -831.00883,507.83259 c -6.78535,4.02249 -14.32462,6.87174 -22.61781,8.88298 -2.71414,1.67603 -4.07121,4.19008 -4.222,7.37456 -0.30157,4.19008 1.20629,6.70412 4.97592,7.20694 -1.65864,8.21256 -0.15079,12.06744 4.97592,11.39702 0.90471,-0.1676 2.11099,-0.50281 3.31728,-0.83801 6.1822,-2.01124 13.72146,-8.04497 22.6178,-17.93356 -3.31728,-0.33521 -5.27748,-2.84926 -5.42827,-7.54215 -3.31728,-1.67603 -4.52357,-4.52529 -3.61884,-8.54778 z"
         inkscape:connector-curvature="0" />
      <path
         id="path4773"
         style="fill:#eac102;fill-opacity:1;stroke:#000000;stroke-width:1;stroke-miterlimit:3.98457432;stroke-dasharray:none"
         d="m -842.01617,551.24187 c -3.61885,2.84926 -3.92042,6.87174 -1.0555,11.73224 1.96021,1.84362 3.92042,2.01123 6.03142,0.50281 1.80942,-0.83803 2.56335,-0.3352 2.111,1.50842 -1.50786,3.85488 -0.60315,6.70414 2.56334,8.54777 3.92042,2.34645 7.38849,2.01124 10.85655,-1.17321 6.78534,-8.04497 12.66597,-16.76035 17.64189,-26.31374 -4.22199,1.00563 -7.99162,-0.83801 -11.45969,-6.03372 -5.88062,-0.67041 -7.69005,-4.02248 -5.12671,-10.0562 -6.78533,7.87736 -13.87224,15.0843 -21.5623,21.78844 0,-0.16761 0,-0.33521 0,-0.50281 z"
         inkscape:connector-curvature="0" />
      <path
         id="path4775"
         style="fill:#eac102;fill-opacity:1;stroke:#000000;stroke-width:1;stroke-miterlimit:3.98457432;stroke-dasharray:none"
         d="m -815.32716,540.01244 c 3.46807,5.19571 7.2377,7.03935 11.45969,6.03372 4.82513,-9.55339 8.74555,-19.9448 11.76126,-31.00662 1.05549,-3.68727 2.111,-7.37455 3.01571,-10.89421 -5.42828,1.84362 -8.2932,-0.50282 -8.44399,-6.87175 -6.78533,11.89985 -14.47539,22.79407 -22.91938,32.68266 -2.56334,6.03372 -0.75391,9.38579 5.12671,10.0562 z"
         inkscape:connector-curvature="0" />
      <path
         id="path4777"
         style="fill:#eac102;fill-opacity:1;stroke:#000000;stroke-width:1;stroke-miterlimit:3.98457432;stroke-dasharray:none"
         d="m -752.60044,509.67623 c -0.15078,-1.34083 -0.45235,-2.51405 -0.75394,-3.68728 -2.26177,4.69289 -5.57904,5.86613 -9.95182,3.51968 0.90471,15.0843 1.96021,30.1686 3.31727,44.91771 3.92042,-0.33521 6.48378,-2.01125 7.23771,-5.02811 0.75392,-1.00562 1.65863,-1.00562 2.56335,0 4.52355,3.35207 7.99162,3.35207 10.40418,0 -5.42827,-11.89984 -9.65026,-25.1405 -12.81675,-39.722 z"
         inkscape:connector-curvature="0" />
      <path
         id="path4779"
         style="fill:#eac102;fill-opacity:1;stroke:#000000;stroke-width:1;stroke-miterlimit:3.98457432;stroke-opacity:1;stroke-dasharray:none"
         d="m -763.3062,509.50863 c -0.15079,-3.85488 -0.45237,-7.70976 -0.60314,-11.56463 -1.20629,-26.81654 -2.86493,-53.63308 -5.12671,-80.44962 -2.26178,26.81654 -3.92042,53.63308 -4.97592,80.44962 -0.30156,3.85487 -0.45235,7.70975 -0.75392,11.56463 -0.90472,15.0843 -1.96021,30.1686 -3.1665,44.91771 -0.90471,10.559 -1.9602,20.95041 -3.0157,31.34182 -0.30157,0.67042 -0.45236,1.34083 -0.75393,2.01124 3.61885,-3.01685 7.84084,-4.52529 12.66597,-4.86049 4.82513,0.3352 9.19791,1.84364 12.66598,4.86049 -0.30158,-0.67041 -0.45236,-1.34082 -0.60315,-2.01124 -1.20628,-10.39141 -2.11099,-20.78282 -3.0157,-31.34182 -1.35707,-14.74911 -2.41257,-29.83341 -3.31728,-44.91771 z"
         inkscape:connector-curvature="0" />
      <path
         id="path4781"
         style="fill:#eac102;fill-opacity:1;stroke:#000000;stroke-width:1;stroke-miterlimit:3.98457432;stroke-dasharray:none"
         d="m -774.76589,509.50863 c -4.222,2.34645 -7.53928,1.17321 -9.95184,-3.51967 -0.15078,1.17322 -0.45235,2.34644 -0.75392,3.68727 -3.01571,14.5815 -7.38849,27.82216 -12.81676,39.722 2.41256,3.35207 5.88063,3.35207 10.40419,0 1.0555,-1.00562 1.80942,-1.00562 2.56336,0 0.9047,3.01686 3.31727,4.6929 7.38847,5.02811 1.20629,-14.74911 2.26178,-29.83341 3.1665,-44.91771 z"
         inkscape:connector-curvature="0" />
      <path
         id="path4783"
         style="fill:#eac102;fill-opacity:1;stroke:#000000;stroke-width:1;stroke-miterlimit:3.98457432;stroke-dasharray:none"
         d="m -787.88422,549.39823 c -4.52356,3.35207 -7.99163,3.35207 -10.40419,0 -4.67435,10.0562 -10.25341,19.27439 -16.73718,27.31935 -1.20628,6.70413 -0.15078,10.55902 3.1665,11.73224 4.37277,0.67042 7.53927,0.1676 9.80105,-1.84365 1.65864,-1.34081 3.0157,-1.00562 4.0712,1.17323 1.50785,3.51968 4.37278,5.19571 8.89634,5.36331 3.61885,-0.67042 6.1822,-2.51405 7.38848,-5.36331 0.30157,-0.67041 0.45236,-1.34082 0.75393,-2.01124 1.0555,-10.39141 2.11099,-20.78282 3.0157,-31.34182 -4.0712,-0.33521 -6.48377,-2.01125 -7.38847,-5.02811 -0.75394,-1.00562 -1.50786,-1.00562 -2.56336,0 z"
         inkscape:connector-curvature="0" />
      <path
         id="path4785"
         style="fill:#eac102;fill-opacity:1;stroke:#000000;stroke-width:1;stroke-miterlimit:3.98457432;stroke-dasharray:none"
         d="m -739.78369,549.39823 c -2.41256,3.35207 -5.88063,3.35207 -10.40418,0 -0.90472,-1.00562 -1.80943,-1.00562 -2.56335,0 -0.75393,3.01686 -3.31729,4.6929 -7.23771,5.02811 0.90472,10.559 1.80943,20.95041 3.01571,31.34182 0.15079,0.67042 0.30157,1.34083 0.60315,2.01124 1.35706,2.84926 3.76963,4.69289 7.53926,5.36331 4.37278,-0.1676 7.2377,-1.84363 8.74555,-5.36331 1.0555,-2.17885 2.41258,-2.51404 4.07121,-1.17323 2.26178,2.01125 5.57906,2.51407 9.80105,1.84365 3.46806,-1.17322 4.52357,-5.02811 3.1665,-11.73224 -6.48378,-8.04496 -12.06284,-17.26315 -16.73719,-27.31935 z"
         inkscape:connector-curvature="0" />
      <path
         id="path4787"
         style="fill:#eac102;fill-opacity:1;stroke:#000000;stroke-width:1;stroke-linecap:round;stroke-linejoin:round;stroke-miterlimit:3.98457432;stroke-opacity:1;stroke-dasharray:none"
         d="m -737.06955,456.04316 c 6.63456,-2.51406 11.91205,-7.87736 15.98325,-15.92233 0.45236,-1.84364 1.96021,-3.01686 4.222,-3.85487 4.82513,-1.34083 9.1979,-3.35207 13.41989,-6.03373 l 0.15078,0 c 3.31729,-2.17884 5.12671,-5.0281 5.72985,-8.38017 0.75393,-5.5309 -1.65864,-7.70975 -7.69005,-6.70413 -14.32461,4.19008 -29.55394,6.20132 -45.38641,5.86612"
         inkscape:connector-curvature="0" />
      <path
         id="path4789"
         style="fill:#eac102;fill-opacity:1;stroke:#000000;stroke-width:1;stroke-linecap:round;stroke-linejoin:round;stroke-miterlimit:3.98457432;stroke-opacity:1;stroke-dasharray:none"
         d="m -724.10201,469.45142 c -5.1267,-3.51967 -9.49947,-8.04496 -12.96754,-13.40826"
         inkscape:connector-curvature="0" />
      <path
         id="path4793"
         style="fill:#eac102;fill-opacity:1;stroke:#000000;stroke-width:1;stroke-linecap:round;stroke-linejoin:round;stroke-miterlimit:3.98457432;stroke-opacity:1;stroke-dasharray:none"
         d="m -684.44545,509.84383 c 4.37277,-0.3352 6.33299,-3.35206 5.88063,-8.88298 0.43586,-7.79015 0.34563,-4.68105 -1.35707,-11.39702 -2.10853,-5.69852 -4.22199,-8.71538 -12.81676,-9.38579 -3.16649,-0.33521 -6.33298,-0.83802 -9.19791,-1.34083"
         inkscape:connector-curvature="0"
         sodipodi:nodetypes="ccccc" />
      <path
         id="path4795"
         style="fill:none;stroke:#000000;stroke-width:1;stroke-linecap:round;stroke-linejoin:round;stroke-miterlimit:3.98457432;stroke-opacity:1;stroke-dasharray:none"
         d="m -701.93656,478.83721 c -8.59476,-1.84364 -15.98325,-4.86049 -22.16545,-9.38579"
         inkscape:connector-curvature="0" />
      <path
         id="path4799"
         style="fill:none;stroke:#000000;stroke-width:1;stroke-linecap:round;stroke-linejoin:round;stroke-miterlimit:3.98457432;stroke-opacity:1;stroke-dasharray:none"
         d="m -684.44545,516.71557 c -2.26179,-2.17884 -2.26179,-4.35769 0,-6.87174"
         inkscape:connector-curvature="0" />
      <path
         id="path4801"
         style="fill:#eac102;fill-opacity:1;stroke:#000000;stroke-width:1;stroke-linecap:round;stroke-linejoin:round;stroke-miterlimit:3.98457432;stroke-opacity:1;stroke-dasharray:none"
         d="m -705.10304,502.30168 c 5.57905,3.18446 11.3089,5.53091 17.49109,7.37455 1.20628,0.1676 2.26179,0.1676 3.1665,0.1676"
         inkscape:connector-curvature="0" />
      <path
         id="path4803"
         style="fill:#eac102;fill-opacity:1;stroke:#000000;stroke-width:1;stroke-linecap:round;stroke-linejoin:round;stroke-miterlimit:3.98457432;stroke-opacity:1;stroke-dasharray:none"
         d="m -707.06325,507.83259 c -7.08691,-4.35769 -13.26911,-9.72099 -18.5466,-16.42512 -1.96022,-2.17885 -3.76965,-4.35769 -5.42829,-6.53654"
         inkscape:connector-curvature="0" />
      <path
         id="path4807"
         style="fill:#eac102;fill-opacity:1;stroke:#000000;stroke-width:1;stroke-linecap:round;stroke-linejoin:round;stroke-miterlimit:3.98457432;stroke-opacity:1;stroke-dasharray:none"
         d="m -716.41195,572.3599 c 3.31729,3.18445 6.93613,3.51966 10.70576,1.17321 6.39261,-2.70766 16.43487,-13.52291 9.80105,-22.29124"
         inkscape:connector-curvature="0"
         sodipodi:nodetypes="ccc" />
      <path
         id="path4809"
         style="fill:#eac102;fill-opacity:1;stroke:#000000;stroke-width:1;stroke-linecap:round;stroke-linejoin:round;stroke-miterlimit:3.98457432;stroke-opacity:1;stroke-dasharray:none"
         d="m -716.11038,523.92252 c 8.89633,9.88859 16.43561,15.92232 22.6178,17.93356 1.35707,0.3352 2.41258,0.67041 3.46807,0.83801"
         inkscape:connector-curvature="0" />
      <path
         id="path4811"
         style="fill:none;stroke:#000000;stroke-width:1;stroke-linecap:round;stroke-linejoin:round;stroke-miterlimit:3.98457432;stroke-opacity:1;stroke-dasharray:none"
         d="m -695.90514,551.24187 c 0.15079,-3.68728 2.111,-6.53653 5.88063,-8.54778"
         inkscape:connector-curvature="0" />
      <path
         id="path4813"
         style="fill:#eac102;fill-opacity:1;stroke:#000000;stroke-width:1;stroke-linecap:round;stroke-linejoin:round;stroke-miterlimit:3.98457432;stroke-opacity:1;stroke-dasharray:none"
         d="m -717.46745,529.95624 c 6.63455,7.87736 13.87225,15.0843 21.56231,21.78844 -0.15078,-0.16761 -0.15078,-0.33521 0,-0.50281"
         inkscape:connector-curvature="0" />
      <path
         id="path4815"
         style="fill:#eac102;fill-opacity:1;stroke:#000000;stroke-width:1;stroke-linecap:round;stroke-linejoin:round;stroke-miterlimit:3.98457432;stroke-opacity:1;stroke-dasharray:none"
         d="m -690.02451,542.69409 c 7.82622,-1.44545 10.28023,-13.28645 9.80105,-18.60396 -0.15078,-3.18448 -1.50786,-5.69853 -4.22199,-7.37456"
         inkscape:connector-curvature="0"
         sodipodi:nodetypes="ccc" />
      <path
         id="path4817"
         style="fill:#eac102;fill-opacity:1;stroke:#000000;stroke-width:1;stroke-linecap:round;stroke-linejoin:round;stroke-miterlimit:3.98457432;stroke-opacity:1;stroke-dasharray:none"
         d="m -684.44545,516.71557 c -8.2932,-2.01124 -15.83247,-4.86049 -22.6178,-8.88298"
         inkscape:connector-curvature="0" />
      <path
         id="path4819"
         style="fill:#eac102;fill-opacity:1;stroke:#000000;stroke-width:1;stroke-linecap:round;stroke-linejoin:round;stroke-miterlimit:3.98457432;stroke-opacity:1;stroke-dasharray:none"
         d="m -739.48211,491.91028 c 3.76963,6.87173 8.1424,13.40826 12.96754,19.44199 3.61884,4.69289 7.08691,8.88298 10.40419,12.57025"
         inkscape:connector-curvature="0" />
      <path
         id="path4823"
         style="fill:#eac102;fill-opacity:1;stroke:#000000;stroke-width:1;stroke-linecap:round;stroke-linejoin:round;stroke-miterlimit:3.98457432;stroke-opacity:1;stroke-dasharray:none"
         d="m -729.3795,481.68647 c 7.3885,8.71538 15.5309,15.58711 24.27646,20.61521"
         inkscape:connector-curvature="0" />
      <path
         id="path4825"
         style="fill:#eac102;fill-opacity:1;stroke:#000000;stroke-width:1;stroke-linecap:round;stroke-linejoin:round;stroke-miterlimit:3.98457432;stroke-opacity:1;stroke-dasharray:none"
         d="m -748.98159,504.14533 c -3.76963,-14.41391 -6.93613,-29.163 -9.04712,-44.41491 -1.96022,-11.39702 -3.16649,-23.12926 -3.31728,-35.0291 l -0.60315,13.40827 c 0.90471,23.12926 3.76964,45.75572 8.59476,67.87936"
         inkscape:connector-curvature="0" />
      <path
         id="path4827"
         style="fill:#eac102;fill-opacity:1;stroke:#000000;stroke-width:1;stroke-linecap:round;stroke-linejoin:round;stroke-miterlimit:3.98457432;stroke-opacity:1;stroke-dasharray:none"
         d="m -784.71773,505.98896 c 4.97592,-22.12365 7.69006,-44.75011 8.59477,-67.87936 l -0.45235,-13.40828 c -0.30158,11.89984 -1.35708,23.63208 -3.31728,35.0291 -2.26179,15.25191 -5.27749,30.001 -9.19791,44.41491"
         inkscape:connector-curvature="0" />
      <path
         id="path4829"
         style="fill:#eac102;fill-opacity:1;stroke:#000000;stroke-width:1;stroke-linecap:round;stroke-linejoin:round;stroke-miterlimit:3.98457432;stroke-opacity:1;stroke-dasharray:none"
         d="m -750.64024,421.01405 c -5.72983,-14.24629 -11.76125,-21.45324 -18.39581,-21.78844 -6.63456,0.3352 -11.87526,7.54215 -17.60511,21.78844"
         inkscape:connector-curvature="0"
         sodipodi:nodetypes="ccc" />
      <path
         id="path4831"
         style="fill:#eac102;fill-opacity:1;stroke:#000000;stroke-width:1;stroke-linecap:round;stroke-linejoin:round;stroke-miterlimit:3.98457432;stroke-opacity:1;stroke-dasharray:none"
         d="m -786.82872,465.93175 c 0.60314,-1.67603 1.0555,-3.18446 1.50786,-4.6929 0.15078,-0.3352 0.30156,-0.67041 0.30156,-1.00561 0.75393,-2.17884 1.35707,-4.35769 1.96021,-6.53654 1.65864,-7.87736 2.41256,-15.92232 2.111,-23.96728"
         inkscape:connector-curvature="0" />
      <path
         id="path4833"
         style="fill:#eac102;fill-opacity:1;stroke:#000000;stroke-width:1;stroke-linecap:round;stroke-linejoin:round;stroke-miterlimit:3.98457432;stroke-opacity:1;stroke-dasharray:none"
         d="m -756.97322,429.72942 c -0.45235,8.04496 0.30157,16.08992 2.111,23.96728 0.45235,2.17885 1.20628,4.3577 1.80943,6.53654 0.15078,0.3352 0.15078,0.67041 0.30157,1.00561 0.45235,1.50844 1.05548,3.01687 1.50785,4.6929"
         inkscape:connector-curvature="0" />
      <path
         id="path4835"
         style="fill:#eac102;fill-opacity:1;stroke:#000000;stroke-width:1;stroke-linecap:round;stroke-linejoin:round;stroke-miterlimit:3.98457432;stroke-opacity:1;stroke-dasharray:none"
         d="m -737.06955,456.04316 c -2.86492,-4.3577 -5.27748,-9.2182 -7.08691,-14.7491 -2.111,-7.87736 -4.37278,-14.5815 -6.48378,-20.28001"
         inkscape:connector-curvature="0" />
      <path
         id="path4839"
         style="fill:#eac102;fill-opacity:1;stroke:#000000;stroke-width:1;stroke-linecap:round;stroke-linejoin:round;stroke-miterlimit:3.98457432;stroke-opacity:1;stroke-dasharray:none"
         d="m -787.43186,421.01405 c -15.83247,0.3352 -30.91101,-1.67604 -45.3864,-5.86612 -5.88063,-1.00562 -8.44398,1.17323 -7.53927,6.70413 0.45236,3.35207 2.41256,6.20133 5.57906,8.38017 l 0.30157,0 c 4.0712,2.68166 8.44398,4.6929 13.26912,6.03373 l 0,0 c 2.26178,0.83801 3.76963,2.01123 4.37277,3.85487 3.92042,8.04497 9.19791,13.40826 15.98324,15.92233"
         inkscape:connector-curvature="0" />
      <path
         id="path4837"
         style="fill:#eac102;fill-opacity:1;stroke:#000000;stroke-width:1;stroke-linecap:round;stroke-linejoin:round;stroke-miterlimit:3.98457432;stroke-opacity:1;stroke-dasharray:none"
         d="m -800.85177,456.04316 c 2.71414,-4.3577 5.12671,-9.2182 6.93614,-14.7491 2.11099,-7.87736 4.37277,-14.5815 6.48377,-20.28001"
         inkscape:connector-curvature="0" />
      <path
         id="path4841"
         style="fill:#eac102;fill-opacity:1;stroke:#000000;stroke-width:1;stroke-linecap:round;stroke-linejoin:round;stroke-miterlimit:3.98457432;stroke-opacity:1;stroke-dasharray:none"
         d="m -835.98475,478.83721 c -3.01572,0.50281 -6.03142,1.00562 -9.3487,1.34083 -7.10595,0.55428 -11.22286,2.7125 -12.43592,6.66411 -3.02458,4.32031 -3.1571,11.51332 -1.57121,17.72771 0.48586,3.23882 2.41214,5.02087 5.71394,5.27397"
         inkscape:connector-curvature="0"
         sodipodi:nodetypes="ccccc" />
      <path
         id="path4843"
         style="fill:#eac102;fill-opacity:1;stroke:#000000;stroke-width:1;stroke-linecap:round;stroke-linejoin:round;stroke-miterlimit:3.98457432;stroke-opacity:1;stroke-dasharray:none"
         d="m -800.85177,456.04316 c -3.61884,5.3633 -7.99162,9.88859 -12.96754,13.40826"
         inkscape:connector-curvature="0" />
      <path
         id="path4845"
         style="fill:#eac102;fill-opacity:1;stroke:#000000;stroke-width:1;stroke-miterlimit:3.98457432;stroke-dasharray:none"
         d="m -813.81931,469.45142 c -1.35706,7.37455 0.45236,11.39703 5.27749,12.23505"
         inkscape:connector-curvature="0" />
      <path
         id="path4847"
         style="fill:none;stroke:#000000;stroke-width:1;stroke-linecap:round;stroke-linejoin:round;stroke-miterlimit:3.98457432;stroke-opacity:1;stroke-dasharray:none"
         d="m -813.81931,469.45142 c -6.33298,4.5253 -13.72147,7.54215 -22.16544,9.38579"
         inkscape:connector-curvature="0" />
      <path
         id="path4849"
         style="fill:#eac102;fill-opacity:1;stroke:#000000;stroke-width:1;stroke-linecap:round;stroke-linejoin:round;stroke-miterlimit:3.98457432;stroke-opacity:1;stroke-dasharray:none"
         d="m -798.4392,491.91028 c -3.92041,6.87173 -8.2932,13.40826 -12.96754,19.44199 -3.76963,4.69289 -7.2377,8.88298 -10.55498,12.57025"
         inkscape:connector-curvature="0" />
      <path
         id="path4853"
         style="fill:#eac102;fill-opacity:1;stroke:#000000;stroke-width:1;stroke-linecap:round;stroke-linejoin:round;stroke-miterlimit:3.98457432;stroke-opacity:1;stroke-dasharray:none"
         d="m -831.00883,507.83259 c 7.23769,-4.35769 13.41989,-9.72099 18.69738,-16.42512 1.80942,-2.17885 3.61885,-4.35769 5.42827,-6.53654"
         inkscape:connector-curvature="0" />
      <path
         id="path4857"
         style="fill:none;stroke:#000000;stroke-width:1;stroke-linecap:round;stroke-linejoin:round;stroke-miterlimit:3.98457432;stroke-opacity:1;stroke-dasharray:none"
         d="m -853.62664,509.84383 c 2.26178,2.51405 2.26178,4.6929 0,6.87174"
         inkscape:connector-curvature="0" />
      <path
         id="path4859"
         style="fill:#eac102;fill-opacity:1;stroke:#000000;stroke-width:1;stroke-linecap:round;stroke-linejoin:round;stroke-miterlimit:3.98457432;stroke-opacity:1;stroke-dasharray:none"
         d="m -832.96905,502.30168 c -5.57906,3.18446 -11.30891,5.53091 -17.34032,7.37455 -1.20628,0.1676 -2.41256,0.1676 -3.31727,0.1676"
         inkscape:connector-curvature="0" />
      <path
         id="path4861"
         style="fill:#eac102;fill-opacity:1;stroke:#000000;stroke-width:1;stroke-linecap:round;stroke-linejoin:round;stroke-miterlimit:3.98457432;stroke-opacity:1;stroke-dasharray:none"
         d="m -853.62664,516.71557 c 8.29319,-2.01124 15.83246,-4.86049 22.61781,-8.88298"
         inkscape:connector-curvature="0" />
      <path
         id="path4863"
         style="fill:#eac102;fill-opacity:1;stroke:#000000;stroke-width:1;stroke-linecap:round;stroke-linejoin:round;stroke-miterlimit:3.98457432;stroke-opacity:1;stroke-dasharray:none"
         d="m -853.62664,516.71557 c -2.71414,1.67603 -4.07121,4.19008 -4.222,7.37456 -1.48169,9.35181 5.66244,19.03203 9.95184,18.60396"
         inkscape:connector-curvature="0"
         sodipodi:nodetypes="ccc" />
      <path
         id="path4865"
         style="fill:none;stroke:#000000;stroke-width:1;stroke-linecap:round;stroke-linejoin:round;stroke-miterlimit:3.98457432;stroke-opacity:1;stroke-dasharray:none"
         d="m -847.8968,542.69409 c 3.61884,2.01125 5.57905,4.86051 5.88063,8.54778"
         inkscape:connector-curvature="0" />
      <path
         id="path4867"
         style="fill:#eac102;fill-opacity:1;stroke:#000000;stroke-width:1;stroke-linecap:round;stroke-linejoin:round;stroke-miterlimit:3.98457432;stroke-opacity:1;stroke-dasharray:none"
         d="m -842.01617,551.24187 c -3.61885,2.84926 -3.92042,6.87174 -1.0555,11.73224 1.06732,2.44695 4.53292,6.29621 10.70576,10.559 3.92042,2.34645 7.38849,2.01124 10.85655,-1.17321"
         inkscape:connector-curvature="0"
         sodipodi:nodetypes="cccc" />
      <path
         id="path4869"
         style="fill:#eac102;fill-opacity:1;stroke:#000000;stroke-width:1;stroke-linecap:round;stroke-linejoin:round;stroke-miterlimit:3.98457432;stroke-opacity:1;stroke-dasharray:none"
         d="m -821.96172,523.92252 c -8.89634,9.88859 -16.4356,15.92232 -22.6178,17.93356 -1.20629,0.3352 -2.41257,0.67041 -3.31728,0.83801"
         inkscape:connector-curvature="0" />
      <path
         id="path4871"
         style="fill:#eac102;fill-opacity:1;stroke:#000000;stroke-width:1;stroke-linecap:round;stroke-linejoin:round;stroke-miterlimit:3.98457432;stroke-opacity:1;stroke-dasharray:none"
         d="m -820.45387,529.95624 c -6.78533,7.87736 -13.87224,15.0843 -21.5623,21.78844 0,-0.16761 0,-0.33521 0,-0.50281"
         inkscape:connector-curvature="0" />
      <path
         id="path4877"
         style="fill:#eac102;fill-opacity:1;stroke:#000000;stroke-width:1;stroke-linecap:round;stroke-linejoin:round;stroke-miterlimit:3.98457432;stroke-opacity:1;stroke-dasharray:none"
         d="m -751.24337,465.93175 c 1.96021,11.73224 5.1267,21.78844 9.80105,29.83341 0.30157,0.5028 0.60314,1.00561 0.90471,1.50842"
         inkscape:connector-curvature="0" />
      <path
         id="path4879"
         style="fill:#eac102;fill-opacity:1;stroke:#000000;stroke-width:1;stroke-linecap:round;stroke-linejoin:round;stroke-miterlimit:3.98457432;stroke-opacity:1;stroke-dasharray:none"
         d="m -734.05384,546.04616 c -4.97592,-9.55339 -8.89634,-19.9448 -11.91204,-31.00662 -1.0555,-3.68727 -1.96022,-7.37455 -3.01571,-10.89421"
         inkscape:connector-curvature="0" />
      <path
         id="path4883"
         style="fill:#eac102;fill-opacity:1;stroke:#000000;stroke-width:1;stroke-linecap:round;stroke-linejoin:round;stroke-miterlimit:3.98457432;stroke-opacity:1;stroke-dasharray:none"
         d="m -753.35438,505.98896 c 0.30159,1.17322 0.60316,2.34644 0.75394,3.68727 3.16649,14.5815 7.38848,27.82216 12.81675,39.722"
         inkscape:connector-curvature="0" />
      <path
         id="path4887"
         style="fill:#eac102;fill-opacity:1;stroke:#000000;stroke-width:1;stroke-linecap:round;stroke-linejoin:round;stroke-miterlimit:3.98457432;stroke-opacity:1;stroke-dasharray:none"
         d="m -763.3062,509.50863 c -0.15079,-3.85488 -0.45237,-7.70976 -0.60314,-11.56463 -1.20629,-26.81654 -2.86493,-53.63308 -5.12671,-80.44962 -2.26178,26.81654 -3.92042,53.63308 -4.97592,80.44962 -0.30156,3.85487 -0.45235,7.70975 -0.75392,11.56463"
         inkscape:connector-curvature="0" />
      <path
         id="path4893"
         style="fill:#eac102;fill-opacity:1;stroke:#000000;stroke-width:1;stroke-linecap:round;stroke-linejoin:round;stroke-miterlimit:3.98457432;stroke-opacity:1;stroke-dasharray:none"
         d="m -797.53449,497.27358 c 0.30158,-0.50281 0.60315,-1.00562 0.90472,-1.50842 4.67435,-8.04497 7.99163,-18.10117 9.80105,-29.83341"
         inkscape:connector-curvature="0" />
      <path
         id="path4895"
         style="fill:#eac102;fill-opacity:1;stroke:#000000;stroke-width:1;stroke-linecap:round;stroke-linejoin:round;stroke-miterlimit:3.98457432;stroke-opacity:1;stroke-dasharray:none"
         d="m -784.71773,505.98896 c -0.15078,1.17322 -0.45235,2.34644 -0.75392,3.68727 -3.01571,14.5815 -7.38849,27.82216 -12.81676,39.722"
         inkscape:connector-curvature="0" />
      <path
         id="path4897"
         style="fill:#eac102;fill-opacity:1;stroke:#000000;stroke-width:1;stroke-linecap:round;stroke-linejoin:round;stroke-miterlimit:3.98457432;stroke-opacity:1;stroke-dasharray:none"
         d="m -789.0905,504.14533 c -0.90471,3.51966 -1.96022,7.20694 -3.01571,10.89421 -3.01571,11.06182 -6.93613,21.45323 -11.76126,31.00662"
         inkscape:connector-curvature="0" />
      <path
         id="path4903"
         style="fill:#eac102;fill-opacity:1;stroke:#000000;stroke-width:1;stroke-linecap:round;stroke-linejoin:round;stroke-miterlimit:3.98457432;stroke-opacity:1;stroke-dasharray:none"
         d="m -774.76589,509.50863 c -0.90472,15.0843 -1.96021,30.1686 -3.1665,44.91771"
         inkscape:connector-curvature="0" />
      <path
         id="path4905"
         style="fill:#eac102;fill-opacity:1;stroke:#000000;stroke-width:1;stroke-linecap:round;stroke-linejoin:round;stroke-miterlimit:3.98457432;stroke-opacity:1;stroke-dasharray:none"
         d="m -759.98893,554.42634 c -1.35706,-14.74911 -2.41256,-29.83341 -3.31727,-44.91771"
         inkscape:connector-curvature="0" />
      <path
         id="path4907"
         style="fill:#eac102;fill-opacity:1;stroke:#000000;stroke-width:1;stroke-linecap:round;stroke-linejoin:round;stroke-miterlimit:3.98457432;stroke-opacity:1;stroke-dasharray:none"
         d="m -808.54182,481.68647 c -7.53927,8.71538 -15.68168,15.58711 -24.42723,20.61521"
         inkscape:connector-curvature="0" />
      <path
         id="path4909"
         style="fill:#eac102;fill-opacity:1;stroke:#000000;stroke-width:1;stroke-linecap:round;stroke-linejoin:round;stroke-miterlimit:3.98457432;stroke-opacity:1;stroke-dasharray:none"
         d="m -797.53449,497.27358 c -6.78533,11.89985 -14.47539,22.79407 -22.91938,32.68266"
         inkscape:connector-curvature="0" />
      <path
         id="path4911"
         style="fill:#eac102;fill-opacity:1;stroke:#000000;stroke-width:1;stroke-linecap:round;stroke-linejoin:round;stroke-miterlimit:3.98457432;stroke-opacity:1;stroke-dasharray:none"
         d="m -806.88318,484.87093 c 7.99163,-10.55901 14.92776,-23.79967 20.6576,-39.55439 -6.63456,14.41388 -14.02304,26.48132 -22.31624,36.36993"
         inkscape:connector-curvature="0" />
      <path
         id="path4913"
         style="fill:#eac102;fill-opacity:1;stroke:#000000;stroke-width:1;stroke-linecap:round;stroke-linejoin:round;stroke-miterlimit:3.98457432;stroke-opacity:1;stroke-dasharray:none"
         d="m -786.82872,465.93175 c -3.31728,9.21819 -7.2377,17.76596 -11.61048,25.97853"
         inkscape:connector-curvature="0" />
      <path
         id="path4915"
         style="fill:#eac102;fill-opacity:1;stroke:#000000;stroke-width:1;stroke-linecap:round;stroke-linejoin:round;stroke-miterlimit:3.98457432;stroke-opacity:1;stroke-dasharray:none"
         d="m -751.24337,465.93175 c 3.31727,9.21819 7.2377,17.76596 11.76126,25.97853"
         inkscape:connector-curvature="0" />
      <path
         id="path4917"
         style="fill:#eac102;fill-opacity:1;stroke:#000000;stroke-width:1;stroke-linecap:round;stroke-linejoin:round;stroke-miterlimit:3.98457432;stroke-opacity:1;stroke-dasharray:none"
         d="m -815.02559,576.71758 c -1.20628,6.70413 -0.15078,10.55902 3.1665,11.73224 7.88829,5.31269 16.85411,5.59412 22.76859,4.69289 3.61885,-0.67042 6.1822,-2.51405 7.38848,-5.36331"
         inkscape:connector-curvature="0"
         sodipodi:nodetypes="cccc" />
      <path
         id="path4919"
         style="fill:#eac102;fill-opacity:1;stroke:#000000;stroke-width:1;stroke-linecap:round;stroke-linejoin:round;stroke-miterlimit:3.98457432;stroke-opacity:1;stroke-dasharray:none"
         d="m -777.93239,554.42634 c -0.90471,10.559 -1.9602,20.95041 -3.0157,31.34182 -0.30157,0.67042 -0.45236,1.34083 -0.75393,2.01124"
         inkscape:connector-curvature="0" />
      <path
         id="path4921"
         style="fill:#eac102;fill-opacity:1;stroke:#000000;stroke-width:1;stroke-linecap:round;stroke-linejoin:round;stroke-miterlimit:3.98457432;stroke-opacity:1;stroke-dasharray:none"
         d="m -756.37007,587.7794 c 1.35706,2.84926 3.76963,4.69289 7.53926,5.36331 8.84196,2.74492 15.34764,0.21324 22.61781,-4.69289 3.26353,-2.34437 4.4914,-5.21226 3.1665,-11.73224"
         inkscape:connector-curvature="0"
         sodipodi:nodetypes="cccc" />
      <path
         id="path4923"
         style="fill:#eac102;fill-opacity:1;stroke:#000000;stroke-width:1;stroke-linecap:round;stroke-linejoin:round;stroke-miterlimit:3.98457432;stroke-opacity:1;stroke-dasharray:none"
         d="m -759.98893,554.42634 c 0.90472,10.559 1.80943,20.95041 3.01571,31.34182 0.15079,0.67042 0.30157,1.34083 0.60315,2.01124"
         inkscape:connector-curvature="0" />
      <path
         id="path4925"
         style="fill:none;stroke:#000000;stroke-width:1;stroke-linecap:round;stroke-linejoin:round;stroke-miterlimit:3.98457432;stroke-opacity:1;stroke-dasharray:none"
         d="m -821.50936,572.3599 c 3.16649,0 5.42827,1.34081 6.48377,4.35768"
         inkscape:connector-curvature="0" />
      <path
         id="path4927"
         style="fill:none;stroke:#000000;stroke-width:1;stroke-linecap:round;stroke-linejoin:round;stroke-miterlimit:3.98457432;stroke-opacity:1;stroke-dasharray:none"
         d="m -723.0465,576.71758 c 1.20628,-3.01687 3.31727,-4.35768 6.63455,-4.35768"
         inkscape:connector-curvature="0" />
      <path
         id="path4929"
         style="fill:#eac102;fill-opacity:1;stroke:#000000;stroke-width:1;stroke-linecap:round;stroke-linejoin:round;stroke-miterlimit:3.98457432;stroke-opacity:1;stroke-dasharray:none"
         d="m -731.03814,484.87093 c -8.1424,-10.55901 -14.92774,-23.79967 -20.80837,-39.55439 6.63455,14.41388 14.02304,26.48132 22.46701,36.36993"
         inkscape:connector-curvature="0" />
      <path
         id="path4931"
         style="fill:#eac102;fill-opacity:1;stroke:#000000;stroke-width:1;stroke-linecap:round;stroke-linejoin:round;stroke-miterlimit:3.98457432;stroke-opacity:1;stroke-dasharray:none"
         d="m -798.28841,549.39823 c -4.67435,10.0562 -10.25341,19.27439 -16.73718,27.31935"
         inkscape:connector-curvature="0" />
      <path
         id="path4933"
         style="fill:#eac102;fill-opacity:1;stroke:#000000;stroke-width:1;stroke-linecap:round;stroke-linejoin:round;stroke-miterlimit:3.98457432;stroke-opacity:1;stroke-dasharray:none"
         d="m -821.50936,572.3599 c 6.78534,-8.04497 12.66597,-16.76035 17.64189,-26.31374"
         inkscape:connector-curvature="0" />
      <path
         id="path4935"
         style="fill:#eac102;fill-opacity:1;stroke:#000000;stroke-width:1;stroke-linecap:round;stroke-linejoin:round;stroke-miterlimit:3.98457432;stroke-opacity:1;stroke-dasharray:none"
         d="m -716.41195,572.3599 c -6.93613,-8.04497 -12.81676,-16.76035 -17.64189,-26.31374"
         inkscape:connector-curvature="0" />
      <path
         id="path4937"
         style="fill:#eac102;fill-opacity:1;stroke:#000000;stroke-width:1;stroke-linecap:round;stroke-linejoin:round;stroke-miterlimit:3.98457432;stroke-opacity:1;stroke-dasharray:none"
         d="m -739.78369,549.39823 c 4.67435,10.0562 10.25341,19.27439 16.73719,27.31935"
         inkscape:connector-curvature="0" />
      <path
         id="path4939"
         style="fill:#eac102;fill-opacity:1;stroke:#000000;stroke-width:1;stroke-linecap:round;stroke-linejoin:round;stroke-miterlimit:3.98457432;stroke-opacity:1;stroke-dasharray:none"
         d="m -740.53761,497.27358 c 6.93613,11.89985 14.47539,22.79407 23.07016,32.68266"
         inkscape:connector-curvature="0" />
    </g>
  </g>
</svg>
