<?xml version="1.0" standalone="no"?>
<svg xmlns="http://www.w3.org/2000/svg" width="250" height="200" viewBox="0 0 1000 800">
<title>Heraldic crescent</title>
<g style="stroke:#000000;stroke-width:11;stroke-linejoin:round">
<path style="fill:#fcef3c" d="M96.284,314.729
C96.284,529.658,277.108,703.946,500,703.946
C722.892,703.946,903.716,529.658,903.716,314.729
C903.716,224.184,871.65,140.797,817.826,74.6426
C800.425,339.193,610.219,424.904,500,424.904
C389.781,424.904,199.576,339.193,182.174,74.6426
C128.35,140.797,96.284,224.184,96.284,314.729Z"/>
<path style="fill:none" d="M182.174,74.6426
C171.443,108.679,166.534,147.056,166.534,179.346
C166.534,371.286,315.891,527.012,500,527.012
C684.109,527.012,833.466,371.286,833.466,179.346
C833.466,147.056,828.557,108.679,817.826,74.6426"/></g></svg>