<?xml version="1.0" encoding="utf-8"?>
<!-- Generator: Adobe Illustrator 16.0.0, SVG Export Plug-In . SVG Version: 6.00 Build 0)  -->
<!DOCTYPE svg PUBLIC "-//W3C//DTD SVG 1.1//EN" "http://www.w3.org/Graphics/SVG/1.1/DTD/svg11.dtd">
<svg version="1.1" id="Layer_1" xmlns="http://www.w3.org/2000/svg" xmlns:xlink="http://www.w3.org/1999/xlink" x="0px" y="0px"
	 width="608.953px" height="594.125px" viewBox="0 0 608.953 594.125" enable-background="new 0 0 608.953 594.125"
	 xml:space="preserve">
<g transform="translate(498.94 917.86)">
	<g transform="matrix(2.1289 0 0 2.1289 224.71 368.96)">
		
			<radialGradient id="SVGID_1_" cx="-506.8029" cy="-143.1246" r="44.1542" gradientTransform="matrix(4.6229 0 0 4.6229 2145.8979 196.7376)" gradientUnits="userSpaceOnUse">
			<stop  offset="0" style="stop-color:#F1D93E"/>
			<stop  offset="1" style="stop-color:#EABA1F"/>
		</radialGradient>
		<path fill="url(#SVGID_1_)" d="M-197.005-604.453l24.573,95.782l90.207-40.507l-59.565,78.931l87.913,45.269l-98.848,2.643
			l19.419,96.958l-63.698-75.635l-63.698,75.635l19.419-96.958l-98.848-2.643l87.913-45.269l-59.565-78.931l90.207,40.507
			L-197.005-604.453L-197.005-604.453z"/>
		<path fill="#C59624" stroke="#C59624" stroke-linecap="square" d="M-175.615-441.331c10.363,8.255,19.753,15.747,20.867,16.648
			l2.025,1.639l46.625-1.242l48.272-0.866l-35.323-8.129c-18.523-4.264-48.894-11.196-67.492-15.406l-34.749-7.865L-175.615-441.331
			L-175.615-441.331z"/>
		<path fill="#C59624" stroke="#C59624" d="M-194.516-458.997c0.121-0.017,11.918-2.702,26.215-5.965l25.995-5.933l28.245-37.426
			c15.534-20.584,28.884-38.173,28.871-38.196c-0.022-0.036-108.885,86.94-109.446,87.439c-0.209,0.187-0.073,0.107,0.122,0.08
			L-194.516-458.997L-194.516-458.997z"/>
		<path fill="#C59624" stroke="#C59624" d="M-195.321-455.438c0.101,0.068,9.565,7.605,21.03,16.749l20.845,16.625l9.208,45.974
			c5.064,25.285,9.461,46.926,9.439,46.94c-0.037,0.022-60.381-125.583-60.667-126.266c-0.107-0.259-0.02-0.128,0.144-0.018
			L-195.321-455.438L-195.321-455.438z"/>
		<path fill="#C59624" stroke="#C59624" d="M-199.585-456.233c-0.089,0.083-9.542,7.633-21.008,16.776l-20.846,16.625l-46.871-1.253
			c-25.78-0.689-47.855-1.217-47.864-1.242c-0.014-0.04,135.864-30.926,136.599-31.05c0.277-0.047,0.13,0.009-0.014,0.144H-199.585z
			"/>
		<path fill="#C59624" stroke="#C59624" stroke-linecap="square" d="M-197.616-430.468c-0.007,13.249-0.005,25.261,0.005,26.694
			l0.018,2.605l-30.042,35.678l-30.774,37.2l15.668-32.685c8.214-17.139,21.731-45.207,30.037-62.374l15.516-32.071
			L-197.616-430.468L-197.616-430.468z"/>
		<path fill="#C59624" stroke="#C59624" d="M-198.881-459.987c-0.044-0.114-5.286-11.018-11.648-24.23l-11.569-24.023
			l-42.773-19.208c-23.525-10.564-43.645-19.666-43.663-19.647c-0.03,0.03,108.987,86.812,109.599,87.245
			c0.229,0.162,0.121,0.048,0.05-0.137H-198.881L-198.881-459.987z"/>
		<path fill="#C59624" stroke="#C59624" stroke-linecap="square" d="M-185.855-482.345c5.742-11.94,10.956-22.762,11.587-24.049
			l1.147-2.339l-11.586-45.179l-11.587-46.869l-0.065,36.247c-0.036,19.007-0.036,50.159,0,69.228l0.065,35.628l10.44-22.666
			L-185.855-482.345z"/>
		<path fill="none" stroke="#855709" stroke-linecap="square" d="M-197.004-458.161v-144.881"/>
		<path fill="none" stroke="#855709" stroke-linecap="square" d="M-197.402-457.967l-113.271-90.335"/>
		<path fill="none" stroke="#855709" stroke-linecap="square" d="M-197.493-457.538l-141.25,32.238"/>
		<path fill="none" stroke="#855709" stroke-linecap="square" d="M-197.218-457.191l-62.863,130.538"/>
		<path fill="none" stroke="#855709" stroke-linecap="square" d="M-196.78-457.191l62.863,130.538"/>
		<path fill="none" stroke="#855709" stroke-linecap="square" d="M-196.505-457.538l141.25,32.238"/>
		<path fill="none" stroke="#855709" stroke-linecap="square" d="M-196.606-457.967L-83.335-548.3"/>
		<path fill="none" stroke="#855709" stroke-linecap="square" d="M-197.004-457.141v56.374"/>
		<path fill="none" stroke="#855709" stroke-linecap="square" d="M-197.402-457.335l-44.077,35.148"/>
		<path fill="none" stroke="#855709" stroke-linecap="square" d="M-196.606-457.335l44.076,35.148"/>
		<path fill="none" stroke="#855709" stroke-linecap="square" d="M-196.505-457.763l54.963-12.544"/>
		<path fill="none" stroke="#855709" stroke-linecap="square" d="M-197.493-457.763l-54.962-12.544"/>
		<path fill="none" stroke="#855709" stroke-linecap="square" d="M-196.78-458.11l24.46-50.792"/>
		<path fill="none" stroke="#855709" stroke-linecap="square" d="M-197.218-458.11l-24.46-50.792"/>
		<path fill="none" stroke="#855709" d="M-197.005-604.453l24.573,95.782l90.207-40.507l-59.565,78.931l87.913,45.269l-98.848,2.643
			l19.419,96.958l-63.698-75.635l-63.698,75.635l19.419-96.958l-98.848-2.643l87.913-45.269l-59.565-78.931l90.207,40.507
			L-197.005-604.453L-197.005-604.453z"/>
	</g>
</g>
</svg>
