<?xml version="1.0" encoding="UTF-8" standalone="no"?>
<!-- Created with Inkscape (http://www.inkscape.org/) -->

<svg
   xmlns:dc="http://purl.org/dc/elements/1.1/"
   xmlns:cc="http://creativecommons.org/ns#"
   xmlns:rdf="http://www.w3.org/1999/02/22-rdf-syntax-ns#"
   xmlns:svg="http://www.w3.org/2000/svg"
   xmlns="http://www.w3.org/2000/svg"
   xmlns:sodipodi="http://sodipodi.sourceforge.net/DTD/sodipodi-0.dtd"
   xmlns:inkscape="http://www.inkscape.org/namespaces/inkscape"
   width="500"
   height="300"
   id="svg2"
   sodipodi:version="0.32"
   inkscape:version="0.47pre4 "
   sodipodi:docname="Lion passant gardant.svg"
   inkscape:output_extension="org.inkscape.output.svg.inkscape"
   version="1.0">
  <defs
     id="defs4">
    <inkscape:perspective
       sodipodi:type="inkscape:persp3d"
       inkscape:vp_x="0 : 526.18109 : 1"
       inkscape:vp_y="0 : 1000 : 0"
       inkscape:vp_z="744.09448 : 526.18109 : 1"
       inkscape:persp3d-origin="372.04724 : 350.78739 : 1"
       id="perspective10" />
    <inkscape:perspective
       id="perspective2467"
       inkscape:persp3d-origin="372.04724 : 350.78739 : 1"
       inkscape:vp_z="744.09448 : 526.18109 : 1"
       inkscape:vp_y="0 : 1000 : 0"
       inkscape:vp_x="0 : 526.18109 : 1"
       sodipodi:type="inkscape:persp3d" />
    <inkscape:perspective
       id="perspective2783"
       inkscape:persp3d-origin="372.04724 : 350.78739 : 1"
       inkscape:vp_z="744.09448 : 526.18109 : 1"
       inkscape:vp_y="0 : 1000 : 0"
       inkscape:vp_x="0 : 526.18109 : 1"
       sodipodi:type="inkscape:persp3d" />
    <inkscape:perspective
       id="perspective3556"
       inkscape:persp3d-origin="0.5 : 0.33333333 : 1"
       inkscape:vp_z="1 : 0.5 : 1"
       inkscape:vp_y="0 : 1000 : 0"
       inkscape:vp_x="0 : 0.5 : 1"
       sodipodi:type="inkscape:persp3d" />
    <inkscape:perspective
       id="perspective4379"
       inkscape:persp3d-origin="0.5 : 0.33333333 : 1"
       inkscape:vp_z="1 : 0.5 : 1"
       inkscape:vp_y="0 : 1000 : 0"
       inkscape:vp_x="0 : 0.5 : 1"
       sodipodi:type="inkscape:persp3d" />
    <inkscape:perspective
       id="perspective5006"
       inkscape:persp3d-origin="0.5 : 0.33333333 : 1"
       inkscape:vp_z="1 : 0.5 : 1"
       inkscape:vp_y="0 : 1000 : 0"
       inkscape:vp_x="0 : 0.5 : 1"
       sodipodi:type="inkscape:persp3d" />
  </defs>
  <sodipodi:namedview
     id="base"
     pagecolor="#ffffff"
     bordercolor="#666666"
     borderopacity="1.0"
     gridtolerance="10000"
     guidetolerance="10"
     objecttolerance="10"
     inkscape:pageopacity="0.0"
     inkscape:pageshadow="2"
     inkscape:zoom="0.5"
     inkscape:cx="111.46628"
     inkscape:cy="108.20963"
     inkscape:document-units="px"
     inkscape:current-layer="layer1"
     showgrid="false"
     inkscape:window-width="1395"
     inkscape:window-height="874"
     inkscape:window-x="41"
     inkscape:window-y="-4"
     showguides="true"
     inkscape:guide-bbox="true"
     inkscape:window-maximized="1">
    <inkscape:grid
       type="xygrid"
       id="grid2560"
       visible="true"
       enabled="true" />
  </sodipodi:namedview>
  <metadata
     id="metadata7">
    <rdf:RDF>
      <cc:Work
         rdf:about="">
        <dc:format>image/svg+xml</dc:format>
        <dc:type
           rdf:resource="http://purl.org/dc/dcmitype/StillImage" />
      </cc:Work>
    </rdf:RDF>
  </metadata>
  <g
     inkscape:label="Layer 1"
     inkscape:groupmode="layer"
     id="layer1">
    <path
       style="fill:#000000;fill-opacity:1;stroke:none"
       d="m 403.6875,10.40625 c -3.18488,-0.114088 -6.58743,1.344201 -9.03125,4.65625 6.5676,1.293128 6.56662,6.263609 3.6875,11.09375 -1.63631,2.042137 -4.19364,5.886048 -6.71875,3.03125 -1.82053,-2.058222 -8.28746,13.584419 -24.76072,13.285692 -2.00883,-0.03643 -7.89037,-0.402902 -9.72748,-0.546415 12.59676,-9.48301 14.53033,-11.816846 17.62392,-11.435818 -3.18198,-2.65165 -4.59498,-3.450825 -11.13572,-4.334709 0,0 -8.66301,-7.234677 -18.5625,-4.40625 0,0 -9.55485,-4.441784 -17.15625,-0.90625 0,0 -10.06097,-4.24264 -15.1875,0 -2.65165,-0.353553 -12.53861,-1.754284 -16.78125,1.78125 -1.64167,0 -12.85427,0.722753 -22.5,8.65625 -25.60112,5.229491 -47.95542,18.267539 -26.87495,40.75 18.33819,19.557804 47.48765,10.592736 63.03125,12.875 -4.18213,4.092163 -9.97057,8.897683 -14.625,12.46875 5.05978,4.08029 12.13222,3.01089 18.0625,5.125 4.0216,1.78478 8.40309,-0.92946 12.21875,0.40625 5.23176,1.8258 11.04173,0.69838 15.84375,-1.8125 4.82839,1.11109 13.19487,-0.86171 17.9375,-2.59375 5.31824,2.16091 13.72455,0.07444 17.59375,-4.0625 4.8279,-1.120718 8.70888,-0.886507 15.8125,-8.96875 5.19646,-0.625461 8.30897,0.524229 11.59375,-3.59375 10.57964,-0.649372 22.71089,6.615368 30.1875,13.75 3.05214,2.439524 7.33859,7.30579 4.0625,10.5625 -25.04319,16.27488 -79.17436,0.0847 -109.8125,1.84375 C 315.77348,108.9817 220.58351,118.79236 207.9063,120 c -2.41613,-9.15218 -3.18104,-13.56339 -3.28125,-18.4375 -0.0636,-3.093633 -0.36371,-8.772936 2.3125,-15.78125 L 207,85.5625 l 0.0312,-0.21875 c -0.0123,-3.21899 -1.19916,-6.075372 -2.3125,-8.75 -1.0819,-2.599078 -2.0663,-5.046028 -2.21875,-7.46875 0.94748,-1.545152 1.38905,-3.122127 1.34375,-4.625 -0.0506,-1.679717 -0.58739,-3.237874 -1.1875,-4.71875 -1.17663,-2.903519 -2.58559,-5.549949 -2.46875,-8.09375 1.12819,-1.810239 1.53858,-3.459948 0.96875,-4.84375 -0.61674,-1.497731 -2.0954,-2.251519 -3.625,-2.46875 -1.95213,-0.277239 -4.20578,0.167615 -6.03125,1.375 -0.46792,0.309495 -0.91566,0.686051 -1.3125,1.09375 -0.81435,-1.584031 -1.64472,-3.936142 -2.75,-6.4375 -0.70855,-1.603537 -1.57908,-3.144314 -2.875,-4.375 -2.01479,-1.923771 -4.48586,-2.450257 -7.03125,-1.59375 0.39386,-1.856109 1.04412,-3.635523 1.4375,-5.5 -7.29281,-1.382237 -8.50716,0.189952 -11.28125,3 -0.20416,-0.969696 -0.45333,-1.995147 -0.875,-3.03125 -0.90395,-2.22116 -2.67604,-4.483502 -5.75,-5 -1.38043,3.425414 -2.78694,7.783837 -5.28125,9.5625 -0.37712,-0.561059 -1.44349,-1.590847 -2.03125,-2.4375 -1.1755,-1.693314 -2.88654,-3.701596 -5.46875,-3.8125 l -0.9375,-0.03125 -0.28125,0.84375 c -0.86792,4.650153 -5.00103,7.32328 -6.59375,11.5 -0.18677,0.19826 -0.22977,0.21736 -0.53125,0.1875 -0.60293,-0.05969 -2.0132,-0.866773 -3.46875,-1.875 -1.45554,-1.008237 -2.99721,-2.156924 -4.71875,-2.625 -0.86077,-0.234046 -1.81859,-0.253349 -2.71875,0.15625 -0.90016,0.409583 -1.61149,1.199422 -2.125,2.28125 l -0.15625,0.3125 0.0625,0.375 c 0.24667,1.725295 -0.22712,3.043643 -1.0625,4.40625 -0.83538,1.362599 -2.06582,2.704097 -3.34375,4.09375 -1.27792,1.389645 -2.57941,2.845392 -3.375,4.65625 -0.66608,1.516059 -0.75856,3.338385 -0.3125,5.28125 -5.50975,2.552379 -6.68638,8.980999 -5.59375,14.4375 0.70615,3.526434 -4.37194,2.046768 -6.3125,0.84375 -1.10705,2.42419 -1.44979,4.533313 -0.5625,7.03125 0.75476,2.124849 2.65412,3.984049 4.65625,6.59375 -2.05779,4.656811 -8.51376,6.040874 -12.78125,9.0625 4.46362,2.563262 7.3125,1.5 7.3125,1.5 -4.27903,9.28452 -9.360215,16.29238 -12.84375,27.875 7.46882,-0.17678 13.5,-4.21875 13.5,-4.21875 -2.47487,5.39169 -3.92402,15.4084 -2.15625,22.65625 6.27557,-5.48008 15.46875,-8.46875 15.46875,-8.46875 -3.66812,2.96101 -13.71875,21.09375 -13.71875,21.09375 -0.4319,-0.0753 -0.93868,-0.33879 -1.5625,-0.90625 -5.961105,-3.50899 -12.747536,-5.05737 -19.28125,-7.125 -8.728946,-2.7623 -11.50031,-3.48374 -19.4375,-8.25 -3.353009,-2.07408 -8.441987,-4.7533 -7.5,-11.21875 1.040911,-5.09647 -1.803487,-9.1955 -6.15625,-11.5625 -0.738854,-3.46629 -1.654034,-8.22802 -5.03125,-10.15625 -2.356272,1.99229 -3.351701,5.91159 -5.9375,9.15625 -3.584753,-0.62507 -4.295386,2.9545 -5.90625,5.09375 -2.956953,-3.43792 -7.112979,-5.33176 -10.65625,-2.875 -3.680187,-1.75171 -11.695153,-0.97258 -15.625,0.53125 2.719879,3.4514 4.752728,4.33038 6.3125,6.65625 -1.135582,3.69372 -2.462239,8.15961 0.1875,11.875 2.783689,2.71405 -1.39249,6.60724 -2.625,9.125 -1.411998,0.49811 -3.8926494,1.13758 -6.53125,7.96875 5.641365,2.072 6.715749,1.70895 9.53125,2.125 1.05597,0.9048 1.386628,2.74201 2.3125,3.84375 3.351932,3.98849 10.411674,3.99442 13.6875,0.5 2.970567,-3.1688 5.331995,-0.31032 8.625,-0.65625 0.176042,1.92399 -2.744723,6.94676 0.28125,9.78125 2.423858,3.50285 -1.813379,6.5139 -4.1875,8.5625 3.946401,0.7809 8.242835,0.76788 11.90625,-1.09375 4.220788,0.46254 9.915746,-1.66205 9.65625,-6.9375 2.608633,-1.99378 7.18828,2.31623 7.90625,5.4375 0.285834,3.76785 -3.273107,2.93923 -5.21875,2.65625 -0.08215,4.61291 6.795582,5.20917 10.5625,4.84375 -2.09361,2.92458 -2.702923,8.44587 -1.1875,11.90625 2.231275,-3.31685 4.755373,-3.47572 7.21875,-4.59375 0.138467,1.0073 -0.15625,2.0625 -0.15625,2.0625 0,0 2.659936,0.83653 5.625,-0.46875 -0.562184,0.65832 -1.30295,0.92035 -1.21875,1.96875 2.408161,0.84957 6.163569,2.43382 9.65625,1.34375 1.687439,9.57144 3.616756,9.86067 4.875,11.15625 1.296374,-2.2681 2.561551,-6.08003 7.09375,-9.1875 2.0266,1.11489 0.82109,15.42042 5.78125,16.1875 4.90361,0.75833 13.28892,-9.084 16.4375,-12.09375 3.27377,-3.12941 3.19422,-6.57076 6.1875,-3.75 2.99329,2.82076 7.56277,4.54861 11.28125,4.875 0.2524,5.07749 0.95678,10.12163 1.625,15.15625 -0.0885,2.57453 1.72193,6.86642 0.3125,8.34375 -2.96337,-1.33819 -6.06696,-2.64361 -9.28125,-2.53125 -2.22919,-4.85398 -8.30251,-5.15642 -12.90625,-3.78125 -4.89079,0.97922 2.04664,3.48548 1.625,5.90625 -2.6776,2.99551 -6.04222,7.84631 -2.625,11.8125 -2.38792,2.08457 -4.30358,5.03262 -5.15625,8.28125 -3.66851,2.9513 -6.29839,7.90415 -5.4375,12.71875 2.09872,1.43686 5.57712,-3.69151 8.625,-2.46875 1.26472,4.94916 7.1857,3.67999 10.28125,5.96875 2.5746,3.70845 3.09966,8.23442 5.625,12 4.0898,5.19277 3.16844,-5.65588 7.6875,-4.21875 8.97054,-0.54176 12.67957,-6.94262 11.46875,-14.96875 6.87537,0.0262 9.72555,-3.25691 12.3125,-6.25 2.97772,-3.44517 9.06637,-2.12685 11.90625,-5.96875 1.9662,-4.15773 5.73223,2.12112 7.40625,-0.71875 2.14199,-4.3686 -2.54753,-7.24862 -2.78125,-11.125 -0.47809,-7.92935 -8.17363,-4.37904 -6.5,-10.875 1.1505,-4.46556 5.2533,-6.64609 7.125,-2.0625 0.71859,-4.54796 -0.27224,-8.42888 -2.21875,-9.5 2.97567,1.38636 4.68827,1.93055 7,1.6875 2.0993,-0.1857 3.04275,-0.33339 7.3125,-2.78125 -2.20694,-1.13641 -6.12742,-2.87831 -8.21875,-6.3125 -1.63881,-2.69112 -0.33727,-5.60765 -3.59375,-8.71875 3.61344,1.29085 11.5665,0.91089 11.5625,-2.46875 -2.64439,-0.95942 -2.70254,-0.20407 -4.3125,-2.8125 11.33021,-2.40165 45.78125,-7.48474 49.625,-7.78125 15.8102,-1.21963 13.77842,-0.70186 17.4375,-2.53125 13.0416,-16.80293 35.82265,-15.62746 50.34375,-24.875 0.12972,7.29294 -8.49128,22.52044 -13.96875,27.375 -3.02366,2.28672 -10.72795,0.71699 -8.34375,-4.34375 -4.08003,0.41623 -5.00909,3.65007 -6.125,5.625 -1.83913,3.59405 -1.60359,9.74366 2.21875,12.28125 -2.34922,0.82406 -5.76922,3.83665 -7.09375,6.75 -4.95999,6.7534 -6.19573,17.08008 -6,25.25 6.336,-6.81534 11.37597,-13.43609 20.53125,-17.78125 2.67379,-0.87165 5.60263,-3.34883 7.90625,-5.28125 0.76903,5.9005 3.94435,13.0138 6.9375,18.0625 3.39545,4.19699 2.65725,4.98685 -1.21875,9.0625 -3.19636,3.32155 -6.93187,10.03499 -12.125,8.59375 -3.46857,-2.91565 -8.4451,-6.78824 -12.4375,-3.71875 -3.09424,-1.13045 -10.30615,-1.42477 -14.53125,1.78125 1.80289,2.37898 4.91843,4.46858 6.8125,7.125 0.18366,0.86917 -0.60088,2.06357 -1,3.15625 2.5966,3.65945 -1.58782,4.36342 -3.3125,6.78125 -0.25042,5.09837 -5.38602,10.87675 -6.15625,15.84375 3.17671,0.11404 5.09421,-1.75725 7.375,-1.84375 1.23491,2.91932 4.89185,1.61415 7.8125,4.5625 3.25404,2.10254 6.60292,-2.29375 8.90625,-1.3125 1.7101,3.80385 5.6963,6.06815 7.9375,9.65625 2.01504,3.64396 3.94405,0.27723 3.96875,-2.34375 3.05331,-1.76178 8.10349,-1.76585 9.5,-6.1875 1.88415,-3.85409 -1.38006,-9.8172 3.59375,-12.125 2.65573,2.01435 4.55165,1.50339 7.5625,2.5625 2.66399,0.70738 3.6393,1.8858 6.375,3.375 3.72175,-3.42508 1.94429,-6.99804 4.15625,-10.9375 1.54029,-3.89804 -3.58284,-7.04017 -0.65625,-10.53125 5.20022,1.61847 13.28968,0.47556 18.28125,-1.78125 -1.87482,-0.25595 -15.55368,-2.85856 -8.09375,-4 2.54844,-0.11445 6.75413,0.3319 7.75,-4.3125 -1.42982,0.0865 -4.58048,0.2654 -6.96875,-1.9375 3.06884,-1.95707 2.61281,-3.14562 2.8125,-3.90625 -4.18126,-2.05683 -2.45225,-1.86765 1.28125,-1.78125 0.65984,0.0157 1.14702,-0.12996 2.03125,-1.125 0.90061,-1.01349 2.62708,-2.8968 2,-4.40625 -2.85932,0.12914 -3.62459,0.45134 -4.9375,-0.4375 6.045,-5.97599 -10.75003,-26.71873 -10.75,-26.71875 9.19487,-6.26923 9.92775,-14.57667 10.78125,-9.59375 5.71197,-6.12993 9.375,-16.9375 9.375,-16.9375 1.45734,-1.16203 1.82945,-2.29189 1.78125,-3.1875 0.99702,1.22011 2.84073,3.1271 6.1875,5.96875 7.28136,8.99642 6.48485,16.17291 11.34375,28.75 -0.0569,5.09597 -6.2821,11.34214 -8.96875,12.28125 6.84129,14.99517 13.77715,0.88212 14.46875,0.34375 -0.41359,2.56012 -0.0935,3.2055 0.3125,4.65625 1.66338,5.94354 4.33589,12.85792 9.9375,16.125 2.29918,1.34098 4.65827,3.97497 9.1875,2.46875 -2.65796,-4.25205 -4.77846,-9.1979 -4.40625,-14.25 0.35372,-4.8008 1.28614,-10.33427 0.21875,-15.15625 1.9549,0.71679 5.40427,2.31034 7.65625,2.53125 5.01505,0.40694 8.78101,4.23179 7.65625,9.40625 -0.57313,6.00667 -0.48383,12.20339 -2.21875,18.03125 -0.90826,4.2712 -4.87651,6.35538 -8.59375,7.84375 -4.3316,1.26393 -2.42776,6.8632 -6.28125,8.375 -3.15963,2.7256 -5.45419,7.39532 -4.125,11.46875 2.77962,-0.2989 5.22051,-3.98221 8.71875,-2.9375 1.43453,2.48601 5.18203,2.78099 5.59375,5.75 -1.11183,3.70718 1.89218,6.70827 4.5625,8.6875 1.07106,3.56285 2.78524,7.8007 6.78125,8.875 1.4986,0.96269 1.30265,-1.53822 1.34375,-2.3125 -1.06495,-4.71466 3.50752,-5.04423 6.53125,-6.46875 3.83441,-2.12175 5.60767,-6.30583 5.8125,-10.46875 3.68491,-2.41653 7.72034,2.29166 11.4375,3.125 1.64245,-2.1749 -0.26371,-6.5975 1.65625,-9.3125 5.12165,-4.04437 6.89306,-12.82116 1.71875,-16.9375 -3.46639,-0.31392 -3.98918,-3.29967 -1.9375,-5.6875 3.78004,0.22899 4.27584,-3.11957 7.375,-4.125 1.63286,0.40956 2.45111,-0.5972 4.84375,-0.78125 -0.56253,-8.56817 -9.99134,-10.6472 -9.3125,-14.4375 0.46597,-2.60167 5.13216,-5.3737 6.375,-9.1875 -11.54455,6.67345 -1.94711,-2.92836 -3.88557,-6.38756 -1.41331,1.16438 -2.99608,1.78921 -4.73223,1.60095 2.24908,-3.35033 1.25599,-4.25777 2.73039,-7.92249 0.35918,-0.89276 -0.4849,-1.04809 -2.47765,-0.66919 0.41437,-2.29879 2.48951,-4.4355 2.0616,-6.01479 -2.31422,0.0147 -2.8493,-0.18107 -4.08487,0.44394 1.25888,-1.80372 2.96263,-5.0987 3.05399,-8.1735 -0.65511,-0.55225 -1.97547,-0.1006 -3.11349,0.27893 2.15748,-4.08888 3.12378,-10.04264 2.29158,-11.46879 -3.46508,2.49329 -8.75605,7.01746 -13.4375,6.1875 -6.47926,-0.52776 -12.36552,-3.1547 -18.96875,-2.15625 -0.50949,-1.04978 -1.45117,-3.30481 -9.6875,-7.71875 -17.05916,-12.10296 -3.20199,-31.48559 -14.0625,-33.71875 30.00139,3.87666 42.47859,7.96951 70.21875,-10.65625 7.55318,-5.28405 14.08857,-11.20066 19.3125,-13.09375 7.27366,-2.93877 15.91944,-1.11996 23.09375,1.59375 -4.04478,-10.438052 -15.3296,-18.841402 -26.90625,-18.96875 6.65196,-7.644769 6.47483,-16.89147 4.25,-26.03125 -0.29408,-1.698995 -1.15334,-5.513564 -2.625,-7.21875 -1.26825,5.54365 -8.2547,17.913132 -10.90625,22.90625 -2.06569,-10.329282 -8.79185,-16.498485 -18.21875,-21.375 4.14027,5.807999 7.04983,17.786765 8.03125,25.375 -2.89097,-2.456089 -7.22063,-4.902702 -11.625,-7.90625 -0.66435,-0.453049 -14.37042,-11.496868 -27.46875,-11.34375 -15.74808,0.184093 -31.2038,4.478316 -46.8125,6.8125 -13.3987,2.003691 -34.64732,-1.204364 -47.90625,-2.4375 -22.51575,-2.094059 -39.91233,-4.897376 -47.03125,-5.90625 -6.46154,-0.915712 7.98755,-8.83875 12.78125,-9.8125 34.78926,-7.066778 52.5115,6.559317 78.65625,7.875 6.943,-0.121158 14.59793,-0.64232 21.3125,-2.4375 10.16258,-2.717047 10.72407,-3.594425 18.84375,-5.375 8.11971,-1.780596 15.84473,-2.016203 23.21875,2.5 4.56241,2.794227 3.53515,4.427205 3.59375,10 11.49575,1.626487 12.91299,-9.84787 10,-16.6875 7.48491,1.099644 24.4525,4.237096 26.71875,10.25 1.2862,-5.647761 -1.78486,-12.279896 -4,-11.90625 -1.60555,-3.211741 -2.59141,-6.83594 -5.1875,-9.5 -2.36345,-2.944527 -5.82903,-4.742219 -9.25,-6 -3.3936,-4.850812 -9.38343,-8.117107 -15.375,-7.59375 -6.12112,-3.976387 -10.18649,-9.225732 -16.90625,-4.46875 -0.70835,-4.638823 -4.40516,-7.353316 -8.5,-7.5 l 5e-5,0 z"
       id="path2472"
       sodipodi:nodetypes="cccssccccccccscccccccccccccscccscsscssscsccccsccsccccsssscccssscscscccccccccscccccccccccccssccccccccccccccccsssccccccccccccccsccssccccscccscccccccccccccccccccccccccccccccccccssccscccccccsscsccccccccccccccccccccscccscccccccccccccccccccsssssscssscccccccccc" />
    <path
       id="path2730"
       style="fill:#cc0000;stroke:none"
       d="m 294.43243,276.17231 c 1.03499,-2.67146 4.29486,-6.20213 1.16228,-8.6973 -5.56422,-2.13949 -6.45014,6.65312 -2.43532,9.08176 0.72932,0.75137 1.05601,0.53643 1.27304,-0.38446 z m 26.07755,-22.51558 c -4.98894,2.15708 1.49375,8.17307 3.3619,9.04326 l 0.4497,-1.59518 c 0.43784,-3.84546 0.74981,-6.91219 -3.8116,-7.44808 z m -55.81827,10.51606 c 2.78994,-1.85153 8.72297,-0.24774 8.99985,-4.66515 -1.6595,-5.1374 -7.81834,-1.191 -8.99118,2.29895 -0.25602,0.59452 -2.25082,4.14852 -0.009,2.3662 z m 13.44249,-23.16588 c 5.17651,-9.47319 -8.7323,-7.24382 -10.46945,-5.89212 2.25257,2.15917 6.74359,8.76519 10.46945,5.89212 z M 47.500821,175.3936 c 3.741951,-3.61229 -2.534817,-7.99462 -4.714033,-3.23163 -0.354629,2.07002 -4.751939,5.74105 -0.12076,4.82644 1.704128,-0.14775 3.403211,-0.63902 4.834793,-1.59481 z M 18.79935,151.18018 c 0.227749,-8.97087 -8.320666,-4.09325 -9.3343278,0.94637 3.3666868,1.51871 7.9800508,0.70078 9.3343278,-0.94637 z M 46.526822,109.3669 c 4.714524,2.45789 4.665977,11.37531 1.241723,10.37723 l -1.264352,-0.36852 c -3.591886,-1.04694 -2.286703,-6.97886 0.02263,-10.00871 z m -23.233835,15.05276 c 3.076008,-5.77688 -6.670734,-6.88725 -10.812376,-5.37703 2.716602,1.47629 8.344701,10.01145 10.812376,5.37703 z M 184.74537,238.3339 c -0.22284,-3.31544 -4.32984,-7.42241 -7.49478,-4.80871 -3.12422,4.33386 5.25807,5.46512 7.51568,5.40371 l -0.0209,-0.595 0,0 z m -43.53514,26.19656 c -0.71904,-6.60163 -9.13064,-0.25821 -5.79407,3.99254 0.22057,2.61698 2.62972,3.92644 3.40412,0.69008 0.76497,-1.53437 2.40416,-2.86958 2.38995,-4.68262 z m -16.61435,-14.79775 c -0.88106,-6.21079 -8.75847,-3.39381 -10.09215,1.05919 -1.4555,1.59375 -2.27273,5.98887 0.89717,3.43628 2.76198,-1.39568 6.57867,-0.62109 8.65914,-3.19227 0.27008,-0.38842 0.46153,-0.83464 0.53584,-1.3032 z m 8.74799,-24.3555 c 1.16401,-4.73742 -7.1295,-5.98288 -8.52397,-3.75024 1.88813,2.37321 3.40856,7.10735 7.27156,5.89555 0.84732,-0.32038 1.4302,-1.23375 1.25241,-2.14531 z m 277.01908,52.61596 c -0.13898,-3.5636 4.64871,-7.83825 0.97183,-10.63529 -4.88603,-1.79345 -5.86021,5.46341 -3.6431,8.40605 0.34421,0.45298 2.37358,4.49726 2.67127,2.22924 z m 24.42235,-17.29558 c 1.53011,-3.45533 -0.28632,-9.47185 -4.90833,-6.56172 -4.28462,2.37095 4.22899,11.23453 4.90833,6.56172 z m 11.617,-35.1174 c -0.89983,-2.85674 -3.78519,-6.62422 -7.12107,-4.66421 -3.96672,3.17935 1.19586,5.72371 4.3072,4.79002 0.72227,0.37016 3.76775,2.11572 2.81387,-0.12581 z m -50.58766,29.17925 c 3.51955,-4.68825 -3.50732,-6.42943 -5.74397,-2.64068 -1.83584,1.59174 -4.54233,7.56293 -0.045,4.58916 1.9141,-0.61692 4.47111,-0.0424 5.78892,-1.94848 z" />
    <path
       id="path2899"
       d="m 389.40576,172.06983 c -6.79218,-8.6578 -12.36167,-18.36479 -20.52044,-25.88932 -2.59601,-1.44725 -1.4028,-4.53081 1.04517,-2.12003 7.72856,7.20052 12.86973,16.58293 18.42905,25.43515 -0.0613,0.45778 1.79169,2.39143 1.04622,2.5742 z"
       style="fill:#000000;fill-opacity:1;stroke:none" />
    <path
       style="fill:#ffffff;fill-rule:evenodd;stroke:#000000;stroke-width:2.49999976;stroke-linecap:butt;stroke-linejoin:miter;stroke-miterlimit:4;stroke-opacity:1;stroke-dasharray:none"
       d="m 151.08412,109.06864 c 0,0 -0.35963,-4.19094 -0.31513,-6.42686 0.0348,-1.76137 -1.34668,-4.326069 -1.34668,-4.326069 0,0 -2.24215,1.638898 -2.75876,3.351479 -0.65742,2.17926 -0.43505,5.64499 -0.43505,5.64499 l 4.85562,1.75646 z"
       id="path10104"
       sodipodi:nodetypes="cscscc" />
    <path
       id="path10004"
       style="fill:#edd400;fill-opacity:1;stroke:none"
       d="m 138.34676,162.43434 c -1.69589,4.22853 -3.54968,6.13297 -5.13747,8.95242 -0.0721,0.12809 -0.0762,2.13368 -0.12717,2.26354 1.55403,7.27701 7.08976,11.7695 10.19864,13.60666 -0.74406,-2.13732 -1.96843,-6.3382 -2.87393,-8.92699 -1.34994,-3.8594 -1.12591,-11.07679 -2.06007,-15.89563 z m 14.08989,-2.467 c 0,0 -1.59805,7.65716 -3.56063,15.43784 4.61643,12.6351 6.79062,12.66564 6.79062,12.66564 1.79516,-6.18334 2.36656,-10.79678 2.5433,-13.12344 -1.77933,-3.33444 -3.73464,-8.04776 -5.77329,-14.98004 z m 29.83293,-4.29818 c 3.34263,8.57455 2.33983,11.19052 2.33983,11.19052 2.61597,-0.29066 11.90628,-1.30798 13.50493,1.01732 -1.88931,-6.10392 -4.50164,-8.41832 -4.50164,-8.41832 0,0 -8.29116,-0.0109 -11.34312,-3.78952 z m 8.36746,-18.03201 c 0.0727,4.06928 1.72944,8.36746 1.72944,8.36746 0,0 5.0975,0.007 5.82416,0.66126 -1.30799,-3.19729 -7.3356,-9.02872 -7.5536,-9.02872 z m -63.83687,-8.11313 c -0.78119,1.46854 -1.6822,2.92181 -2.64504,4.39991 -6.29544,7.80807 -12.88253,15.91834 -15.51414,25.56018 5.84052,-4.13386 11.12509,-9.5687 17.75225,-12.36045 1.03228,-6.44539 0.67562,-13.99699 0.40693,-17.59964 z m 69.64968,-23.5953 c 0.41022,2.85098 4.86551,19.49304 5.88638,23.97679 2.02815,-0.29018 8.60147,-0.7027 9.09439,-2.018 -3.87818,-0.065 -11.57886,-16.75609 -14.98077,-21.95879 z M 162.55899,28.783833 c -0.56847,2.388197 -2.07657,5.808855 -4.47621,7.324712 -0.71696,2.126525 -2.07745,6.005146 -2.23811,4.934005 -0.17478,-1.165231 -0.32608,-2.333018 -1.11905,-4.247314 -2.41314,-1.037464 -3.04409,-4.198279 -5.34094,-5.671563 -1.78694,4.239957 -4.79036,8.252261 -7.65533,11.622889 -4.58318,1.982978 -7.38975,-4.803137 -11.57203,-3.967551 -0.42133,3.203218 -1.11288,6.355398 -3.73865,8.545494 -2.93447,2.906998 -7.02244,7.458279 -4.01842,11.699188 -6.337,0.889618 -8.15277,8.459876 -6.20565,13.632097 -0.0876,3.702404 -5.51535,4.093625 -8.0877,2.746765 -0.45351,6.639108 3.34705,5.729469 4.73054,10.274939 -0.71259,1.96067 -1.49673,4.817079 -9.71541,7.935101 2.91866,0.989601 3.696,0.470604 6.98951,0.01665 -0.7777,1.289425 -0.47278,1.507815 -1.47055,3.340506 -3.62151,7.078249 -7.80911,13.731249 -11.47029,23.550979 1.73798,1.40366 9.05792,-6.85632 12.02982,-6.66345 3.54522,0.0163 10.36493,-7.38413 13.0217,-11.72463 l 4.47621,-8.545491 -0.0509,2.263539 c 0,0 -0.0907,3.301246 -2.28897,7.426442 -2.18262,4.09576 -6.47467,9.10285 -14.70029,12.89454 -1.4918,7.65264 -5.19666,13.00015 -4.45078,21.21114 2.22503,-2.29653 11.40821,-4.44935 16.58233,-6.71432 6.27593,-6.88873 7.12125,-13.68296 7.12125,-13.68296 0.46711,2.6687 0.30015,5.06283 -0.27977,7.32471 0.49112,2.86736 1.70302,16.84777 0.40693,21.84696 -4.00019,15.42924 -10.12742,19.67366 1.24622,33.72418 -1.3848,-9.20391 5.36007,-15.8983 7.35014,-24.77176 1.0535,-3.50166 2.24484,-9.36659 4.95944,-13.04714 -0.77305,3.264 -2.15685,12.68371 -2.59417,18.08288 0.78685,6.57216 0.8739,18.99719 4.17102,24.59372 3.13145,-6.60545 4.63429,-21.2081 7.7825,-30.74851 2.18684,3.16412 6.02025,20.07061 14.11532,27.13703 -0.33198,-7.11978 -3.85845,-14.23567 -0.58496,-22.66082 -0.36377,-2.00271 -2.56856,-3.44572 -3.76408,-4.83227 -0.41208,1.02132 -0.80987,1.6986 -1.72945,2.21267 -7.33769,-4.48489 -1.85697,-11.80397 -2.5433,-14.95462 -1.96886,3.82274 -8.34425,6.30576 -12.08068,7.01952 1.44838,-2.93765 3.26643,-5.78988 3.86582,-9.05416 0.33629,-3.43803 -1.60955,-6.66726 -1.29709,-10.1732 -0.72231,-0.68431 -1.56167,4.83798 -1.65314,6.20565 -7.65776,-1.67078 -4.81082,-11.55823 -4.09472,-15.46327 -2.81926,1.96965 -3.56766,7.30092 -4.90857,7.65534 -3.04182,-4.56984 -1.55329,-11.09803 -0.71213,-16.04824 -2.06932,2.75422 -4.18901,2.28501 -7.5536,1.80575 2.27818,-2.99933 1.5387,-6.49803 0.63582,-11.21597 0.75636,-4.307992 4.29153,-4.010902 5.6207,-8.11313 1.37943,-3.697505 1.08516,-4.436022 -0.58496,-7.350141 -6.60884,-10.100367 9.76879,-9.234546 14.42052,-14.217057 1.4274,-1.379576 0.44007,-3.754369 2.5433,-3.840385 0.14034,0 0.28843,0.0099 0.4578,0.02539 0.77664,3.499551 -2.08692,6.317919 -4.83228,7.935101 -5.21144,3.275089 -10.6533,1.118255 -11.82635,4.883139 -0.11512,4.492847 2.18434,5.959733 2.8485,10.249506 0.58944,5.058102 -4.4113,5.927977 -6.51085,10.096907 -1.34469,3.34387 2.85934,6.76093 -0.20347,10.07148 3.05988,-0.87262 4.90455,-3.67426 6.40912,-6.28196 0.63593,-1.15789 1.27744,-2.4293 1.11906,-0.33063 0.86365,5.61997 -2.32315,11.00226 -1.24622,16.60776 1.45276,-3.27457 4.93807,-4.76448 7.80793,-6.58715 -1.05193,3.21654 -2.08348,6.48068 -2.3907,9.86801 -0.33566,1.83847 0.0174,6.59079 1.22079,6.38369 0.58242,-2.60718 2.0809,-6.12926 5.26463,-5.90046 0.41304,2.11056 -0.18307,5.45329 0.61039,7.88424 1.33196,3.23394 1.26884,8.18923 -0.38149,11.31769 3.28228,-0.14612 5.26995,-3.43759 6.48542,-6.00219 0.18444,-4.58211 0.0762,-10.50384 0.0762,-10.50384 1.65903,4.67378 3.30697,8.93855 3.1537,13.83556 -0.11622,3.71281 -3.83774,9.46982 0.0254,11.87722 2.11368,-4.50068 3.99132,-6.21276 6.38369,-10.04604 3.44893,-5.5262 -0.30976,-14.32672 1.01732,-18.51524 6.95166,1.49397 4.69727,2.74821 10.58013,6.02763 5.85381,-8.48037 0.43361,-15.98412 -1.09362,-20.32098 3.45474,2.45729 7.89371,6.96586 9.79172,10.91076 3.40502,-6.54698 0.45356,-11.20153 -3.73866,-15.89564 -0.88464,-0.48729 -1.36878,-1.15625 -1.47511,-1.83118 -0.63595,-0.98382 1.622,-7.449052 2.11094,-9.257613 1.36109,-5.376564 4.49577,-9.840323 -2.28897,-12.156982 -6.09064,-1.374489 -12.18674,-8.198929 -14.92918,-14.191623 2.43175,0.331207 5.2034,4.6574 6.79061,6.358254 3.8949,5.623521 11.83853,3.879825 14.67485,10.783599 -0.44799,6.078459 -3.24121,11.801661 -5.0103,17.497915 3.02576,3.20827 6.15854,6.60145 7.19754,11.0125 1.16998,4.79567 -1.21155,8.95914 -4.17101,12.48761 -0.13239,-3.32686 -1.38043,-5.10171 -3.73866,-8.85069 1.55598,7.2075 -0.70291,12.75914 -4.12015,18.795 -0.65006,-3.2124 -5.40742,-6.47428 -8.31659,-8.54549 1.20293,3.70318 1.28318,7.72067 0.50866,11.52115 -0.93323,5.80087 -4.197,7.91127 -7.27385,13.42864 1.77875,1.43624 5.12667,3.83902 6.33283,8.34203 4.04564,5.40632 8.07,7.11992 11.72462,15.59044 3.277,-7.9486 0.45283,-17.87381 -2.16181,-25.53475 -3.35632,-5.3019 -6.35825,-7.01952 -6.35825,-7.01952 3.33986,-0.0759 7.45679,4.66072 9.38478,7.14668 0.0297,0.0382 0.0732,0.09 0.10173,0.12717 0.82019,0.84419 1.63783,1.82879 2.26354,2.18724 2.91746,2.83918 7.87019,4.07954 11.57202,3.38259 -6.98148,-6.84388 -7.42335,-17.47581 -6.45998,-26.6538 3.99878,1.84995 6.84556,6.47539 10.93619,7.52817 -0.0427,-1.43842 0.0156,-2.51976 0.17803,-3.48432 -0.88276,-2.60844 -1.55249,-7.57054 -1.90747,-12.36045 -1.69207,-4.65057 -2.64766,-9.5904 -3.61149,-14.44596 -1.33251,-5.51296 -3.41922,-16.020918 -2.11094,-24.161363 0.907,8.291783 6.32181,23.437653 12.32809,32.071913 -3.46054,-10.8854 -2.12849,-23.831608 -0.65434,-31.563253 -1.1732,-5.789026 -6.3835,-11.752308 -3.10282,-17.701379 0.37661,-5.80012 -5.97594,-11.332896 -2.46701,-17.065554 -0.80487,-2.965026 -5.67979,-1.027275 -6.94321,0.915588 -0.43739,3.560557 -3.79741,-0.142107 -4.42534,-2.060074 -1.76729,-4.055683 -2.8255,-11.507606 -8.82526,-10.427537 -3.32316,1.552252 -4.58928,-3.151464 -2.89937,-5.3918 -9.21056,1.519397 -7.54796,4.497949 -8.41824,8.316597 -1.53313,-5.667315 -1.55167,-9.21192 -4.55251,-11.699188 l 8e-5,4.3e-5 z m -29.40057,11.699191 c 6.67116,9.282432 -0.97492,10.063059 -1.52598,12.284147 -0.77395,4.349168 -4.19538,3.830293 -7.60447,4.730541 3.04348,-5.671563 8.12161,-5.239202 9.13045,-17.014688 z m 4.98487,8.647225 c 6.72578,-0.174507 11.17714,8.541189 18.03201,3.713221 6.92297,-1.007693 -4.04272,6.784975 -7.47731,3.484323 -2.84337,-3.272932 -11.01323,-2.538524 -10.5547,-7.197544 z m 56.6902,0.864723 c -1.13816,3.292277 -0.21132,7.570868 0.61039,11.088795 0.53552,2.003829 4.79355,4.994418 2.00921,4.527077 -4.48744,-1.329093 -9.37401,-9.858928 -4.85771,-13.021704 l 2.23811,-2.594168 z m -29.17167,2.645034 c 5.06471,6.339185 11.07049,1.434348 16.98925,0.305196 6.40009,-0.06364 -0.42466,3.896997 -3.63692,3.408024 -3.42349,4.048692 -17.42004,1.424241 -13.35233,-3.71322 z m -11.03793,21.389167 c 0.25052,-0.01213 0.46513,0.06763 0.58496,0.279763 1.27935,2.264751 5.18123,7.610332 5.62069,7.960534 1.41785,-0.951976 6.16925,-5.013641 8.164,-5.976759 0.5815,-0.280789 1.39244,1.095085 1.27165,1.729445 -0.60424,3.164478 -8.62142,4.996095 -8.69809,5.010304 l -0.76299,6.434554 c 2.54057,1.060951 4.838,2.127201 6.63802,4.22188 0.33853,0.403063 0.68062,0.751735 0.96645,1.017321 1.19482,0.194935 2.41802,0.319577 3.61149,0.432361 1.09638,-0.177485 1.84754,-0.385849 2.00921,-0.432361 1.83682,-1.384215 3.23468,-3.228333 4.934,-4.755974 1.16466,-0.527721 2.34079,-0.0024 3.53519,0.101732 l 0.27977,2.034641 c -1.39518,0.210773 -2.36027,-0.319105 -2.64504,-0.381495 -0.14238,-0.03117 -0.0618,-0.03915 -0.17803,0.02539 -0.11618,0.06454 -0.41197,0.288863 -0.83929,0.864723 l -0.0254,-0.02539 c -1.03864,1.523564 -2.53678,2.666446 -3.94212,3.840385 l -0.1526,0.127165 -0.20346,0.05087 c 0,0 -0.0704,0.02352 -0.0763,0.02539 0.31694,2.926359 0.81606,11.507338 -3.99298,13.911858 -1.83702,0.91851 -4.49241,1.19491 -7.45188,1.06819 -0.009,0.0236 -0.0167,0.0531 -0.0254,0.0763 -1.38063,3.64867 -7.50274,8.2403 -7.50274,8.2403 0,0 -3.5036,-6.07902 -4.65424,-9.18132 -0.13447,-0.36253 -0.22964,-0.76517 -0.3052,-1.19535 -2.18905,-0.56123 -4.11288,-1.15539 -5.49353,-1.62772 -5.16644,-1.76746 -3.26172,-9.866405 -1.44968,-15.310674 -0.59015,-1.399475 -0.43035,-3.052775 -0.61039,-4.577943 -0.98826,-0.0634 -1.95618,-0.163365 -2.9248,-0.356062 -0.59246,-0.196261 -1.26833,-0.673987 -1.50055,-1.449682 l 1.95834,-0.584959 c 1.6916,0.243359 3.21772,0.301167 4.42535,1.678579 0.24541,1.247219 0.27033,2.52324 0.33063,3.789519 l 4.01841,1.09362 c 1.76474,-0.547457 3.34663,-1.51488 5.08661,-2.136373 1.67125,-0.445562 4.28333,-0.676787 4.75597,-0.712125 l 0.61039,-6.434553 c -2.19694,-2.334759 -5.53361,-3.69132 -7.12124,-7.222977 -0.076,-0.726985 1.00332,-1.616701 1.75488,-1.653146 l -6e-5,3.9e-5 z m -33.95308,7.655338 0.61039,2.797631 c 0.49932,2.330137 0.93128,7.813723 -1.47511,13.428633 -1.52598,3.560625 -9.07959,5.671565 -9.07959,5.671565 l 3.63692,-3.35716 c 7.22036,-4.524709 3.53773,-10.110141 4.70511,-16.175399 l 1.60228,-2.36527 z m 27.07619,99.017159 -2.38705,15.48503 c 0.3382,7.73394 2.11595,22.45882 2.16726,30.1938 -2.69227,3.86578 -7.6377,-2.96924 -11.72289,-1.30527 -0.0288,5.74004 -7.07856,5.58657 -9.90042,2.43816 -3.35927,0.9379 -4.74604,6.23723 -2.118,8.54588 3.86149,0.94141 8.63427,1.50648 11.59975,-1.37915 1.96752,1.96704 7.2086,-4.91126 8.44737,-1.87173 -3.04338,2.33352 -6.44104,4.74362 -10.24521,5.81219 -2.77988,-1.17433 -1.75614,3.95355 -3.81733,1.25602 -2.65927,-3.56958 -10.84895,0.354 -9.3586,3.89121 3.46708,-0.22992 6.82992,2.87845 6.30475,6.50177 0.0134,3.17083 -7.28425,4.82959 -2.31503,7.33911 4.52303,2.92758 9.80577,-5.16927 8.07796,-8.44737 4.65693,1.11856 7.19381,-4.68073 10.24521,-7.31449 1.59373,-1.00837 3.68989,-6.72824 5.41812,-4.26062 -1.45073,4.62521 -7.35639,9.07808 -8.54587,12.06767 4.28752,1.63269 -3.19686,0.4873 -4.48228,3.00461 -1.49443,2.92664 -4.87589,7.45748 -1.9456,10.29447 1.75179,-1.3867 4.07748,-4.70363 7.19135,-3.42329 4.14937,0.9007 1.76115,6.26043 4.06359,7.70854 5.86066,-0.6011 8.40676,-13.14449 7.53616,-15.7865 3.42522,1.27114 10.59623,-2.06106 15.41706,-6.57564 1.21587,-1.143 2.28562,-4.32684 3.22625,-4.72857 -0.22022,2.11199 0.37318,1.85138 1.69933,2.38891 2.63689,1.06885 8.65206,-2.52073 3.34941,-4.30988 -3.68447,-3.75985 1.8217,-9.57727 6.05845,-7.36374 0.10347,-4.43541 -5.84434,-9.30565 -9.38322,-2.56131 -0.70467,-4.11867 4.34538,-7.07841 2.95534,-10.46685 0.006,-3.50546 2.76231,-6.36652 6.28012,-6.15698 0.18584,-4.16857 -4.48087,-6.21981 -7.19135,-8.34886 2.61496,-2.56559 7.36651,2.76043 10.81164,3.05385 1.45511,0.467 3.38368,0.78636 6.6988,0.0739 -4.94849,-2.21786 -10.58039,-9.62541 -14.97376,-11.59975 4.76851,0.31748 7.09959,3.08352 8.98917,4.16212 -0.23784,-3.87385 -4.61686,-8.16776 -7.70853,-11.2057 1.80796,0.23627 9.84534,3.87744 14.30881,1.92098 -10.80586,-7.16982 -18.0754,-18.08947 -26.19506,-28.1537 l 0.5728,21.16431 -6.75019,-3.49378 -3.99354,11.36906 -8.38477,-9.91841 z m 159.49133,-16.50608 c -4.40264,5.29915 -7.6174,16.56864 -15.15789,17.23134 -3.47038,0.85736 -6.04898,-1.78469 -7.62286,-4.17079 -3.62136,3.37884 3.16844,8.1567 6.09492,8.91169 -3.99254,2.34402 -5.83902,-1.44043 -8.80366,-2.88089 -0.97968,5.29952 3.4809,5.89692 6.2966,8.60584 -5.55251,1.59201 -11.98764,9.03102 -14.08226,14.02664 2.40545,-2.77713 6.27125,-5.64484 19.55564,-11.94615 -7.95095,6.45059 -23.50273,11.19784 -20.9759,23.41467 4.82756,-6.06972 11.08789,-10.72748 17.74012,-14.61546 20.98494,-11.62178 10.13191,-24.85177 9.31491,-4.68274 1.65514,7.20463 5.78924,16.11768 9.04935,22.63189 1.68095,5.18923 -1.9536,7.17447 -5.05523,10.90681 -3.13025,2.97138 -6.10797,6.80504 -10.49028,7.87711 -2.61648,0.0666 -4.30477,-3.14005 -6.59199,-1.35825 2.12276,-3.84656 -7.45094,-6.34527 -5.86911,-1.71977 1.46281,3.13209 -0.50148,7.40481 -4.2188,7.45309 -2.19388,-0.0559 -4.92881,-1.22238 -3.7732,2.21927 2.40724,3.81741 9.34134,0.1554 10.20705,-3.1345 0.95286,3.37201 6.28547,-3.02082 5.77621,0.88164 -2.75869,2.51352 -8.67682,4.69261 -10.18962,6.20736 0.56772,4.19466 -4.10968,-1.61645 -6.30494,0.62994 -2.49125,-0.0239 -7.38462,6.28614 -2.56757,4.44545 4.13383,-1.64671 8.71295,4.59193 5.14936,7.79073 -1.52184,1.49158 -5.27074,1.96479 -1.69494,3.77962 3.70017,2.26038 9.87304,1.46655 11.27695,-3.14882 0.59794,-1.90548 -1.75512,-5.52471 1.59765,-3.66046 3.72684,-2.28938 5.49809,-6.60703 7.74597,-10.21834 0.8358,-2.24103 4.80692,-4.34689 2.7662,-0.5463 -2.41645,3.24099 -3.61721,7.25631 -6.24891,10.3714 3.69343,1.12305 -3.60087,1.50086 -3.38731,4.1402 -1.53073,1.81144 -0.2408,8.93166 1.90576,6.32407 0.50329,-4.48652 7.19988,-7.2579 9.65712,-2.71706 2.51315,1.78084 -1.80866,7.93026 2.56427,5.45685 4.69553,-1.80266 5.28679,-8.58767 1.67286,-11.40897 0.0146,-2.44165 3.14843,1.55433 3.3928,-1.75811 1.34686,-1.99193 3.59455,-3.69101 3.11262,-6.22356 1.97645,0.9019 3.88797,7.33227 7.42145,4.3849 -0.52586,-3.10941 1.6362,-6.75548 5.1939,-6.36665 2.11046,-0.0348 5.13369,4.02159 4.58594,-0.64165 0.78464,-3.19812 -5.94829,-4.89039 -4.64952,-6.91103 3.28932,0.97349 3.41609,-1.27933 2.2046,-3.41294 2.58153,1.91231 11.10372,1.65333 14.36865,0.65275 -3.71549,-1.32362 -8.91386,-3.68135 -12.09436,-6.08924 2.00778,-2.54037 6.79754,2.94936 15.83727,-1.42575 -4.19251,0.73358 -10.25199,-4.38714 -13.83092,-4.77321 3.46521,-2.51591 7.77293,2.36327 10.30233,-1.91719 -2.95658,0.0103 -1.20239,-2.90977 -6.92857,-2.9657 3.86042,-1.73005 12.89572,0.67175 12.70829,-3.64516 -4.1372,1.5777 -5.36426,-0.75859 -7.54042,-2.0724 2.94818,0.63981 3.95456,-1.55351 3.44925,-4.01366 -1.44322,-7.02638 -7.73227,-17.66586 -12.31889,-22.83062 0.21854,-3.31336 5.25437,-4.19762 7.23862,-7.02068 1.61345,-2.29551 5.41663,-10.35943 5.96679,-5.15044 2.89945,-3.49535 7.03161,-13.24979 9.40447,-17.12777 -3.75328,0.50854 -6.04079,-3.61858 -12.63578,-7.45718 -10.23526,-7.38141 -17.05219,-14.03618 -24.18544,-7.60639 -2.13172,1.92148 -4.20772,14.64282 -6.33955,17.27457 z m -185.24423,6.35256 c -1.74067,-4.44227 1.03352,-10.56457 2.73268,-19.60988 -4.87762,2.6118 -9.81303,8.18507 -15.59846,14.04524 -1.84368,-3.81029 -7.07452,-4.05156 -10.831419,-5.8414 -3.759534,-1.79107 -13.420238,-1.55374 -17.206269,-3.20566 7.095611,0.46599 11.788328,-0.66601 17.062625,1.1437 4.721053,1.61988 2.903953,0.73867 7.489853,2.79435 l 1.28286,-1.93575 c -2.51684,-1.65041 -4.07485,-1.48364 -6.63195,-2.58336 -12.980934,-5.58258 -27.163482,-8.61037 -39.276944,-16.12177 -3.790348,-1.64524 -4.880496,-6.02651 -6.020087,-8.9117 -0.586775,-1.59159 2.511861,-3.38373 1.152143,-6.1819 -1.17525,-2.4185 -4.242776,-6.4771 -5.631642,-3.19127 -4.10712,2.39872 -6.935744,-0.21637 -7.618215,-3.49065 -4.823324,-0.96153 -5.879854,5.51671 -2.096321,7.72367 0.560123,2.67023 5.161945,0.89433 3.876727,3.83827 1.551244,2.67973 7.50701,3.24924 6.892093,6.30416 -4.866077,-0.33059 -9.101839,-4.78615 -12.525827,-8.1295 -0.998052,-1.83648 -2.044221,-3.30963 -3.039501,-0.82425 -2.187772,-0.61331 1.537581,-3.21278 -1.678632,-4.56601 -1.187741,-1.46795 -4.510856,-3.61275 -6.293469,-2.94888 -0.499134,0.18589 -1.869657,0.32436 -1.996954,0.95088 3.165269,3.76801 -2.191441,9.52596 -6.377356,7.55399 -4.86003,-2.91695 -3.22265,4.78312 -1.28102,7.08689 2.344034,3.26429 6.483808,-1.25487 9.663824,0.99203 0.836545,-2.19417 3.153083,-1.63371 2.170756,0.71618 4.038795,3.18808 9.614893,3.86571 14.579809,4.82429 1.630909,-0.35653 7.995326,1.36099 3.799707,2.56895 -5.589825,-0.67635 -11.525789,-0.59974 -16.654283,-3.26498 -1.077644,4.5073 -4.287851,-4.27401 -7.509859,-2.65388 -2.711484,-0.18766 -8.169314,3.34996 -7.060946,6.07878 3.696436,-0.79078 5.347762,4.56624 3.90811,8.04905 -0.787136,3.12904 -4.963208,3.17494 -0.439403,6.49511 3.42678,3.19532 10.182489,0.58445 11.411385,-3.69402 0.72083,-2.50961 1.53385,-2.6682 2.813568,-0.50472 1.922525,3.2502 7.222178,2.06339 10.428921,2.84427 -2.852781,2.01334 -5.94596,6.55483 -3.284111,9.84946 3.201321,-1.46812 8.977245,-1.64382 8.652825,3.56308 -1.40542,2.81332 1.055001,4.89681 3.03046,2.11671 2.649994,-1.93711 0.874738,-6.11579 2.414016,-7.65397 3.512317,2.48704 9.010395,3.1389 10.753806,7.54427 1.774361,3.17823 1.08592,6.86052 -3.742715,7.4 4.330714,1.63837 8.823596,1.26821 11.659078,-0.94465 -0.73414,4.20079 -3.438418,6.60595 -3.872414,12.02381 2.797106,-1.83448 9.631868,-6.23242 11.675054,-9.5454 0.896213,4.45243 -2.051903,7.26186 -3.270287,9.23575 4.026882,-0.19659 7.737592,-2.53422 10.260471,-6.10368 -0.72256,5.61139 -3.102468,6.10736 -5.331698,7.91537 4.325522,1.2343 9.461909,-2.2186 12.513894,-5.25837 -0.301841,3.6835 -2.31185,4.2592 -4.308077,6.36703 1.853392,1.64063 1.257551,8.74918 2.879366,8.55568 1.446735,-3.60443 8.838388,-9.94682 13.094178,-9.8933 -4.95034,3.5227 -2.16714,14.92005 0.68933,18.04672 10.59092,-4.3992 19.45696,-18.19082 19.45696,-18.19082 4.53154,4.92558 8.61133,6.11762 13.93095,6.90571 -2.23253,-17.69513 -5.12913,-5.55888 -10.46191,-22.14481 -0.51287,1.79983 -0.7153,2.05643 -1.51063,5.31046 -2.72419,-1.67053 -8.04385,-9.71083 -8.72505,-11.44928 z M 402.53125,12.9375 c -1.72977,0.03049 -3.355,0.516471 -4.1875,1.53125 10.76898,5.684972 -1.05729,16.570092 -6.15625,20.6875 -0.77687,0.627341 -2.61905,1.418432 -2.59375,-1.1875 -4.08326,4.677323 -5.98459,5.904881 -12.78125,8.71875 -5.10581,2.113891 -10.57085,2.380426 -16.03125,1.96875 -1.97515,-0.398853 -5.56909,-0.719549 -8.09375,-1.3125 4.1323,-5.583437 10.39387,-9.444133 17.96875,-13.875 -12.8976,-2.939604 -20.17228,2.926003 -30.21875,10.875 -0.23302,-0.07402 -0.48264,-0.143713 -0.71875,-0.21875 5.33755,-8.292345 13.21169,-13.011003 18.625,-14.84375 -12.33955,-5.740625 -21.40768,3.640845 -30.15625,11.375 -0.3616,-0.09952 -0.72708,-0.182832 -1.09375,-0.28125 2.62884,-4.254547 11.10082,-14.435949 15.1875,-14.0625 -14.14174,-3.867408 -19.08173,5.205053 -26,11.5625 -0.57588,-0.108148 -1.16428,-0.210965 -1.75,-0.3125 2.99251,-4.742354 4.90394,-9.158558 9.96875,-11.59375 -8.39788,-3.738081 -13.97143,4.489546 -20.21875,10.25 -0.66376,-0.05565 -1.32568,-0.08067 -2,-0.125 4.14264,-4.929006 4.17301,-7.798022 6.65625,-10.3125 C 299.40368,20.053479 297.92322,26.409218 293,31.875 c -0.99017,0.01888 -1.98992,0.04652 -3,0.09375 1.76326,-2.915274 2.93485,-5.632577 4.90625,-7.46875 -7.17094,0.55538 -15.78567,3.816976 -20.65625,9.34375 -54.50663,11.544377 -29.33322,40.328014 -7.1875,46.96875 18.95031,2.899711 42.98403,-0.04822 49.15625,0.78125 -3.29899,6.11288 -8.9423,10.821239 -15.8125,16.28125 13.92752,1.142392 20.19994,-6.531408 29.84375,-16.625 -3.94503,9.938591 -11.64919,16.25907 -17.0625,19 13.90146,4.19671 21.66465,-8.139905 29.75,-17.3125 1.67493,-0.610919 -8.17989,17.73259 -13.40625,18 17.28851,2.16708 19.09258,-11.933881 27.78125,-18.90625 -3.81801,6.60282 -4.34112,12.821626 -10.15625,16.71875 11.67777,3.31429 15.52301,-13.37601 24.21875,-18.1875 -7.47092,8.960552 -6.11627,12.553624 -8.78125,16.15625 12.93611,0.479244 9.60156,-11.283709 20.15625,-18 -3.62693,5.100179 -4.05661,10.088853 -6.65625,13.3125 5.81308,-0.412231 12.70824,-5.432991 16.34375,-9.53125 22.16083,-5.897282 27.67616,-1.01231 47.0625,13.03125 3.44785,3.036971 4.75255,8.51951 1.5625,12.0625 -1.95391,2.40506 -10.52459,5.68497 -13.53125,6.125 -35.31558,5.16831 -21.57789,3.26538 -73.125,-1.75 -22.00097,-2.14065 -55.59212,0.81544 -78,3.3125 -30.09257,3.35341 -51.74024,5.78124 -59.40625,5.78125 -1.362,0 -6.37482,0.28585 -7.25,0.1875 2.44853,2.63403 2.25676,4.8164 5.375,5.9375 14.25899,-2.30698 28.23652,-3.44063 42.53125,-4.9375 0.75985,0.34208 6.21367,-0.99454 5.75,0.0937 -16.50734,2.91292 -33.32551,4.67645 -49.78125,7.875 -1.58933,0.73856 -3.9117,1.40394 -7.3125,1.53125 -1.39008,0.31361 -2.77324,0.62705 -4.15625,0.96875 -0.1416,1.44473 -0.40592,3.35605 -0.21875,6.875 -5.47283,-0.69917 -7.17416,-2.14002 -9.90625,-4.03125 -0.0527,0.007 -0.10435,-0.006 -0.15625,0 2.2618,2.19365 4.16432,4.72246 6.03125,7.28125 1.3309,1.11629 2.98152,2.27925 5.34375,3.6875 -0.54394,0.40795 -1.12766,0.78351 -1.71875,1.125 0.12538,0.15448 0.24787,0.31585 0.375,0.46875 -0.35484,-0.0291 -0.70749,-0.0608 -1.0625,-0.0937 -2.0805,1.08486 -4.37833,1.7855 -6.71875,2.09375 1.32278,2.47565 3.2155,4.64512 5.9375,6.40625 l 2.75,1.8125 -3.25,0.40625 c -1.21673,0.1699 -2.40655,0.37149 -3.59375,0.5 2.29335,3.32309 4.93284,7.83539 5.90625,11.9375 C 196.27368,167.56494 186,168 185.375,168.5 l -3.21875,8.46875 c 2.95426,3.59322 6.09439,5.84468 6.84375,6.96875 22.42997,-4.73676 38.929,-8.35755 64.6875,-9.53125 16.16093,-15.89953 40.92123,-18.96708 59.09375,-30.46875 16.27124,-10.30275 25.04011,11.98306 38.40625,16.375 2.8734,-2.00267 8.86004,5.46226 12.9375,11.34375 2.04921,6.66184 5.0225,13.01921 7.0625,19.6875 1.18552,3.9992 2.16716,8.47703 -0.0312,12.34375 -1.3236,3.57712 -3.88588,5.14799 -6.96875,6.78125 5.1409,8.84611 10.65938,-2.32411 13.875,-6.0625 -1.36858,6.46927 -0.10936,13.806 3.71875,19 -1.42842,-2.90481 -1.79103,-11.05413 1.53125,-16.28125 -0.64172,6.32359 -0.56379,22.36632 7.59375,23.53125 -3.45087,-5.54104 -2.5511,-12.32037 -1.875,-18.46875 0.0926,-6.79837 -1.92948,-16.6552 -4.75,-22.9375 4.77664,5.89544 4.55627,11.88781 12.375,14.0625 3.60873,1.27725 7.9303,1.79464 10.65625,4.6875 2.9739,4.2784 1.12557,9.72852 1.21875,14.53125 -0.4907,5.42291 -0.86218,11.15325 -3.46875,16.03125 -1.12921,1.88253 -4.12105,2.53053 -3.4375,4.625 -3.24788,-1.41535 -9.60166,5.03285 -4.15625,5.9375 4.64546,3.45529 -3.84636,8.80519 0.96875,11.125 5.15356,-0.57073 4.64402,-6.88757 6.125,-10.34375 1.95206,-1.62913 -0.97527,-8.88275 2.9375,-7.53125 1.40052,3.85022 -1.09029,10.24508 -0.65625,12.59375 3.42446,1.41759 -3.27652,2.12583 -3.28125,4.71875 -1.88738,3.05829 -2.43712,7.57223 0.40625,10.25 1.89765,-1.5355 3.73652,-6.5085 7.84375,-4.40625 3.39516,0.71856 2.83218,4.38583 3.53125,6.46875 1.76137,0.20992 3.41146,-1.29587 4.71875,-2.3125 2.41145,-2.60337 4.09659,-9.1186 -0.21875,-10.46875 -3.23857,-0.12135 -1.94361,-1.80148 0.0625,-2.46875 -1.54042,-3.8735 -0.74404,-8.42211 -2.78125,-12.21875 -0.79181,-1.35455 -3.8736,-6.34713 -0.4375,-5.15625 2.54906,2.81493 3.65538,8.18754 5.15625,10.53125 2.99521,-1.92229 -1.821,3.20457 0.125,4.71875 -0.50239,3.10601 6.54485,7.91613 4.65625,2.5 -0.66942,-5.36183 7.31649,-7.70976 10.03125,-3.25 3.82228,-1.70262 3.43172,-7.58603 1.53125,-10.71875 -1.21926,-3.53947 -4.66195,-2.57049 -7.375,-2.65625 0.20175,-2.82771 4.34921,-5.99193 0.625,-8.1875 2.60598,-2.14129 9.04208,0.53419 10.15625,-4.4375 -3.52895,1.06714 -7.1867,-2.34371 -5.9375,-6 3.6303,-4.89001 1.94734,-4.81244 -2.625,-4.40625 1.82807,-1.107 5.51308,-3.21701 7.28125,-7.40625 -2.90632,1.01826 -6.81781,3.11459 -9.40625,1.125 4.47017,-1.77737 8.82444,-4.33457 10.50812,-9.64737 -3.4857,2.58409 -7.50774,1.87453 -10.63312,2.33487 4.88832,-3.84058 6.56352,-6.15389 7.83211,-9.892 -1.31703,1.55178 -5.79579,2.19601 -9.08211,2.54825 3.64221,-1.86148 6.58288,-5.19899 8.52068,-8.78309 -3.4923,2.20066 -6.63516,3.64856 -10.58318,3.93934 3.25929,-2.49825 9.20959,-7.41734 9.77497,-11.68214 -3.65295,2.21266 -5.91558,4.23761 -9.71247,3.27589 4.80627,-3.36977 7.69519,-5.93104 8.5625,-12.03125 -3.46023,2.85192 -9.71361,5.5015 -14.0625,4.5 -6.10774,-1.10786 -12.20368,-2.43087 -18.4375,-2.59375 -4.87428,-10.74058 -14.6024,-4.30845 -20.71875,-27.96875 l -0.21875,0.15625 0.0312,-0.0937 c 10e-6,1e-5 3.61421,-13.07696 -4.1875,-16.28125 4.31882,-3.4829 18.79204,0.11854 26.59375,1.09375 7.80173,0.97522 31.49555,0.30416 44.75,-13.84375 2.57235,-2.00644 5.13037,-3.99665 7.75,-5.9375 11.92739,-8.46537 19.40581,-9.4683 32.78125,-6.90625 -4.91717,-6.310232 -12.4646,-10.495467 -20.46875,-10.34375 -3.77082,-0.199611 -8.53696,3.841934 -11.53125,1.90625 12.44079,-5.678145 13.70394,-19.705394 11.84375,-32.53125 -3.65351,8.473807 -10.49795,16.942205 -12.78125,26.1875 0.4684,-15.51778 -8.06213,-22.221679 -11.21875,-26.125 3.18428,8.139213 4.07098,17.314345 6.125,26.0625 -2.69478,-1.913778 -5.33958,-4.049612 -8.15625,-6.09375 -19.07222,-13.841266 -21.03972,-21.450959 -56.25,-14.46875 -28.45477,8.265016 -70.49654,3.656349 -115.8125,-3.1875 -9.43585,-1.42505 -12.70232,-6.56013 -4.125,-11.125 34.6524,-18.44209 72.50205,3.207768 90.1875,2.96875 6.90568,-0.09333 14.88932,-0.688475 21.5625,-2.5625 9.70757,-2.726168 13.3343,-4.188756 18.1875,-5.15625 10.68708,-1.552191 33.31839,-2.04648 30.21875,13.6875 11.7238,-3.310446 7.44095,-15.525111 -1.4375,-19.3125 15.24303,0.652111 25.44606,4.456428 33.875,8.75 -5.22675,-10.942265 -21.24099,-12.359715 -28.25,-15.4375 7.25356,-2.565654 14.9236,1.23926 21.21875,4.75 -5.33128,-12.418885 -17.77959,-9.651997 -28.59375,-8.78125 0.53229,-3.243987 10.50203,-4.815976 14.34375,-3.4375 -4.36446,-6.193542 -15.0141,-4.162445 -21.84375,-0.34375 2.19924,-5.756276 5.13126,-5.863309 7.375,-6.5625 -5.05913,-6.025624 -14.05156,0.317354 -17.21875,1.5625 2.11295,-2.452975 3.43466,-6.233519 0.78125,-8.9375 -1.22426,-1.247612 -3.65101,-1.945446 -5.875,-1.90625 l 0,-5e-5 z"
       sodipodi:nodetypes="csccsccccccccccccccccccccccccccscccccccccccccccccscccccscccccccccccccccccccccccccccccccccccccccccscscccccccccccccccccccccccsscccccccccccccccccccccccccccccccccccccscsscccccccccssccccccscscscsccccccccccccccccscccccccccccccccccccccsccccccscccccccccccccccccccccccccccccccccccccccccccccccccccccccccccccccccccscscccsccccscsccsccsccccccccsccccccccccccsscccccccccccccccccccccccccscscccccccccccccccccccccccccccccccccccsssscccccccccccccccccccccccccccccccccccccccccccccccccccccccccccccccccccccccccccccccccccscccccccccscsssscccccccccccscc" />
    <path
       style="fill:#ffffff;fill-rule:evenodd;stroke:#000000;stroke-width:2.49999976;stroke-linecap:butt;stroke-linejoin:miter;stroke-miterlimit:4;stroke-opacity:1;stroke-dasharray:none"
       d="m 145.74857,92.887601 c -0.25359,1.610142 -0.46011,3.193466 -0.47675,4.02956 -0.0348,1.761366 1.35874,4.315689 1.35874,4.315689 0,0 2.22471,-1.625521 2.74132,-3.338103 0.27713,-0.918677 1.01686,-2.58832 1.76399,-4.196466 -0.43373,0.170764 -0.87405,0.286147 -1.28723,0.33381 -0.99667,0.114973 -3.17214,-0.743308 -4.10007,-1.14449 z"
       id="path9749" />
    <path
       style="fill:#ffffff;fill-rule:evenodd;stroke:#000000;stroke-width:2.49999976;stroke-linecap:butt;stroke-linejoin:miter;stroke-miterlimit:4;stroke-opacity:1;stroke-dasharray:none"
       d="m 168.21009,99.794591 c 0,0 -2.24214,1.638889 -2.75876,3.351479 -0.65741,2.17924 -1.99382,7.20984 -1.99382,7.20984 l 5.86983,-0.7621 c 0.74172,-3.63366 0.47721,-6.45418 -1.11725,-9.799219 z"
       id="path10106"
       sodipodi:nodetypes="csccc" />
    <path
       style="fill:#ffffff;fill-rule:evenodd;stroke:#000000;stroke-width:2.49999976;stroke-linecap:butt;stroke-linejoin:miter;stroke-miterlimit:4;stroke-opacity:1;stroke-dasharray:none"
       d="m 173.40017,96.44029 c -1.36451,0.280135 -4.12872,0.734855 -5.48264,0.262279 0.24527,1.502279 0.44295,2.874981 0.42908,3.576531 -0.0348,1.76137 1.33491,4.33953 1.33491,4.33953 0,0 2.24854,-1.64936 2.76516,-3.36194 0.28608,-0.94835 0.6346,-2.912999 0.95349,-4.8164 z"
       id="path9751" />
    <g
       id="g10094"
       transform="matrix(0.84708452,0,0,0.84729648,-4.7289887,23.456318)">
      <g
         transform="matrix(-1.1635574,0.13454672,0.13454672,1.1635574,378.60328,53.919009)"
         id="g7611">
        <path
           style="fill:#000000;fill-opacity:1;stroke:none"
           d="m 135.16349,-12.898103 c -5.05799,-0.05237 -3.63264,-8.65905 -8.47319,-4.77127 -2.02741,-3.01858 5.78893,-4.42327 6.67505,-7.80505 2.77756,0.302448 7.32914,2.470042 10.5383,1.785399 4.59495,-0.980289 7.56289,-4.995184 8.18879,-4.80957 0.94208,0.27938 -7.22769,7.840501 -8.67941,13.494241 -2.19397,2.01578 -5.3512,2.91928 -8.24954,2.10625 z"
           id="path2418-7"
           sodipodi:nodetypes="cccsscc" />
        <path
           style="fill:#ffffff;fill-opacity:1;stroke:none"
           d="m 139.92175,-15.400763 c 4.87634,-0.46624 4.32837,-6.46611 -0.53215,-6.09822 -2.90929,-3.20823 -7.56467,-2.61618 -7.42692,2.4536 0.58593,3.52954 5.04871,4.26029 7.95907,3.64462 z"
           id="path2416-4" />
        <path
           style="fill:#000000;fill-opacity:1;stroke:none"
           d="m 136.3662,-16.920573 c -5.23744,-2.79047 1.66387,-7.98003 2.0726,-1.42249 1.9303,-0.85091 5.07143,-0.6527 1.62687,0.98289 -1.15079,0.5105 -2.46048,0.70723 -3.69947,0.4396 z"
           id="path2414-0" />
      </g>
      <g
         id="g10086"
         transform="matrix(1.1344095,0.29169133,-0.29169133,1.1344095,14.031126,29.368401)">
        <path
           sodipodi:nodetypes="cccsscc"
           id="path10088"
           d="m 135.16349,-12.898103 c -5.05799,-0.05237 -3.63264,-8.65905 -8.47319,-4.77127 -2.02741,-3.01858 5.78893,-4.42327 6.67505,-7.80505 2.77756,0.302448 7.32914,2.470042 10.5383,1.785399 4.59495,-0.980289 7.56289,-4.995184 8.18879,-4.80957 0.94208,0.27938 -7.22769,7.840501 -8.67941,13.494241 -2.19397,2.01578 -5.3512,2.91928 -8.24954,2.10625 z"
           style="fill:#000000;fill-opacity:1;stroke:none" />
        <path
           id="path10090"
           d="m 139.92175,-15.400763 c 4.87634,-0.46624 4.32837,-6.46611 -0.53215,-6.09822 -2.90929,-3.20823 -7.56467,-2.61618 -7.42692,2.4536 0.58593,3.52954 5.04871,4.26029 7.95907,3.64462 z"
           style="fill:#ffffff;fill-opacity:1;stroke:none" />
        <path
           id="path10092"
           d="m 136.3662,-16.920573 c -5.23744,-2.79047 1.66387,-7.98003 2.0726,-1.42249 1.9303,-0.85091 5.07143,-0.6527 1.62687,0.98289 -1.15079,0.5105 -2.46048,0.70723 -3.69947,0.4396 z"
           style="fill:#000000;fill-opacity:1;stroke:none" />
      </g>
    </g>
    <path
       style="fill:#cc0000;fill-opacity:1;fill-rule:evenodd;stroke:none"
       d="m 158.95459,93.006818 c -0.99796,0.09969 -2.34887,0.251438 -3.19423,0.476872 -0.57884,0.154356 0.0567,0.109045 -0.57211,0.429184 -0.20699,0.990799 -3.59603,10.790306 -2.12154,14.783006 0.88977,2.40941 3.59948,7.12922 3.59948,7.12922 0,0 4.74875,-3.58017 5.81637,-6.41392 1.35551,-3.59788 1.8966,-11.685338 1.95468,-14.329972 -0.32781,-0.379119 -0.0735,-0.123607 -0.40524,-0.33381 -0.76716,-0.486136 -2.45489,-1.227942 -3.26574,-1.573675 -2.15594,11.787807 -2.43144,16.237457 -2.43144,16.237457 l -1.35875,2.57511 -0.81048,-3.76728 c 0,0 0.4004,-4.16815 2.789,-15.212192 z"
       id="path9761" />
    <path
       transform="matrix(0.76280289,0,0,0.76299376,11.495251,25.887208)"
       sodipodi:type="arc"
       style="fill:#000000;fill-opacity:1;stroke:none"
       id="path10205"
       sodipodi:cx="204.08238"
       sodipodi:cy="81.073349"
       sodipodi:rx="1.420527"
       sodipodi:ry="0.91545075"
       d="m 205.50291,81.073349 a 1.420527,0.91545075 0 1 1 -2.84105,0 1.420527,0.91545075 0 1 1 2.84105,0 z" />
    <path
       d="m 205.50291,81.073349 a 1.420527,0.91545075 0 1 1 -2.84105,0 1.420527,0.91545075 0 1 1 2.84105,0 z"
       sodipodi:ry="0.91545075"
       sodipodi:rx="1.420527"
       sodipodi:cy="81.073349"
       sodipodi:cx="204.08238"
       id="path10207"
       style="fill:#000000;fill-opacity:1;stroke:none"
       sodipodi:type="arc"
       transform="matrix(0.76280289,0,0,0.76299376,16.792765,26.320758)" />
    <path
       transform="matrix(0.76280289,0,0,0.76299376,13.903214,29.162858)"
       sodipodi:type="arc"
       style="fill:#000000;fill-opacity:1;stroke:none"
       id="path10209"
       sodipodi:cx="204.08238"
       sodipodi:cy="81.073349"
       sodipodi:rx="1.420527"
       sodipodi:ry="0.91545075"
       d="m 205.50291,81.073349 a 1.420527,0.91545075 0 1 1 -2.84105,0 1.420527,0.91545075 0 1 1 2.84105,0 z" />
    <path
       d="m 205.50291,81.073349 a 1.420527,0.91545075 0 1 1 -2.84105,0 1.420527,0.91545075 0 1 1 2.84105,0 z"
       sodipodi:ry="0.91545075"
       sodipodi:rx="1.420527"
       sodipodi:cy="81.073349"
       sodipodi:cx="204.08238"
       id="path10211"
       style="fill:#000000;fill-opacity:1;stroke:none"
       sodipodi:type="arc"
       transform="matrix(0.76280289,0,0,0.76299376,-1.1224542,24.731098)" />
    <path
       transform="matrix(0.76280289,0,0,0.76299376,-4.1564877,27.187838)"
       sodipodi:type="arc"
       style="fill:#000000;fill-opacity:1;stroke:none"
       id="path10213"
       sodipodi:cx="204.08238"
       sodipodi:cy="81.073349"
       sodipodi:rx="1.420527"
       sodipodi:ry="0.91545075"
       d="m 205.50291,81.073349 a 1.420527,0.91545075 0 1 1 -2.84105,0 1.420527,0.91545075 0 1 1 2.84105,0 z" />
    <path
       d="m 205.50291,81.073349 a 1.420527,0.91545075 0 1 1 -2.84105,0 1.420527,0.91545075 0 1 1 2.84105,0 z"
       sodipodi:ry="0.91545075"
       sodipodi:rx="1.420527"
       sodipodi:cy="81.073349"
       sodipodi:cx="204.08238"
       id="path10215"
       style="fill:#000000;fill-opacity:1;stroke:none"
       sodipodi:type="arc"
       transform="matrix(0.76280289,0,0,0.76299376,-5.6494227,24.393898)" />
    <path
       style="fill:#000000;fill-opacity:1;stroke:none"
       d="m 314.13219,135.75884 c -19.09189,-7.42462 -37.47666,-7.42462 -37.47666,-7.42462 14.49569,3.71231 37.47666,7.6014 37.47666,7.42462 z"
       id="path4230" />
    <path
       id="path4248"
       d="m 263.65746,130.01535 c -0.10103,23.72492 -9.71854,36.94827 -9.71854,36.94827 13.26005,-7.87559 9.89499,-36.93738 9.71854,-36.94827 z"
       style="fill:#000000;fill-opacity:1;stroke:none"
       sodipodi:nodetypes="ccc" />
    <path
       style="fill:#000000;fill-opacity:1;stroke:none"
       d="m 372.6707,141.55415 c 9,18.5 24,32.25 24,32.25 -19.5,-13.25 -24.25,-32 -24,-32.25 z"
       id="path4996" />
    <path
       id="path2895"
       d="m 421.10321,209.03721 c -8.18731,-8.14475 -0.2697,-18.35306 -6.21792,-18.9193 -1.53333,1.53436 -7.11478,1.03369 -4.41059,-1.41524 3.3211,-0.60198 9.64096,-1.41196 8.82182,3.76956 -0.47814,3.02457 -1.4352,9.27772 1.80669,16.56498 z"
       style="fill:#000000;fill-opacity:1;stroke:none" />
    <path
       id="path2901"
       d="m 311.53452,237.6416 c 0.91107,-6.39485 11.52761,-12.74022 10.77227,-17.83634 -1.76314,-1.76968 -8.76905,-2.30351 -5.63103,-5.82586 2.27334,3.30356 9.67249,3.24351 7.30396,9.1426 -1.09559,3.53569 -10.12609,10.27797 -12.4452,14.5196 z"
       style="fill:#000000;fill-opacity:1;stroke:none" />
    <path
       id="path2924"
       d="m 305.34891,182.45055 c 6.79219,-8.65779 12.36168,-18.36479 20.52044,-25.88931 2.59601,-1.44726 1.40281,-4.53082 -1.04516,-2.12004 -7.72856,7.20052 -12.86973,16.58293 -18.42905,25.43515 0.0613,0.45779 -1.7917,2.39143 -1.04623,2.5742 z"
       style="fill:#000000;fill-opacity:1;stroke:none" />
    <path
       id="path2464"
       d="m 120.67341,179.61494 c -1.60504,3.20413 -4.51417,5.62205 -8.86228,3.93038 -2.26356,-0.88067 -11.61033,-3.40242 -16.036997,-3.56948 6.785957,-2.74206 19.924217,4.24318 21.809887,0.40142 1.12233,-2.53819 1.40842,-1.46879 3.8916,-4.29423 l -0.80224,3.5319 0,0 z"
       style="fill:#000000;fill-opacity:1;stroke:none" />
  </g>
</svg>
