<?xml version="1.0" encoding="UTF-8" standalone="no"?>
<!-- Created with Inkscape (http://www.inkscape.org/) -->

<svg
   xmlns:dc="http://purl.org/dc/elements/1.1/"
   xmlns:cc="http://creativecommons.org/ns#"
   xmlns:rdf="http://www.w3.org/1999/02/22-rdf-syntax-ns#"
   xmlns:svg="http://www.w3.org/2000/svg"
   xmlns="http://www.w3.org/2000/svg"
   xmlns:sodipodi="http://sodipodi.sourceforge.net/DTD/sodipodi-0.dtd"
   xmlns:inkscape="http://www.inkscape.org/namespaces/inkscape"
   width="210mm"
   height="297mm"
   viewBox="0 0 744.09448819 1052.3622047"
   id="svg4676"
   version="1.1"
   inkscape:version="0.91 r13725"
   sodipodi:docname="DemiLionRampantErased.svg">
  <defs
     id="defs4678" />
  <sodipodi:namedview
     id="base"
     pagecolor="#ffffff"
     bordercolor="#666666"
     borderopacity="1.0"
     inkscape:pageopacity="0.0"
     inkscape:pageshadow="2"
     inkscape:zoom="0.29457538"
     inkscape:cx="372.04724"
     inkscape:cy="526.1811"
     inkscape:document-units="px"
     inkscape:current-layer="layer1"
     showgrid="false"
     inkscape:window-width="960"
     inkscape:window-height="481"
     inkscape:window-x="-8"
     inkscape:window-y="-8"
     inkscape:window-maximized="1" />
  <metadata
     id="metadata4681">
    <rdf:RDF>
      <cc:Work
         rdf:about="">
        <dc:format>image/svg+xml</dc:format>
        <dc:type
           rdf:resource="http://purl.org/dc/dcmitype/StillImage" />
        <dc:title></dc:title>
      </cc:Work>
    </rdf:RDF>
  </metadata>
  <g
     inkscape:label="Layer 1"
     inkscape:groupmode="layer"
     id="layer1">
    <g
       id="g6022"
       transform="matrix(1.2232645,0,0,1.2232645,-110.43756,-105.29132)">
      <path
         sodipodi:nodetypes="ccscssc"
         inkscape:connector-curvature="0"
         id="rect8179"
         d="m 116.02626,153.79589 566.35742,0 0,258.58397 c 0,285.48607 -283.17773,397.82031 -283.17773,397.82031 0,0 -196.7156,-78.03561 -262.23438,-269.31836 -13.09102,-38.21935 -20.94531,-80.9595 -20.94531,-128.50195 z"
         style="opacity:1;fill:#ff0000;fill-opacity:1;fill-rule:nonzero;stroke:#000000;stroke-width:3;stroke-linecap:round;stroke-miterlimit:4;stroke-dasharray:none;stroke-opacity:1" />
      <g
         id="g4928"
         transform="matrix(1.0556826,0,0,1.0556826,9.9020539,-34.546323)">
        <g
           transform="matrix(1.8095633,0,0,1.9593875,-4684.5389,-800.38668)"
           style="fill:#ffffff;fill-opacity:1;stroke:#000000;stroke-width:0.64235651;stroke-miterlimit:4;stroke-dasharray:none;stroke-opacity:1;shape-rendering:crispEdges"
           id="g8067-39-6-4-9">
          <path
             sodipodi:nodetypes="sscccsssszsczczczcsczcs"
             inkscape:connector-curvature="0"
             id="path4074-4-6-0-3-7-5-86-9-54-1"
             class="fil4 str11"
             d="m 2853.2708,686.13245 c -15.3652,-13.61155 -24.3187,-25.26421 -23.9932,-39.57231 0.2533,-11.13849 2.023,-23.81751 2.0936,-35.53058 l -43.6302,-0.99247 -13.262,16.09987 c -5.8938,18.62391 1.9143,37.51785 13.8565,49.23246 3.1646,3.10428 6.693,6.13765 10.2456,9.14391 0.8882,0.75156 1.6099,1.81176 2.4958,2.56062 0.8859,0.74886 1.2381,1.22124 1.969,2.08909 3.4873,4.14076 0,0 3.4873,4.14076 3.4873,4.14076 -2.1063,11.34215 -2.6689,11.88445 -9.6691,9.32046 -9.6456,17.25205 -9.6456,17.25205 0,0 20.72,-2.58205 27.0717,-10.51205 6.3517,-7.93001 5.845,-15.91015 5.845,-15.91015 0,0 0.5934,6.80008 1.2305,12.50083 0.6372,5.70075 8.6138,14.4896 8.6138,14.4896 0,0 6.6117,-8.92047 7.3831,-14.20549 0.7715,-5.28502 -0.3076,-13.35316 -0.3076,-13.35316 0,0 4.507,12.89723 7.9985,16.47837 7.6622,7.85911 29.5327,8.8074 29.5327,8.8074 0,0 -14.7866,-12.23262 -16.6122,-17.89892 -1.8255,-5.6663 -7.292,-12.37969 -7.292,-12.37969 -1.3432,-1.62455 -3.0874,-3.15167 -4.4114,-4.32459 z"
             style="display:inline;fill:#ffffff;fill-opacity:1;stroke:#000000;stroke-width:0.64235651;stroke-linejoin:round;stroke-miterlimit:4;stroke-dasharray:none;stroke-opacity:1" />
          <path
             inkscape:connector-curvature="0"
             id="path4082-7-3-3-0-4-1-6-9-6-5"
             class="fil5 str10"
             d="m 2812.9739,650.30061 c 2.2615,12.82416 11.1125,15.48802 18.459,27.19258"
             style="display:inline;fill:#ffffff;fill-opacity:1;stroke:#000000;stroke-width:0.64235651;stroke-linecap:round;stroke-linejoin:bevel;stroke-miterlimit:4;stroke-dasharray:none;stroke-opacity:1" />
        </g>
        <g
           transform="matrix(9.2955456,-1.572949,1.5609995,10.815736,-268.91573,-1124.1497)"
           id="g12488-7-6-7-0-66-3-4-9"
           style="fill:#ffffff;fill-opacity:1;stroke:#000000;stroke-width:0.11918407;stroke-miterlimit:4;stroke-dasharray:none;stroke-opacity:1;shape-rendering:crispEdges">
          <path
             inkscape:connector-curvature="0"
             style="fill:#ffffff;fill-opacity:1;stroke:#000000;stroke-width:0.11918407;stroke-linejoin:round;stroke-miterlimit:4;stroke-dasharray:none;stroke-opacity:1"
             inkscape:export-ydpi="90"
             inkscape:export-xdpi="90"
             inkscape:export-filename="D:\Dokumenty\Adam\wiki\path16127.png"
             d="m 30.545383,138.81184 c 0.1352,0.1292 0.601539,0.47563 0.634339,0.92463 0.0283,0.4179 -0.153223,0.86425 -0.668223,0.85065 -0.1248,-0.001 -0.2061,-0.0515 -0.2815,-0.1274 -0.0649,-0.0703 -0.08967,-0.20154 -0.111274,-0.30654 -0.0058,-0.21578 0.146136,-0.35252 0.258774,-0.50036 0.174088,-0.2285 0.133303,-0.75385 0.167884,-0.84098 z"
             class="fil0 str3"
             id="path12490-3-8-3-8-0-8-3-8"
             sodipodi:nodetypes="cccccsc" />
          <path
             inkscape:connector-curvature="0"
             style="fill:#ffffff;fill-opacity:1;stroke:#000000;stroke-width:0.11918407;stroke-linejoin:round;stroke-miterlimit:4;stroke-dasharray:none;stroke-opacity:1"
             inkscape:export-ydpi="90"
             inkscape:export-xdpi="90"
             inkscape:export-filename="D:\Dokumenty\Adam\wiki\path16127.png"
             d="m 28.377153,137.73072 c 0.02987,0.1592 -0.01481,0.70378 -0.198753,0.95145 -0.09981,0.23439 -0.166356,0.40175 -0.187342,0.46629 -0.0125,0.3583 0.361842,0.80984 0.722742,0.53304 1.022769,-0.93265 -0.170547,-1.87158 -0.336647,-1.95078 z"
             class="fil0 str3"
             id="path12492-7-2-5-4-48-9-2-6"
             sodipodi:nodetypes="ccccc" />
          <path
             inkscape:connector-curvature="0"
             style="fill:#ffffff;fill-opacity:1;stroke:#000000;stroke-width:0.11918407;stroke-linejoin:round;stroke-miterlimit:4;stroke-dasharray:none;stroke-opacity:1"
             d="m 28.848699,141.08507 c -0.0195,-0.0507 0.1108,-0.346 0.1524,-0.5156 0.0355,-0.1453 0.1279,-0.3025 0.1775,-0.4061 0.067,-0.14 0.1842,-0.1832 0.2939,-0.2432 0.0786,-0.0431 0.2668,0.0346 0.3869,0.0145 0.1059,-0.018 0.2717,0.2189 0.3287,0.2521 0.0971,0.0564 0.21,0.1416 0.3404,0.2047 0.1281,0.0621 0.2912,0.1354 0.3946,0.1955 0.1253,0.0728 0.2292,0.1851 0.2929,0.2925 0.0745,0.1256 0.0567,0.2535 0.0581,0.4003 0.0013,0.1394 -0.0453,0.2915 -0.0805,0.4353 -0.0439,0.1789 -0.1336,0.2359 -0.2445,0.3603 -0.1197,0.1342 -0.2428,0.1536 -0.3966,0.2378 -0.0302,0.0165 -0.0602,0.0329 -0.0903,0.0494 -0.0993,0.0544 -0.1425,0.0903 -0.2104,0.1153 m -1.4031,-1.3928 0,0 0,0 z"
             class="fil0 str3"
             id="path12494-0-5-9-0-5-5-5-1" />
          <path
             inkscape:connector-curvature="0"
             style="fill:#ffffff;fill-opacity:1;stroke:#000000;stroke-width:0.11918407;stroke-linejoin:round;stroke-miterlimit:4;stroke-dasharray:none;stroke-opacity:1"
             sodipodi:nodetypes="cssccccccccsscccscccccsscccccccccc"
             d="m 41.056123,146.75665 -4.609819,-1.85851 c -1.13915,-0.45926 -2.468918,-0.92449 -3.204166,-1.27921 -0.4362,-0.21044 -1.503938,-0.73423 -2.100338,-1.00623 -0.6952,-0.3143 -1.8799,-0.7431 -2.1336,-1.6798 -0.1196,-0.4411 0.4017,-0.8347 -0.021,-1.5472 l -0.3365,0.1313 -0.2855,-0.3033 -0.3297,-0.3318 0.1188,-0.1707 c -0.524,-0.4329 -1.4354,-0.2353 -1.5434,0.3357 -0.406246,-0.26707 -0.733115,-0.35828 -1.218102,-0.18479 -0.455907,0.16309 -0.666793,0.44494 -0.991599,0.78517 -0.188771,0.19773 -0.3286,0.482 -0.3367,0.7717 -0.03329,0.28894 0.04179,0.61798 0.198701,0.85352 l 0.1893,-0.0131 c -0.233096,0.16629 -0.419591,0.33451 -0.525788,0.45851 -0.390085,0.45545 -0.446078,1.44246 0.146416,1.90178 0.205,0.2075 0.569372,0.32311 0.830272,0.36601 0.6528,0.0988 1.2838,0.7782 1.874,0.3792 0.2049,0.2727 -0.036,-0.1433 0.2936,-0.0252 -0.017,0.0216 -0.0334,0.0428 -0.0446,0.064 0.47267,0.6709 1.09763,1.16806 1.813271,1.56183 0.634929,0.34936 1.674607,0.79926 1.597736,1.23727 -0.05265,0.29997 -0.930885,1.12567 -1.197185,1.00797 0.906784,0.55291 2.351756,-0.31095 2.654956,-0.25265 -0.574354,0.56293 -0.689509,1.63604 -0.315691,2.21589 0.297746,-0.48902 1.023235,-0.97346 1.470776,-1.09494 0.32945,0.39775 0.664378,0.19831 1.070451,0.29512 -0.312507,0.30956 -0.628037,1.70514 -0.313306,2.11743 0.2993,-0.5154 1.295825,-1.47821 1.523025,-1.40611 0.5079,0.1662 3.594208,1.45983 3.892308,1.40033 l 2.334572,-3.29555 z"
             class="fil0 str3"
             id="path12496-5-7-8-2-4-7-75-1" />
          <path
             inkscape:connector-curvature="0"
             style="fill:#ffffff;fill-opacity:1;stroke:#000000;stroke-width:0.11918407;stroke-linejoin:round;stroke-miterlimit:4;stroke-dasharray:none;stroke-opacity:1"
             inkscape:export-ydpi="90"
             inkscape:export-xdpi="90"
             inkscape:export-filename="D:\Dokumenty\Adam\wiki\path16127.png"
             d="m 22.698191,142.95157 c 0.0985,-0.0359 0.242402,-0.0371 0.645902,-0.0445 0.2131,-0.004 0.770607,0.1163 1.028607,0.0545 0.344,-0.0824 0.6559,-0.70288 0.3334,-0.96878 -0.832,-0.68 -1.966009,0.79628 -2.007909,0.95878 z"
             class="fil0 str3"
             id="path12498-2-7-4-8-52-0-8-1"
             sodipodi:nodetypes="ccscc" />
          <path
             inkscape:connector-curvature="0"
             style="fill:#ffffff;fill-opacity:1;stroke:#000000;stroke-width:0.11918407;stroke-linejoin:round;stroke-miterlimit:4;stroke-dasharray:none;stroke-opacity:1"
             inkscape:export-ydpi="90"
             inkscape:export-xdpi="90"
             inkscape:export-filename="D:\Dokumenty\Adam\wiki\path16127.png"
             d="m 23.606297,139.01848 c 0.2199,0.084 0.625,0.4026 0.8539,0.801 0.1445,0.254 0.5926,0.4451 0.8385,0.2205 0.479,-0.4337 0.2642,-0.9122 -0.2163,-1.139 -0.2402,-0.1134 -0.8051,-0.15 -1.0809,-0.0694 -0.0667,0.0151 -0.2783,0.1106 -0.3952,0.1869 z"
             class="fil0 str3"
             id="path12501-2-2-7-6-3-1-67-4" />
          <path
             inkscape:connector-curvature="0"
             style="fill:#ffffff;fill-opacity:1;stroke:#000000;stroke-width:0.11918407;stroke-linejoin:round;stroke-miterlimit:4;stroke-dasharray:none;stroke-opacity:1"
             d="m 26.6031,139.019 c 0.0374,0.0644 0.1613,0.2084 0.2037,0.3216 0.0339,0.0907 0.1106,0.1791 0.139,0.2548 0.0585,0.1563 0.1179,0.3152 0.1751,0.4678 0.035,0.0936 0.0492,0.1951 0.0793,0.2755 0.04,0.1068 0.069,0.221 0.114,0.3257 0.0334,0.0775 0.1078,0.156 0.1559,0.2256 0.0576,0.0835 0.1024,0.1728 0.19,0.2215 0.109,0.0608 0.3177,0.2996 0.3881,0.4014 0.0995,0.1442 0.2816,0.2495 0.4345,0.3347 0.0089,0.005 0.0116,0.0167 0.0173,0.025 0.0402,0.0583 0.1506,0.0608 0.1845,0.0797 m -2.0814,-2.9333 0,0 0,0 z"
             class="fil0 str3"
             id="path12504-7-4-5-1-3-0-0-7" />
          <path
             inkscape:connector-curvature="0"
             style="fill:#ffffff;fill-opacity:1;stroke:#000000;stroke-width:0.11918407;stroke-linejoin:round;stroke-miterlimit:4;stroke-dasharray:none;stroke-opacity:1"
             d="m 27.5088,141.883 c -0.98128,-0.0763 -1.534069,-0.70908 -2.2041,-0.8888 -0.371571,-0.0294 -0.631475,0.0312 -0.8522,0.2652 m 3.0563,0.624 0,0 z"
             class="fil0 str3"
             id="path12506-8-1-5-8-88-9-3-3"
             sodipodi:nodetypes="cccccc" />
          <path
             inkscape:connector-curvature="0"
             style="fill:#ffffff;fill-opacity:1;stroke:#000000;stroke-width:0.11918407;stroke-linejoin:round;stroke-miterlimit:4;stroke-dasharray:none;stroke-opacity:1"
             d="m 26.7454,143 c -0.0235,0.0154 -0.0857,0.176 -0.1091,0.2168 -0.039,0.0676 -0.0511,0.0992 -0.1097,0.1625 -0.0605,0.0655 -0.1225,0.1274 -0.182,0.1917 -0.061,0.0662 -0.0737,0.1001 -0.1096,0.1625 M 26.7454,143 l 0,0 0,0 z"
             class="fil0 str3"
             id="path12509-4-6-0-3-58-9-8-2" />
          <path
             inkscape:connector-curvature="0"
             style="fill:#ffffff;fill-opacity:1;stroke:#000000;stroke-width:0.11918407;stroke-linejoin:round;stroke-miterlimit:4;stroke-dasharray:none;stroke-opacity:1"
             d="m 25.9352,140.783 c -0.0612,0.0663 0.0814,0.1893 0.0366,0.2672 -0.0424,0.0734 -0.0613,0.1065 -0.1352,0.1792 m 0.0986,-0.4464 0,0 0,0 z"
             class="fil0 str3"
             id="path12511-1-3-8-9-9-4-2-7" />
          <path
             inkscape:connector-curvature="0"
             style="fill:#ffffff;fill-opacity:1;stroke:#000000;stroke-width:0.11918407;stroke-linejoin:round;stroke-miterlimit:4;stroke-dasharray:none;stroke-opacity:1"
             d="m 27.4592,140.151 c -0.0443,0.0767 -0.0649,0.1843 -0.1948,0.1998 -0.0153,0.002 -0.0255,0.0167 -0.0382,0.025 m 0.233,-0.2248 0,0 0,0 z"
             class="fil0 str3"
             id="path12513-3-9-6-4-3-0-8-1" />
          <path
             inkscape:connector-curvature="0"
             style="fill:#ffffff;fill-opacity:1;stroke:#000000;stroke-width:0.11918407;stroke-linejoin:round;stroke-miterlimit:4;stroke-dasharray:none;stroke-opacity:1"
             d="m 35.0004,145.394 c -0.0643,-0.056 -0.5635,-0.1511 -0.7796,-0.2184 -0.3413,-0.1064 -0.5704,-0.318 -0.9354,-0.4442 -0.2526,-0.0872 -0.5862,-0.4126 -0.7825,-0.5439 -0.0775,-0.0519 -0.2697,-0.0964 -0.3342,-0.1091 m 2.8317,1.3156 0,0 0,0 z"
             class="fil0 str3"
             id="path12515-2-1-7-4-5-9-1-2" />
          <path
             inkscape:connector-curvature="0"
             style="fill:#ffffff;fill-opacity:1;stroke:#000000;stroke-width:0.11918407;stroke-linejoin:round;stroke-miterlimit:4;stroke-dasharray:none;stroke-opacity:1"
             d="m 31.6071,146.264 c -0.3976,-0.2661 0.6028,0.754 1.0003,1.0201 0.3085,0.2064 0.5062,0.6354 0.7936,0.8277 0.104,0.0695 0.2519,0.024 0.3761,0.009 m -2.17,-1.8568 0,0 0,0 z"
             class="fil0 str3"
             id="path12517-8-34-6-3-2-2-8-8" />
        </g>
        <g
           transform="matrix(9.3593314,-1.0387752,1.0308837,10.889953,-178.33385,-1150.5874)"
           id="g12538-0-1-8-4-3-0-41-9"
           style="fill:#ffffff;fill-opacity:1;stroke:#000000;stroke-width:0.11918406;stroke-miterlimit:4;stroke-dasharray:none;stroke-opacity:1;shape-rendering:crispEdges">
          <path
             inkscape:connector-curvature="0"
             style="fill:#ffffff;fill-opacity:1;stroke:#000000;stroke-width:0.11918406;stroke-linejoin:round;stroke-miterlimit:4;stroke-dasharray:none;stroke-opacity:1"
             inkscape:export-ydpi="90"
             inkscape:export-xdpi="90"
             inkscape:export-filename="D:\Dokumenty\Adam\wiki\path16127.png"
             d="m 23.912035,152.51913 c 0.521152,0.35052 0.229156,0.14971 0.722067,0.60837 0.157183,0.27195 0.221242,0.44481 0.363842,0.68571 0.2056,0.339 0.7489,0.478 0.8978,-0.0311 0.223244,-1.52852 -1.265344,-1.66446 -1.983709,-1.26298 z"
             class="fil0 str3"
             id="path12540-4-3-9-3-4-8-2-0"
             sodipodi:nodetypes="ccccc" />
          <path
             inkscape:connector-curvature="0"
             style="fill:#ffffff;fill-opacity:1;stroke:#000000;stroke-width:0.11918406;stroke-linejoin:round;stroke-miterlimit:4;stroke-dasharray:none;stroke-opacity:1"
             sodipodi:nodetypes="cssccccsscccccccccccsccccccccscccccsc"
             d="m 39.215247,147.97549 c 0,0 -2.850663,1.97103 -4.640747,3.10041 -1.424617,0.89881 -2.849478,1.64502 -4.3272,2.5352 -0.713672,0.42992 -1.8437,1.2317 -2.8004,0.8192 -0.4506,-0.1941 -0.566005,-1.11075 -1.442205,-1.21115 -0.09839,0.58228 -1.069758,0.75446 -1.2182,0.2544 -0.705,0.187 -0.898395,1.38285 -0.484995,1.87825 -0.345794,0.11256 -0.466097,0.19858 -0.6983,0.40354 -0.841254,0.74255 -0.655239,2.20083 0.203899,2.90166 0.310287,0.25311 0.672872,0.3102 0.946253,0.40212 l 0.02575,-0.17162 0.1467,0.7114 0.4898,0.4426 0.473571,0.3052 -0.1203,0.2013 c 0.232927,0.15406 0.588465,0.1579 0.842929,0.1383 0.308,-0.0468 0.5609,-0.1187 0.7659,-0.3313 0.5055,-0.5379 0.6259,-0.7331 0.6697,-1.5574 0.184,-0.005 0.371,-0.008 0.5602,-0.0205 0.1936,-0.0172 0.3282,-0.0792 0.4705,-0.1905 0.0073,0.0308 0.0146,0.0607 0.0253,0.0857 0.0933,0.217 0.2423,0.3763 0.2943,0.4518 0.0817,0.1062 0.4539,0.3266 0.5801,0.3388 l -0.0385,-0.2752 0.469,0.0606 0.5919,-0.0672 -0.0565,0.297 c 0.1977,-0.1982 0.4567,-0.188 0.6263,-0.5345 0.132,-0.2596 0.1686,-0.6323 0.169,-0.9191 0.0052,-0.2646 0.984061,-0.72875 1.46302,-0.90316 1.148055,-0.41805 1.372862,0.35172 1.28729,0.99664 0.666042,-0.42439 1.251621,-1.31777 0.742408,-2.31438 0.787797,0.10925 1.158345,0.53669 1.068318,1.5439 0.938135,-0.53336 1.036411,-1.68438 0.717625,-2.56602 1.158873,0.47722 0.951904,0.80649 0.937497,1.63765 1.616249,-1.02581 0.924,-1.65769 1.33699,-2.59036 0.165945,-0.37476 0.62001,-0.79213 1.328969,-1.41526"
             class="fil0 str3"
             id="path12542-9-0-9-9-2-2-2-8" />
          <path
             inkscape:connector-curvature="0"
             style="fill:#ffffff;fill-opacity:1;stroke:#000000;stroke-width:0.11918406;stroke-linejoin:round;stroke-miterlimit:4;stroke-dasharray:none;stroke-opacity:1"
             inkscape:export-ydpi="90"
             inkscape:export-xdpi="90"
             inkscape:export-filename="D:\Dokumenty\Adam\wiki\path16127.png"
             d="m 29.966793,160.43982 c 0.194,-0.0511 0.623343,-0.2047 0.894043,-0.6354 0.2496,-0.4023 0.256064,-1.11302 -0.226536,-1.39662 -0.1159,-0.0708 -0.2178,-0.0674 -0.328,-0.035 -0.321698,0.24858 -0.39096,0.60414 -0.352614,0.91973 0.06468,0.279 0.02803,1.0389 0.0131,1.14729 z"
             class="fil0 str3"
             id="path12544-6-9-0-2-35-5-6-2"
             sodipodi:nodetypes="ccccccc" />
          <path
             inkscape:connector-curvature="0"
             style="fill:#ffffff;fill-opacity:1;stroke:#000000;stroke-width:0.11918406;stroke-linejoin:round;stroke-miterlimit:4;stroke-dasharray:none;stroke-opacity:1"
             inkscape:export-ydpi="90"
             inkscape:export-xdpi="90"
             inkscape:export-filename="D:\Dokumenty\Adam\wiki\path16127.png"
             d="m 25.240087,161.75249 c 0.0333,-0.1164 0.184315,-0.51617 0.438715,-0.89607 0.1343,-0.2007 0.441815,-0.30798 0.556315,-0.59038 0.1526,-0.3765 -0.184517,-1.15474 -0.618017,-1.03924 -1.607856,0.38978 -0.667817,2.31334 -0.377013,2.52569 z"
             class="fil0 str3"
             id="path12546-2-2-5-8-7-7-8-8"
             sodipodi:nodetypes="ccccc" />
          <path
             inkscape:connector-curvature="0"
             style="fill:#ffffff;fill-opacity:1;stroke:#000000;stroke-width:0.11918406;stroke-linejoin:round;stroke-miterlimit:4;stroke-dasharray:none;stroke-opacity:1"
             inkscape:export-ydpi="90"
             inkscape:export-xdpi="90"
             inkscape:export-filename="D:\Dokumenty\Adam\wiki\path16127.png"
             d="m 22.046491,158.20799 c 0.2132,-0.146 0.7447,-0.3019 1.2296,-0.2387 0.3085,0.0414 0.7597,-0.2425 0.7286,-0.6262 -0.0575,-0.7451 -0.6012,-0.8767 -1.1037,-0.5874 -0.2512,0.1446 -0.6472,0.6441 -0.7573,0.956 -0.0303,0.0724 -0.0863,0.335 -0.0972,0.4963 z"
             class="fil0 str3"
             id="path12548-9-7-6-3-3-9-3-9" />
          <path
             inkscape:connector-curvature="0"
             style="fill:#ffffff;fill-opacity:1;stroke:#000000;stroke-width:0.11918406;stroke-linejoin:round;stroke-miterlimit:4;stroke-dasharray:none;stroke-opacity:1"
             d="m 24.2724,155.339 c 0.0787,0.01 0.2807,-0.006 0.4039,0.0335 0.0987,0.0312 0.223,0.021 0.3055,0.0472 0.17,0.0537 0.3428,0.1084 0.509,0.161 0.1019,0.0322 0.197,0.0893 0.2844,0.117 0.1162,0.0367 0.2317,0.0888 0.3494,0.1195 0.0871,0.0226 0.2015,0.008 0.2916,0.0113 0.1079,0.004 0.2124,0.0244 0.3103,-0.0232 0.1219,-0.0592 0.4587,-0.0879 0.5905,-0.0827 0.1862,0.007 0.3931,-0.089 0.564,-0.1721 0.01,-0.005 0.0216,9e-4 0.0324,0.001 0.0752,0.003 0.1488,-0.0978 0.1866,-0.1162 m -3.8276,-0.0966 0,0 0,0 z"
             class="fil0 str3"
             id="path12550-5-0-0-3-85-1-1-1" />
          <path
             inkscape:connector-curvature="0"
             style="fill:#ffffff;fill-opacity:1;stroke:#000000;stroke-width:0.11918406;stroke-linejoin:round;stroke-miterlimit:4;stroke-dasharray:none;stroke-opacity:1"
             d="m 27.2818,156.48 c 0.0053,2e-4 -0.2637,0.2736 -0.3143,0.3229 -0.1273,0.1241 -0.278,0.2084 -0.4278,0.3184 -0.1581,0.1162 -0.3399,0.2094 -0.5226,0.2796 -0.2208,0.0848 -0.3854,0.1926 -0.6036,0.2764 -0.236902,0.1264 -0.380384,0.30269 -0.5068,0.527 -0.104318,0.22673 -0.185342,0.49965 -0.1276,0.6832 m 2.5027,-2.4075 z"
             class="fil0 str3"
             id="path12552-7-25-9-0-2-6-1-4"
             sodipodi:nodetypes="ccccccccc" />
          <path
             inkscape:connector-curvature="0"
             style="fill:#ffffff;fill-opacity:1;stroke:#000000;stroke-width:0.11918406;stroke-linejoin:round;stroke-miterlimit:4;stroke-dasharray:none;stroke-opacity:1"
             d="m 27.7337,157.962 c 0.184534,0.30797 0.301195,0.56415 0.313702,0.8356 m -0.313702,-0.8356 0,0 z"
             class="fil0 str3"
             id="path12554-8-6-4-1-025-4-7-3"
             sodipodi:nodetypes="ccccc" />
          <path
             inkscape:connector-curvature="0"
             style="fill:#ffffff;fill-opacity:1;stroke:#000000;stroke-width:0.11918406;stroke-linejoin:round;stroke-miterlimit:4;stroke-dasharray:none;stroke-opacity:1"
             d="m 29.078102,158.5866 c -0.09391,-0.26949 -0.177072,-0.50686 -0.0988,-0.77555 0.06161,-0.28235 0.230581,-0.48989 0.318501,-0.63415"
             class="fil0 str3"
             id="path12556-2-5-3-0-9-3-0-6"
             sodipodi:nodetypes="ccc" />
          <path
             inkscape:connector-curvature="0"
             style="fill:#ffffff;fill-opacity:1;stroke:#000000;stroke-width:0.11918406;stroke-linejoin:round;stroke-miterlimit:4;stroke-dasharray:none;stroke-opacity:1"
             d="m 31.4629,156.873 c 3e-4,-9e-4 0.1605,0.252 0.1916,0.2898 0.058,0.0704 0.0493,0.2314 0.0769,0.3028 0.0322,0.0835 -0.0036,0.2281 0.0109,0.3181 0.0082,0.0508 0.0019,0.1272 0.0055,0.1589 m -0.2849,-1.0696 0,0 0,0 z"
             class="fil0 str3"
             id="path12558-3-2-2-5-67-3-1-2" />
          <path
             inkscape:connector-curvature="0"
             style="fill:#ffffff;fill-opacity:1;stroke:#000000;stroke-width:0.11918406;stroke-linejoin:round;stroke-miterlimit:4;stroke-dasharray:none;stroke-opacity:1"
             d="m 25.3336,157.18 c 0.0165,0.1028 0.2128,0.0554 0.2497,0.1509 0.0347,0.0902 0.0505,0.1305 0.0643,0.2495 m -0.314,-0.4004 0,0 0,0 z"
             class="fil0 str3"
             id="path12560-1-06-6-2-8-8-7-3" />
          <path
             inkscape:connector-curvature="0"
             style="fill:#ffffff;fill-opacity:1;stroke:#000000;stroke-width:0.11918406;stroke-linejoin:round;stroke-miterlimit:4;stroke-dasharray:none;stroke-opacity:1"
             d="m 25.7841,155.328 c 0.0363,0.0943 0.1141,0.1878 0.0433,0.3193 -0.0082,0.0154 -0.0023,0.0351 -0.0035,0.0527 m -0.0398,-0.372 0,0 0,0 z"
             class="fil0 str3"
             id="path12562-4-4-6-1-95-1-3-7" />
          <path
             inkscape:connector-curvature="0"
             style="fill:#ffffff;fill-opacity:1;stroke:#000000;stroke-width:0.11918406;stroke-linejoin:round;stroke-miterlimit:4;stroke-dasharray:none;stroke-opacity:1"
             d="m 35.0948,151.952 c -0.0891,0.021 -0.4922,0.4189 -0.6888,0.5729 -0.3107,0.2435 -0.6377,0.3098 -0.9803,0.5615 -0.2372,0.1742 -0.7281,0.259 -0.9661,0.3504 -0.0941,0.0362 -0.256,0.1838 -0.3083,0.235 m 2.9435,-1.7198 0,0 0,0 z"
             class="fil0 str3"
             id="path12564-6-1-2-9-5-1-5-2" />
          <path
             sodipodi:nodetypes="csc"
             inkscape:connector-curvature="0"
             style="fill:#ffffff;fill-opacity:1;stroke:#000000;stroke-width:0.11918406;stroke-linejoin:round;stroke-miterlimit:4;stroke-dasharray:none;stroke-opacity:1"
             d="m 33.269393,155.56596 c 0.476618,-0.19607 1.063515,-0.34683 1.58,-0.63407 0.503969,-0.28028 0.936535,-0.69774 1.48127,-0.83779"
             class="fil0 str3"
             id="path12566-7-5-1-4-81-4-49-7" />
        </g>
        <path
           sodipodi:nodetypes="cccsccscccsccsccsccsccccccccc"
           style="fill:#ffffff;fill-opacity:1;stroke:#000000;stroke-width:1.20954823;stroke-linecap:round;stroke-linejoin:bevel;stroke-miterlimit:4;stroke-dasharray:none;stroke-opacity:1;shape-rendering:crispEdges"
           d="m 274.32478,420.25221 c 33.22874,6.43847 33.17235,-20.92304 46.82235,-26.81414 -8.78901,-0.80667 -23.36142,9.00357 -34.11259,-3.92499 17.32091,-6.17032 17.03295,-15.52789 28.60217,-18.36516 13.6106,-3.33792 23.29146,3.61426 35.62718,7.21496 -14.32356,-7.6608 -11.69142,-19.67696 -11.23157,-30.50387 5.51542,10.09452 14.54342,14.66634 25.94531,9.94153 11.77337,-4.87886 19.44125,-18.90558 41.65842,-29.55501 l 3.11641,-7.32046 29.74742,-56.33806 31.07671,9.23548 c 19.61613,5.82962 3.20079,33.29233 26.86286,46.71973 -3.80595,3.5677 -14.43235,5.70494 -21.96889,-6.88825 4.30036,11.3926 13.27368,16.82011 16.13425,27.25511 2.92596,10.67395 -2.53836,25.94023 -1.87464,43.95572 -0.9708,-4.93625 -9.77737,-0.4421 -14.81097,-14.80579 3.6652,13.02661 4.64328,26.29865 1.47605,37.30612 -3.63907,12.64684 -6.90267,22.75225 -7.12253,33.99942 -10.24064,-8.28751 -13.71953,-15.93074 -16.95986,-31.01962 2.35562,9.18437 8.27678,29.08353 -0.55192,41.31257 -8.27221,11.45836 -10.93834,18.37496 -12.29988,31.35525 -12.06903,-2.59285 -12.7753,-27.65963 -15.27425,-40.77152 -0.873,37.15735 -18.30884,35.12123 -16.1264,63.0578 -21.87338,-4.09113 -27.91618,-30.94113 -26.30937,-55.5454 -3.95771,31.41838 -30.97249,33.91309 -8.46137,60.82014 -37.39788,-3.42001 -42.87804,-31.15651 -33.51412,-58.76545 -4.1653,17.60053 -21.75575,29.88306 -33.6696,29.63051 14.96031,-29.49582 -1.46576,-38.18106 13.29239,-57.30363 -21.59001,18.95028 -35.16278,11.85719 -46.07356,-3.88299 z"
           class="fil4 str10"
           id="path4126-6-3-2-3-1-9-9-3-5"
           inkscape:connector-curvature="0" />
        <path
           style="fill:#ffffff;fill-rule:evenodd;stroke:#000000;stroke-width:1.20954823;stroke-linecap:butt;stroke-linejoin:miter;stroke-miterlimit:4;stroke-dasharray:none;stroke-opacity:1"
           d="m 380.0004,319.57925 c -6.50978,0.11539 -13.60903,0.19884 -20.25944,0.18978 -6.6504,-0.008 -12.8518,-0.11079 -17.56618,-0.36549 -4.60643,-0.24901 -9.685,0.49051 -13.73324,-1.69778 -1.96087,-1.05994 -3.2042,-3.16269 -4.29164,-5.09337 -1.32085,-2.34512 -3.0516,-4.99732 -2.57505,-7.64005 0.32166,-1.78372 -0.53522,-6.6819 1.91605,-7.09571 2.85215,-0.48151 2.71652,5.18261 4.89854,7.05303 1.85751,1.59213 4.28293,2.46134 6.61528,3.24111 2.50109,0.83617 5.40877,0.8973 7.77709,1.49622 1.96003,0.49569 5.20421,0.10681 7.22218,0.24865 2.85387,0.20058 6.76262,0.15006 6.76262,0.15006 l 45.22353,0.13562 c 0,0 0.5969,2.52271 1.07801,3.98756 0.2407,0.73241 1.14512,4.50218 0.81433,7.96038 -0.33064,3.45819 -1.76599,6.6048 -1.76599,6.6048 -6.49294,-4.49331 -12.00151,-7.02104 -22.11609,-9.17483 z"
           id="path11824-1-6-7-80-3"
           inkscape:connector-curvature="0"
           sodipodi:nodetypes="cssssssaassccsscc" />
        <path
           style="fill:#ffffff;fill-rule:evenodd;stroke:#000000;stroke-width:1.20954823;stroke-linecap:butt;stroke-linejoin:miter;stroke-miterlimit:4;stroke-dasharray:none;stroke-opacity:1"
           inkscape:transform-center-x="0.5567132"
           inkscape:transform-center-y="4.891463"
           d="m 372.95811,298.73651 -0.19259,12.65576 c -0.0614,3.98875 2.14104,11.77122 2.14104,11.77122 0,0 -5.03944,-7.06048 -6.33032,-10.80361 l -3.59339,-10.42024 c 0,0 2.36875,-1.17939 3.6128,-1.58757 1.24405,-0.40819 7.42918,-2.87224 7.42918,-2.87224 z"
           id="path11828-4-6-6-9-5"
           inkscape:connector-curvature="0"
           sodipodi:nodetypes="cscscscc" />
        <path
           style="fill:#ffffff;fill-rule:evenodd;stroke:#000000;stroke-width:1.20954823;stroke-linecap:butt;stroke-linejoin:miter;stroke-miterlimit:4;stroke-dasharray:none;stroke-opacity:1"
           inkscape:transform-center-x="-1.1902511"
           inkscape:transform-center-y="-4.6922267"
           d="m 375.95516,308.65298 c 0,0 -0.22142,7.54332 -0.0529,11.30957 0.1342,2.98829 0.84589,8.93504 0.84589,8.93504 l 4.03437,0.31052 4.17673,0.40636 c 0,0 -4.12276,-6.88016 -5.76925,-10.52084 -1.40581,-3.10864 -3.23548,-10.44065 -3.23548,-10.44065 z"
           id="path11828-3-2-4-3-3-3"
           inkscape:connector-curvature="0"
           sodipodi:nodetypes="cacccsc" />
        <path
           style="fill:#ffffff;fill-opacity:1;stroke:#000000;stroke-width:1.20954823;stroke-linejoin:bevel;stroke-miterlimit:4;stroke-dasharray:none;stroke-opacity:1;shape-rendering:crispEdges"
           d="m 482.60943,267.94608 c -2.12747,9.91492 -15.7672,10.04779 -25.61367,5.5599 3.04702,1.07245 9.84975,13.31983 19.22267,15.5339 -4.05565,4.78001 -11.14405,7.14099 -19.87711,5.43357 17.47939,14.12361 9.6182,29.14249 6.16516,36.69506 0.85629,-10.58986 -4.11619,-15.92018 -10.26421,-20.1897 -2.72794,19.91775 7.46916,28.88402 -11.33094,42.47482 6.53719,-11.11824 -1.92731,-9.92133 -2.08208,-25.38558 1.56927,17.66825 -16.58824,16.25792 -19.08762,36.60853 -10.00166,-16.21345 6.59216,-23.83235 3.91204,-37.81651 -0.35206,14.66434 -13.80762,10.20655 -30.87927,10.01047 -13.67542,-0.15714 -22.69443,14.3753 -28.89083,-10.38789 4.49551,-1.29039 16.77855,0.87371 20.5364,0.97274 20.99081,2.38121 24.15205,-25.87276 6.90794,-30.16828 -9.09153,-2.0603 -16.86406,5.16623 -25.58113,6.87549 -10.36513,2.03252 -10.45079,-14.89486 -9.70285,-21.01499 -2.88355,-1.6941 -2.0952,-4.79796 -1.79041,-6.74995 8.11646,-4.69165 17.402,-12.08857 25.03477,-16.735 7.63277,-4.64643 13.61275,-7.54773 21.25079,-11.29095 5.21433,-2.6492 9.69658,-2.5471 18.68831,-4.14386 9.33409,-1.77817 14.93118,-0.79981 21.29391,1.35288 3.6946,1.2502 6.44125,2.06296 9.10995,3.99989 5.27458,3.82872 24.52995,19.54995 32.97818,18.36539 z"
           class="fil4 str9"
           id="path4142-0-3-8-3-5-07-6-43-5"
           inkscape:connector-curvature="0"
           sodipodi:nodetypes="ccccccccccscccsccscccccc" />
        <path
           style="fill:#ffffff;fill-opacity:1;stroke:#000000;stroke-width:1.20954823;stroke-linecap:round;stroke-linejoin:bevel;stroke-miterlimit:4;stroke-dasharray:none;stroke-opacity:1;shape-rendering:crispEdges"
           d="m 400.71496,292.22003 c 5.78554,4.14144 7.92587,10.48859 8.94407,17.51069"
           class="fil5 str10"
           id="path4206-4-6-0-9-0-0-1-9"
           inkscape:connector-curvature="0" />
        <path
           style="fill:#ffffff;fill-opacity:1;stroke:#000000;stroke-width:1.20954823;stroke-linejoin:round;stroke-miterlimit:4;stroke-dasharray:none;stroke-opacity:1;shape-rendering:crispEdges"
           sodipodi:nodetypes="cccccccccccccccccc"
           d="m 438.09387,253.36805 c 2.96151,-3.29778 6.47337,-6.95582 9.97453,-9.2125 5.60779,-3.32096 12.04506,-4.5243 15.54721,-2.06384 3.6098,2.54528 4.55547,10.53432 3.43963,15.66998 -1.24048,4.96421 -3.18322,9.24315 -7.08156,13.19964 m -21.87981,-17.59328 0,0 0,0 z"
           class="fil6 str11"
           id="path7455_159-2-9-1-0-4-6-0-1"
           inkscape:connector-curvature="0" />
        <path
           style="fill:#ffffff;fill-opacity:1;stroke:#000000;stroke-width:1.20954823;stroke-miterlimit:4;stroke-dasharray:none;stroke-opacity:1;shape-rendering:crispEdges"
           d="m 458.49265,243.43135 c -7.33739,5.33431 -8.58587,12.17375 -9.21589,13.97214 -1.63707,-6.3721 1.93304,-13.27808 9.21589,-13.97214 z"
           class="fil2"
           id="path4178_235-5-2-7-4-07-2-9-3"
           inkscape:connector-curvature="0" />
        <path
           sodipodi:nodetypes="cccccc"
           inkscape:connector-curvature="0"
           id="path4122-3-1-5-3-1-3-91-9-7-8"
           class="fil5 str10"
           d="m 351.26389,378.36288 c 4.22269,2.03267 11.13878,3.15708 18.78311,0.0175 -8.30476,17.05911 -19.39186,17.74716 -31.2506,20.53646 20.41148,16.59518 42.48274,6.20728 59.19847,-7.54352 -8.68436,12.80092 -20.84748,23.92216 -22.06954,34.81529 25.91777,-21.84824 37.73453,8.53661 51.1968,-23.21245"
           style="display:inline;fill:#ffffff;fill-opacity:1;stroke:#000000;stroke-width:1.20954823;stroke-linecap:round;stroke-linejoin:bevel;stroke-miterlimit:4;stroke-dasharray:none;stroke-opacity:1;shape-rendering:crispEdges" />
        <path
           style="fill:#ffffff;fill-rule:evenodd;stroke:#ffffff;stroke-width:1px;stroke-linecap:butt;stroke-linejoin:miter;stroke-opacity:1"
           d="m 354.92848,279.06277 0,1.90565 0.63522,2.22327 1.66746,4.60533"
           id="path4926"
           inkscape:connector-curvature="0"
           sodipodi:nodetypes="cccc" />
        <path
           style="fill:#000000;fill-rule:evenodd;stroke:#000000;stroke-width:1.20954823;stroke-linecap:butt;stroke-linejoin:miter;stroke-miterlimit:4;stroke-dasharray:none;stroke-opacity:1"
           d="m 358.08104,288.68943 2.46426,-4.96756 c 0,0 3.97757,-1.91678 3.61224,-3.5524 -0.32693,-1.46369 -2.98736,-0.77588 -4.28951,-1.5542 -0.88299,-0.52773 -2.29065,-2.05374 -2.29065,-2.05374 0,0 -3.25047,1.17222 -1.92805,5.68914 0.64573,2.20586 2.43171,6.43876 2.43171,6.43876 z"
           id="path4023-6-4-4-1"
           inkscape:connector-curvature="0"
           sodipodi:nodetypes="cssacsc" />
        <g
           style="fill:#ffffff;stroke:#000000;stroke-width:1.40122437;stroke-miterlimit:4;stroke-dasharray:none"
           id="g11831-5-1-3-3-2-1"
           transform="matrix(0.8677007,0,0,0.85873871,281.06898,200.70836)">
          <path
             sodipodi:nodetypes="csscccsssssccc"
             inkscape:connector-curvature="0"
             id="path11788-9-0-9-1-7-0-2"
             d="m 126.93846,76.205894 c 0,0 4.33486,0.221648 6.4586,-0.134157 1.40737,-0.23579 2.78403,-0.703547 4.0753,-1.310926 1.7257,-0.811727 3.34952,-1.866992 4.82253,-3.078266 4.10913,-2.964562 6.91192,-5.367235 9.69419,-9.608687 0.51725,-0.54605 1.67086,-1.751434 1.67086,-1.751434 0,0 1.16058,5.565834 1.5801,8.375908 0.34181,2.289893 0.72624,4.588864 0.76208,6.903854 0.0314,2.023968 0.2557,4.167525 -0.47893,6.053722 -0.68379,1.755652 -2.03312,3.248397 -3.48277,4.451891 -1.4221,1.180618 -3.15067,2.024588 -4.9213,2.554771 -2.04168,0.611348 -4.24806,0.945128 -6.35983,0.657652 -4.82681,-0.51448 -8.2953,-2.251254 -10.5767,-4.510212 -1.64211,-2.784102 -2.2286,-5.513983 -3.24413,-8.604116 z"
             style="fill:#ffffff;fill-rule:evenodd;stroke:#000000;stroke-width:1.40122437;stroke-linecap:butt;stroke-linejoin:miter;stroke-miterlimit:4;stroke-dasharray:none;stroke-opacity:1" />
        </g>
        <path
           style="fill:#000000;fill-rule:evenodd;stroke:#000000;stroke-width:1.20954823;stroke-linecap:butt;stroke-linejoin:miter;stroke-miterlimit:4;stroke-dasharray:none;stroke-opacity:1"
           d="m 393.43625,257.55984 c 0.0214,1.40294 0.58991,2.86032 1.49618,3.94335 0.97451,1.16442 2.46469,1.89227 3.92003,2.36622 1.37611,0.44821 2.91669,0.69098 4.33148,0.38038 1.45263,-0.31891 2.69567,-1.29768 3.85707,-2.21365 0.99321,-0.7832 1.63451,-1.93461 2.59574,-2.75535 1.16083,-0.99106 2.45998,-1.82542 3.78926,-2.58422 1.2539,-0.71576 2.54507,-1.40562 3.92489,-1.84306 1.45177,-0.46028 2.97963,-0.73098 4.50351,-0.79786 1.4482,-0.0635 2.94123,-0.0232 4.33147,0.38038 1.39195,0.40396 2.45612,1.60636 3.85222,1.99566 1.51287,0.42189 3.13782,0.20927 4.7068,0.31389 l 4.70681,0.3139 c 0,0 -3.65193,-1.66309 -5.48873,-2.47087 -1.67548,-0.73675 -3.35625,-1.46218 -5.04573,-2.16675 -1.52743,-0.63695 -3.01647,-1.38514 -4.60273,-1.86269 -1.30972,-0.39424 -2.65628,-0.74839 -4.02411,-0.81743 -1.65506,-0.0837 -3.33283,0.1222 -4.94664,0.49375 -1.38382,0.31862 -2.76535,0.76706 -3.99256,1.47249 -1.77127,1.01813 -3.28073,2.44919 -4.71194,3.89541 -0.94396,0.95402 -1.41152,2.3732 -2.52779,3.12592 -0.84545,0.5701 -1.92005,0.76025 -2.93453,0.90247 -0.64173,0.09 -1.31514,0.11563 -1.94431,-0.0381 -0.61745,-0.15096 -1.24747,-0.4101 -1.70446,-0.84578 -0.57919,-0.55208 -0.99736,-1.31273 -1.15725,-2.09049 2.99819,-6.6269 -2.70867,-2.98798 -2.93468,0.9024 z"
           id="path11786-0-9-0-0-9-0-2"
           inkscape:connector-curvature="0"
           sodipodi:nodetypes="cssssssssssscssssssssssscc" />
        <ellipse
           style="fill:#000000;fill-rule:evenodd;stroke:#000000;stroke-width:1.20954823;stroke-linecap:butt;stroke-linejoin:miter;stroke-miterlimit:4;stroke-dasharray:none;stroke-opacity:1"
           id="path11790-0-4-3-5-2-5-8"
           cx="407.01401"
           cy="269.31244"
           rx="6.8982806"
           ry="6.8493724" />
      </g>
    </g>
  </g>
</svg>
